<?xml version="1.0" encoding="utf-8"?>
<!DOCTYPE svg PUBLIC "-//W3C//DTD SVG 1.0//EN" "http://www.w3.org/TR/2001/REC-SVG-20010904/DTD/svg10.dtd">
<svg version="1.0" xmlns="http://www.w3.org/2000/svg" width="1024px" height="1024px" viewBox="0 0 1024 1024" preserveAspectRatio="xMidYMid meet">
 <g fill="#9897f7">
  <path d="M679.5 981.3 c-32.7 -2.1 -54.4 -10.9 -75.1 -30.5 -20.8 -19.7 -34.3 -43.3 -47.3 -82.4 -8 -24.2 -10.5 -29.8 -16.7 -36.4 -5.7 -6.1 -12.4 -9.7 -21.2 -11.2 -13 -2.2 -24.6 1.5 -34 10.9 -6.5 6.5 -10.5 14.8 -16.1 33.6 -6.2 20.7 -10.5 31.9 -17.2 44.7 -14.5 27.8 -32.5 46.9 -55 58.5 -17.9 9.2 -31.7 12.5 -52.9 12.5 -37 0 -65.3 -11.9 -91.5 -38.4 -16 -16.2 -23.5 -26.9 -35.4 -51.1 -20.1 -40.5 -29 -72 -44.5 -157 -15.4 -84.3 -21.6 -108.1 -36.1 -139.4 -6.4 -13.8 -8.9 -18.3 -25.9 -46.6 -31.9 -53.1 -50.8 -109.9 -59.2 -178.5 -2.3 -18.4 -2.6 -73.1 -0.6 -91.5 4.8 -43.3 17.3 -84.8 34.8 -115.6 35.7 -63.1 91.1 -102.2 162.3 -114.5 12 -2 19.2 -2.6 40.1 -3.1 28.1 -0.6 38.5 0.3 60.5 5.2 37.5 8.4 60.5 18.9 138.1 63.1 l27.1 15.5 11.4 -6.4 c6.3 -3.5 19.1 -10.9 28.4 -16.4 62.1 -36.5 97.1 -51.3 137 -58.4 17.7 -3.1 61.8 -3.9 80 -1.4 26 3.5 48.2 10.3 72 22 21.9 10.8 35.6 20.4 53.6 37.7 27.8 26.6 49.1 60.6 61.8 98.6 8.1 24.2 15 58.6 17.1 84.6 1.8 23.3 0.9 59.4 -2 80.6 -8.1 57.6 -19.9 99.1 -44.4 155.8 -5.8 13.4 -9.3 21.3 -26.3 60.2 -6.3 14.6 -16 43 -20.8 61.5 -1.9 7.2 -7 31.6 -11.5 54.2 -12 61.7 -17.1 82.2 -30.7 123.8 -17.3 52.9 -38.6 91.9 -64.5 117.7 -26.6 26.5 -61.2 40.3 -95.3 38.1z m-320 -73.7 c17.5 -8 28.5 -25.1 41.5 -64.4 7.9 -24.1 11.8 -33 19.6 -45 16.9 -25.9 43.4 -42.8 75.7 -48.3 10.6 -1.8 35.3 -0.7 45.2 2.1 18.5 5 35.4 14.8 49 28.5 15.1 15 23.5 30.5 34.3 63 8 24 11.4 32.1 17.6 41.4 9.4 14 20 22 33.5 25.1 19.9 4.6 44.9 -9.4 61.6 -34.5 9.8 -14.7 22.3 -42.8 32.3 -72 6.3 -18.2 16.9 -59.5 21.6 -84 10.2 -52.9 13 -65.8 18.1 -84.5 10.2 -37.7 18.8 -61.4 35.6 -97.6 16.2 -35.2 28.6 -64.6 33.4 -78.9 9 -27.4 16.3 -58.8 20.7 -90.2 l2.2 -15.8 0 -31 c0.1 -24.7 -0.3 -33.5 -1.7 -43 -7.3 -49 -23.7 -88.2 -47.7 -113.9 -22.2 -23.6 -47.8 -37.9 -80.2 -44.7 -13 -2.7 -42.8 -3.7 -57.4 -2 -37.8 4.5 -74.4 19 -114.8 45.5 -12.3 8.2 -16.7 11.9 -14.4 12.4 0.7 0.1 2.7 2.4 4.3 5 7.5 12 48.3 69.6 89 125.7 38.5 53.1 50.2 70.2 65 95 39.1 65.3 56.9 118 56.8 168.5 0 47.3 -14.8 89.6 -43.3 124.5 -9.6 11.7 -25.8 26.5 -38 34.7 -9.9 6.6 -16 9.9 -34.5 18.3 -4.1 1.8 -20.3 6.2 -29.5 7.9 -29.5 5.6 -67.2 4.2 -93.4 -3.5 -18.4 -5.3 -36 -12.7 -53 -22.1 -46.5 -25.8 -84.9 -72.4 -102 -123.8 -7.5 -22.5 -9.7 -35.1 -10.3 -59 -0.6 -23.4 0.7 -36.6 5.6 -56.6 14.8 -60.2 42.3 -111.4 125.2 -232.2 7.6 -11.2 14.7 -21.7 15.6 -23.4 l1.8 -2.9 -1.6 -0.9 c-0.9 -0.5 -9.7 -6.3 -19.5 -12.8 -32.2 -21.3 -50.8 -32.3 -94.4 -56.2 -48.7 -26.6 -67.6 -34.8 -96.5 -41.6 l-12 -2.9 -25 0.1 -25 0 -13 2.7 c-61.3 13 -101.1 49.6 -121.5 111.4 -9.9 30.2 -12.5 49.3 -12.5 92.8 l0 32 2.3 15.5 c6.2 41.8 17.6 79.3 34.1 112.6 3.9 7.6 13.1 24.3 20.6 36.9 21.3 36 31.2 57.5 41 89 6.5 20.8 12.5 46.7 18 77.2 15.2 85.5 17.4 96.2 25 122.9 16.4 57.2 41.3 92.5 69.8 98.9 8.9 2.1 18.1 1.4 25.2 -1.9z m283 -222.5 c15.3 -3.7 23.5 -7 33.7 -13.7 38.7 -25.5 58.4 -72.5 51.4 -122.4 -6.1 -43.4 -27.1 -93.5 -60.1 -143.5 -12.6 -19 -58.1 -84.6 -71.8 -103.5 -3.4 -4.7 -6.9 -9.6 -7.8 -11 l-1.6 -2.4 -4 5.5 c-31.6 42.9 -79.1 121.3 -93.8 154.9 -8.6 19.5 -17.8 49.2 -20.4 66 -1.6 9.9 -1.3 35.2 0.5 46.1 2.8 16.8 11.7 39.5 21.6 55.4 14.3 22.8 37.2 43.8 60.3 55.3 28.6 14.2 65.4 19.6 92 13.3z"/>
 </g>
 <g fill="#040f37">
  <path d="M320.9 979.4 c-27 -4.8 -48 -16.2 -68.4 -36.8 -16 -16.2 -23.5 -26.9 -35.4 -51.1 -20.1 -40.5 -29 -72 -44.5 -157 -15.4 -84.3 -21.6 -108.1 -36.1 -139.4 -6.4 -13.8 -8.9 -18.3 -25.9 -46.6 -31.9 -53.1 -50.8 -109.9 -59.2 -178.5 -2.3 -18.4 -2.6 -73.1 -0.6 -91.5 4.8 -43.3 17.3 -84.8 34.8 -115.6 35.7 -63.1 91.1 -102.2 162.3 -114.5 19.6 -3.4 59.4 -4.5 77.1 -2.1 39.1 5.2 72.1 17.4 121.5 44.7 56.3 31.2 133.9 77.1 137.4 81.4 1.1 1.3 -0.5 4 -9.5 16.8 -5.9 8.4 -14.3 20.4 -18.6 26.7 -4.3 6.3 -8.7 12.4 -9.7 13.7 l-1.9 2.4 -19.3 -12.8 c-34.3 -22.6 -51.9 -33.1 -95.9 -57.2 -48.7 -26.6 -67.6 -34.8 -96.5 -41.6 l-12 -2.9 -25 0.1 -25 0 -13 2.7 c-61.3 13 -101.1 49.6 -121.5 111.4 -9.9 30.2 -12.5 49.3 -12.5 92.8 l0 32 2.3 15.5 c6.2 41.8 17.6 79.3 34.1 112.6 3.9 7.6 13.1 24.3 20.6 36.9 21.3 36 31.2 57.5 41 89 6.5 20.8 12.5 46.7 18 77.2 15.2 85.5 17.4 96.2 25 122.9 17 59.2 42.6 94.4 72.6 99.4 9 1.5 15.4 0.8 22.7 -2.5 17.2 -7.9 28.3 -25.2 41.2 -64.3 7.9 -24.1 11.8 -33 19.6 -45 16.9 -25.9 43.4 -42.8 75.7 -48.3 10.6 -1.8 35.3 -0.7 45.2 2.1 18.5 5 35.4 14.8 49 28.5 15.1 15 23.5 30.5 34.3 63 3.9 11.6 8.4 24.1 10.1 27.9 9.3 20.5 24.7 35.4 39.4 38.1 2 0.4 3.7 1.2 3.7 1.9 -0.1 1.6 -18.8 66.7 -19.4 67.4 -0.9 0.8 -12.3 -2.5 -21.3 -6.2 -20.7 -8.5 -40.8 -26.4 -55.8 -49.5 -8.1 -12.5 -17 -32.6 -24.4 -54.7 -8 -24.2 -10.5 -29.8 -16.7 -36.4 -5.7 -6.1 -12.4 -9.7 -21.2 -11.2 -13 -2.2 -24.6 1.5 -34 10.9 -6.5 6.5 -10.5 14.8 -16.1 33.6 -6.2 20.7 -10.5 31.9 -17.2 44.7 -20.4 39.1 -49.5 62.5 -86.2 69.5 -9.9 1.9 -34.3 1.9 -44.8 -0.1z"/>
 </g>
</svg>