<?xml version="1.0" encoding="UTF-8" standalone="no"?>
<!-- Created with Inkscape (http://www.inkscape.org/) -->

<svg
   version="1.1"
   id="svg1"
   width="350"
   height="350"
   viewBox="0 0 350 350"
   xmlns="http://www.w3.org/2000/svg"
   xmlns:svg="http://www.w3.org/2000/svg">
  <defs
     id="defs1" />
  <g
     id="g1">
    <g
       id="g2"
       transform="scale(0.97730897,0.97744003)">
      <path
         style="fill:#333333;fill-opacity:1;stroke-width:1.31877"
         d="M 162.82798,357.34963 C 114.35238,352.74932 71.788568,329.9513 39.389157,291.23336 23.290524,271.99517 8.0425499,239.15717 2.4415298,211.66302 -1.0431393,194.55757 -0.75406694,161.02059 3.0293804,143.46309 10.737458,107.6929 26.091803,79.111862 51.265758,53.674433 73.279814,31.429974 95.860247,17.377967 124.58445,8.0475406 142.47427,2.2364245 157.67253,-0.00485321 179.15532,7.8886071e-6 201.36607,0.00501932 216.36935,2.3521729 235.35882,8.7925829 c 16.40444,5.5636761 28.75504,11.5792471 42.0031,20.4583161 12.63863,8.470616 11.80686,7.787379 26.137,21.469498 20.95457,20.006988 35.50145,43.055902 45.24582,71.690083 12.65339,37.18246 12.50518,76.08377 -0.43351,113.78015 -9.36114,27.27333 -21.87478,47.5499 -42.13337,68.27113 -36.74675,37.58593 -91.54673,57.80397 -143.34988,52.88787 z m 41.76671,-23.03246 c 32.72165,-5.30728 61.53972,-20.01573 85.0193,-43.393 33.75351,-33.60641 50.59666,-79.15386 46.29802,-125.1997 -4.27422,-45.78423 -22.62613,-80.021396 -59.67217,-111.323912 -14.4089,-12.17498 -41.04594,-24.86216 -62.0495,-29.554079 -19.86679,-4.437976 -51.35031,-4.412886 -71.1435,0.0567 C 106.13097,33.2393 72.118,56.396858 49.298467,88.731285 37.036999,106.10533 30.006609,122.30631 24.933693,144.878 c -3.14354,13.98703 -3.402459,17.28642 -2.912346,37.11205 0.621099,25.12415 3.466264,39.43764 11.607264,58.394 15.182273,35.352 45.072461,66.2185 79.162919,81.74864 27.90786,12.71362 61.25383,17.13943 91.80316,12.18448 z m -35.83237,-52.57938 c -4.2539,-2.08922 -7.99759,-5.26936 -10.54994,-8.9618 -3.95623,-5.72341 -3.95623,-5.72341 -4.35358,-48.25468 -0.22044,-23.59579 -0.91863,-42.53126 -1.56822,-42.53126 -0.64398,0 -3.91462,2.3748 -7.2681,5.27734 -5.12259,4.43375 -6.51753,5.0524 -8.72653,3.87012 -3.94908,-2.11357 -4.29074,-4.47129 -1.65394,-11.41354 4.02491,-10.59688 8.02778,-16.71682 16.42964,-25.11905 16.32999,-16.33068 31.09854,-18.85785 44.44345,-7.60506 7.91464,6.67383 8.1939,8.52354 8.1939,54.27382 0,45.7304 -0.16236,44.9826 8.03985,37.0289 5.76335,-5.58874 8.51197,-6.60163 11.04375,-4.06974 3.09488,3.095 2.44905,7.20249 -2.7741,17.64341 -5.74712,11.48829 -18.13871,24.58844 -27.2446,28.80245 -9.90228,4.58256 -16.26585,4.86324 -24.01158,1.05909 z M 165.1543,125.28735 c -11.00819,-3.31476 -19.46997,-14.48491 -19.46997,-25.701728 0,-11.497461 10.8756,-24.397636 22.07905,-26.189211 11.25869,-1.80042 24.57697,5.645291 29.02049,16.224195 8.48454,20.199464 -10.79539,41.940274 -31.62957,35.666744 z"
         id="path2" />
    </g>
  </g>
</svg>
