<svg id="svg" version="1.1" viewBox="0 0 300 123.79461490294301" width="300" height="123.79461490294301" xmlns="http://www.w3.org/2000/svg">
  <defs>
    <clipPath id="clip-1">
      <rect x="0" y="0" transform="scale(0.14648,0.1465)" width="2048" height="845" fill="none"/>
    </clipPath>
  </defs>
  <g clip-path="url(#clip-1)" fill="none" fill-rule="nonzero" stroke="none" stroke-width="1" stroke-linecap="butt" stroke-linejoin="miter" stroke-miterlimit="10" stroke-dasharray="" stroke-dashoffset="0" font-family="none" font-weight="none" font-size="none" text-anchor="none" style="mix-blend-mode: normal">
    <path d="M189.88037,53.53597c0.49951,-0.06739 1.21582,-0.05567 1.74316,-0.06622c10.48828,-0.21199 19.78711,4.51887 24.02197,14.42698c5.1958,-9.89698 13.07373,-14.06937 24.06006,-14.42581c12.14209,-0.39395 22.65527,6.195 25.57031,18.36848c1.21875,5.09521 0.79541,10.09944 0.86426,15.29003c0.0249,6.53709 -0.03662,13.08121 -0.02783,19.61727c0.00732,5.6005 3.09521,7.48789 8.29688,7.38124c0.03516,2.65638 0.00146,5.28859 0.05273,7.96036c-0.7251,0.00469 -1.4502,0.00469 -2.17529,-0.00029c-7.24365,-0.05084 -12.70166,-2.57874 -14.14453,-10.33766c-0.44971,-2.41216 -0.3208,-6.11809 -0.31934,-8.64716l0.01611,-14.81433c0.00439,-4.32754 0.28125,-8.69331 -0.6416,-12.99052c-3.25488,-15.17737 -23.81689,-18.0661 -33.96387,-8.16253c-6.25635,6.10622 -5.43896,13.98835 -5.41846,22.01098l0.00439,32.93948l-8.19873,0.00762c-0.30029,-9.92818 0.13623,-20.34275 -0.04102,-30.32338c-0.11426,-5.37474 0.37793,-10.77965 -0.60059,-16.08861c-2.83301,-15.36972 -24.08643,-18.62032 -34.14111,-8.56439c-2.48877,2.52028 -4.20557,5.69968 -4.94678,9.16329c-0.66211,2.98279 -0.55957,6.04191 -0.55957,9.07759l0.00732,8.58871l0.00586,28.13961l-8.2002,0.00879c-0.19482,-8.89446 -0.03516,-18.36453 -0.03516,-27.32623l0.02783,-39.73016l8.21045,0.01406l-0.02197,9.8479c0.53467,-0.82393 1.11768,-1.6146 1.74756,-2.36792c4.97461,-5.95665 11.34814,-8.31402 18.80713,-8.99716z" fill="currentColor"/>
    <path d="M0.1616,27.70128l8.21581,-0.01743l-0.02297,38.98871c8.59863,-15.15246 33.21401,-17.59495 45.58491,-5.84296c8.10454,7.699 8.32939,17.30151 8.05518,27.6377c-0.15791,5.94624 0.12686,12.1225 -0.01406,18.08881c0.0457,5.95621 3.01025,7.68801 8.38784,7.57052c-0.0063,2.57537 -0.06958,5.414 0.0668,7.96637c-4.78623,0.00908 -9.46597,0.09889 -13.13247,-3.51577c-4.16118,-4.10222 -3.53291,-10.35948 -3.53071,-15.66317l0.00645,-11.86275c0.02329,-8.84641 0.64146,-17.4943 -6.59561,-24.10552c-8.81147,-8.04958 -25.21904,-7.23986 -33.25261,1.57285c-5.64126,6.18841 -5.57161,12.66075 -5.56614,20.37894l0.00278,10.96981l-0.00012,13.87027c-0.00117,2.66752 -0.07011,5.7133 0.05782,8.3565c-2.73775,-0.02886 -5.52845,-0.00073 -8.27046,0c-0.18935,-11.43892 -0.00604,-23.42971 -0.00633,-34.90627z" fill="currentColor"/>
    <path d="M92.08037,2.5559c0.67031,-0.15531 2.76519,0.12204 3.47329,0.29374c8.68608,2.10631 15.99814,10.72494 20.52979,17.91695c4.55347,-7.53937 12.88228,-16.96455 22.08896,-18.16189c7.63594,-0.99307 12.43257,5.69934 12.84419,12.7076c0.81445,13.88756 -6.05625,28.55158 -14.66104,39.10943c-2.09868,-1.49535 -4.01455,-2.57141 -6.32124,-3.6863c7.96069,-9.69641 15.37808,-23.78058 13.44419,-36.79621c-0.39185,-2.63779 -2.53037,-4.94686 -5.429,-4.00337c-7.47305,2.43245 -13.06948,10.04856 -16.98018,16.50288l-0.97236,1.65577c2.92456,6.13509 5.59995,14.0682 5.76108,20.93345c-2.77061,-0.85162 -4.48608,-1.28072 -7.33638,-1.78088c-0.42612,-3.45365 -1.25786,-6.84518 -2.47822,-10.10398c-0.95508,3.08285 -2.00068,6.38267 -2.28457,9.61012c-2.70981,-0.09464 -4.58481,-0.00791 -7.3043,0.19338c0.13184,-5.51919 3.35449,-13.89313 5.57856,-18.85326c-0.8792,-1.57593 -1.81465,-3.12006 -2.8043,-4.62904c-3.52954,-5.32112 -9.10122,-11.92318 -15.45732,-13.60604c-4.92363,-1.16535 -5.64639,5.55338 -5.4958,8.77512c0.51152,10.94755 5.4876,20.81405 11.72578,29.55014c-2.47925,0.63245 -4.7436,1.51615 -7.07754,2.54504c-6.18647,-8.78576 -10.83604,-19.48132 -11.80723,-30.26903c-0.70356,-7.81525 1.725,-17.23782 10.96362,-17.90362z" fill="currentColor"/>
    <path d="M109.36919,53.53538c2.68711,-0.46163 9.1043,0.46441 11.82217,1.16118c8.73369,2.20911 16.23193,7.79818 20.84487,15.53703c4.97988,8.42463 6.09023,18.34915 3.66489,27.7694l-8.82583,0.0104c2.92515,-9.2698 1.8605,-19.43839 -4.56694,-27.08978c-4.54482,-5.44857 -11.0918,-8.83718 -18.16406,-9.40165c-13.74419,-1.19546 -26.25732,7.36615 -28.98896,21.13094c-0.32959,1.66105 -0.46816,3.26129 -0.61201,4.94329c-0.3832,17.81265 13.59785,30.01411 31.11636,27.80046c-0.01113,2.69667 -0.00732,5.39349 0.01128,8.09016c-10.32363,0.58074 -19.09878,-1.11181 -27.26763,-7.88447c-20.03906,-16.61426 -14.95327,-50.86245 9.89663,-59.78313c3.8688,-1.3887 6.97939,-1.90453 11.06924,-2.28383z" fill="currentColor"/>
    <path d="M284.61182,55.02781c2.63086,0.07589 5.56494,0.02022 8.21777,0.02359c-0.14795,8.4718 -0.02344,17.24759 -0.02344,25.75675l0.01904,41.27781l-8.20898,-0.00366c-0.13037,-7.57184 -0.01172,-15.50055 -0.01172,-23.09597z" fill="currentColor"/>
    <path d="M288.2168,29.47015c3.22412,-0.2952 6.07471,2.08634 6.35742,5.31203c0.28271,3.22569 -2.10791,6.06725 -5.33496,6.33843c-3.20947,0.26971 -6.03223,-2.10715 -6.31348,-5.31584c-0.28271,-3.20884 2.08447,-6.04103 5.29102,-6.33462z" fill="currentColor"/>
    <path d="M131.34258,108.90703c2.96455,-0.51466 5.78203,1.48026 6.28184,4.44752c0.4998,2.96741 -1.50864,5.77542 -4.47817,6.26049c-2.94858,0.48185 -5.73237,-1.50985 -6.22866,-4.45646c-0.49629,-2.9466 1.48125,-5.74055 4.425,-6.25155z" fill="currentColor"/>
  </g>
</svg>