<?xml version="1.0" encoding="UTF-8" standalone="no"?>
<!-- Created with Inkscape (http://www.inkscape.org/) -->

<svg
   version="1.1"
   id="svg1"
   width="818.79126"
   height="789.52594"
   viewBox="0 0 818.79126 789.52594"
   xml:space="preserve"
   xmlns="http://www.w3.org/2000/svg"
   xmlns:svg="http://www.w3.org/2000/svg"><defs
     id="defs1" /><g
     id="g67"
     style="display:inline;fill:#ffffff"
     transform="translate(-14.970617,-95.020072)"><path
       style="display:inline;mix-blend-mode:normal;fill:#ffffff;fill-opacity:1;stroke:none;stroke-width:3.33333"
       d="M 306.86621,847.7689 C 286.92553,825.1151 268.78704,785.40117 255.36141,735 242.11716,685.27973 214.59817,584.24127 197.71156,523.33333 184.74161,476.55231 179.86373,419.501 186.02658,386.66667 c 8.72293,-46.47385 33.18109,-88.73559 64.84326,-112.04396 40.53661,-29.84135 84.69266,-34.66814 167.46349,-18.30578 L 465,265.54212 441.00865,271.1044 c -13.19524,3.05924 -26.69524,5.60788 -30,5.66363 -5.69532,0.0961 -5.68704,0.28828 0.15869,3.68589 10.55491,6.13462 45.51133,-0.0443 90.85961,-16.06051 38.31865,-13.53344 46.94948,-15.35752 79.68658,-16.84136 36.562,-1.65721 36.76144,-1.62463 48.31727,7.89194 37.32503,30.73827 50.26093,48.96058 65.89613,92.82542 6.9291,19.43973 8.60264,31.32516 9.89414,70.26776 1.8574,56.00719 -1.15207,77.76423 -20.9256,151.28192 C 676.7326,600.1686 665.61083,646 660.18043,671.66667 c -17.11006,80.87063 -33.6496,129.77146 -52.05273,153.8992 -11.56377,15.1609 -29.18807,27.9569 -42.70453,31.00536 -14.61387,3.29597 -15.21417,2.00114 -28.76554,-62.04586 -19.16446,-90.5759 -38.40889,-115.5747 -84.27373,-109.47297 -20.59875,2.7404 -35.17547,10.90447 -46.88865,26.26127 -13.36078,17.51686 -18.22394,30.6991 -27.06654,73.3673 -10.67064,51.48913 -22.78588,70.61676 -48.76949,76.9977 -7.38437,1.8134 -10.77344,-0.25484 -22.79301,-13.90977 z M 636.8322,571.58107 c 5.40897,-2.79708 9.83447,-5.6744 9.83447,-6.39405 0,-0.71964 0.8517,-3.52794 1.89266,-6.24066 5.46177,-14.23316 -36.9909,-27.8803 -58.72443,-18.87798 -11.48153,4.75581 -17.43757,13.61386 -14.4277,21.45745 5.38697,14.03817 42.10073,20.0482 61.425,10.05524 z m -320.16553,-7.41958 c 24.66267,-12.32039 13.32084,-30.54736 -20.67233,-33.22164 -18.03742,-1.41903 -22.28541,-0.62849 -30.16101,5.61285 -12.21407,9.67954 -11.65373,18.69556 1.66667,26.81717 13.41183,8.17735 33.7273,8.50444 49.16667,0.79162 z m 177.22662,-17.03476 c 9.38876,-10.50785 12.67359,-23.7934 5.88287,-23.7934 -1.95645,0 -8.50856,5.25 -14.56026,11.66667 -8.20785,8.70286 -13.76692,11.66667 -21.88257,11.66667 -8.11565,0 -13.67472,-2.96381 -21.88257,-11.66667 -16.53557,-17.53282 -23.4238,-14.93033 -13.13646,4.96319 8.24609,15.94619 17.67415,20.67862 38.07899,19.11379 15.17184,-1.16352 19.56959,-3.07458 27.5,-11.95025 z M 337.89315,503.46145 c 10.75632,-26.88269 32.47195,-29.93443 48.03733,-6.75078 C 395.801,511.41219 400,512.92479 400,501.77891 c 0,-27.36065 -33.08168,-47.73455 -56.85184,-35.01314 -4.80455,2.57132 -8.53881,2.03991 -14.88489,-2.1182 -11.01902,-7.21994 -14.02586,-3.85157 -6.63332,7.43088 6.2736,9.57472 6.93724,9.40387 -9.96328,2.56492 -7.49175,-3.0316 -6.02239,4.13058 2.5,12.18586 l 7.5,7.08894 -9.01294,-1.12575 c -12.52564,-1.5645 -12.40287,4.56844 0.20637,10.30914 5.76028,2.62252 10.47323,6.74752 10.47323,9.16666 0,9.47753 9.55684,3.6969 14.55982,-8.80677 z m 267.84478,6.78702 c 2.2045,-3.53001 7.425,-6.90501 11.6011,-7.5 4.17607,-0.59499 8.09007,-3.69068 8.69777,-6.87931 0.931,-4.88515 -0.63733,-5.46638 -9.96597,-3.69342 L 605,494.27983 l 9.16667,-7.38185 c 15.65036,-12.60312 11.4444,-16.44704 -9.16667,-8.37761 -6.40923,2.50928 -6.4414,2.35285 -0.83333,-4.05095 5.5674,-6.35736 7.83763,-14.46942 4.0494,-14.46942 -0.98117,0 -5.3806,2.35661 -9.7765,5.23691 -6.08697,3.98834 -9.583,4.3857 -14.66357,1.66666 -17.58717,-9.41237 -41.30423,-1.48307 -50.71003,16.95384 -11.93974,23.40385 -5.61477,36.49314 7.16643,14.83063 3.6708,-6.22158 11.11137,-13.14989 16.53457,-15.39625 12.7535,-5.28267 23.68126,1.31854 33.2579,20.09029 7.64616,14.98769 9.9991,16.01589 15.71306,6.86639 z M 222.66853,399.71468 c 1.06662,-9.17575 -6.72527,-18.38782 -12.52251,-14.80492 -1.91365,1.18269 -3.47935,7.41615 -3.47935,13.85213 0,10.22857 0.94422,11.56768 7.5,10.63661 5.23231,-0.7431 7.80292,-3.67108 8.50186,-9.68382 z m 14.26168,-43.79752 c 4.43838,-9.5789 17.44479,-27.3863 28.90312,-39.572 22.30157,-23.71724 25.95311,-33.01183 12.9693,-33.01183 -21.88973,0 -73.77008,70.53899 -63.77495,86.71145 5.1801,8.38159 14.15531,2.59237 21.90253,-14.12762 z m 88.43338,-74.18759 c 8.31541,-3.4744 11.45668,-6.68395 10.60286,-10.83333 -0.96577,-4.69342 -4.19404,-5.75599 -15.825,-5.20872 -15.96585,0.75123 -25.53275,7.47488 -22.36855,15.72068 2.52843,6.58896 12.31735,6.70298 27.59069,0.32137 z"
       id="path58" /><path
       style="display:inline;mix-blend-mode:normal;fill:#ffffff;fill-opacity:1;stroke:none;stroke-width:3.33333"
       d="m 180.66667,722.66667 c -5.66931,-5.66931 -4.95618,-34.90062 1.37174,-56.22833 5.75962,-19.41229 19.30303,-48.14717 24.08618,-51.10332 2.99743,-1.85251 16.56336,44.92037 19.48901,67.1946 1.47761,11.24973 0.14655,14.02021 -13.59841,28.30371 -15.34453,15.94575 -23.9774,19.20446 -31.34852,11.83334 z"
       id="path59" /><path
       style="display:inline;fill:#ffffff;fill-opacity:1;stroke:none;stroke-width:3.33333"
       d=""
       id="path61" /><path
       style="display:inline;fill:#ffffff;fill-opacity:1;stroke:none;stroke-width:3.33333"
       d=""
       id="path62" /><path
       style="display:inline;fill:#ffffff;fill-opacity:1;stroke:none;stroke-width:3.33333"
       d=""
       id="path63" /><path
       style="display:inline;fill:#ffffff;fill-opacity:1;stroke:none;stroke-width:3.33333"
       d=""
       id="path64" /><path
       style="display:inline;fill:#ffffff;fill-opacity:1;stroke:none;stroke-width:3.33333"
       d=""
       id="path65" /></g><g
     id="g1"
     transform="matrix(2.7715045,0,0,2.7715045,-322.97004,-480.9196)"><path
       style="fill:#c7e3ec"
       d="m 229.05039,452.87352 c -2.0625,-1.11976 -3.75,-2.27673 -3.75,-2.57105 0,-0.29432 0.4588,-0.25158 1.01955,0.095 1.65055,1.0201 7.89175,-1.4953 11.43995,-4.61066 4.49345,-3.94531 7.10167,-10.53444 10.06492,-25.42695 1.38185,-6.94483 3.11464,-14.05515 3.85064,-15.80072 2.22017,-5.26553 9.39592,-13.51627 13.63699,-15.6799 4.92234,-2.51119 5.05638,-1.87085 0.45424,2.16989 -6.16957,5.41695 -8.58822,11.99195 -13.43852,36.53197 -3.2804,16.59716 -4.71608,20.73894 -8.37819,24.17011 -3.51811,3.29625 -9.99655,3.78424 -14.89958,1.12232 z m 84.60911,0.0892 c -3.57536,-2.18013 -4.83456,-3.73027 -3.06512,-3.77332 4.18497,-0.10181 10.15945,-2.90615 14.49403,-6.80332 9.64006,-8.66724 16.10657,-25.04214 23.17176,-58.67696 2.27322,-10.82196 6.3657,-27.84262 9.0944,-37.8237 6.80057,-24.87515 7.94582,-32.2938 7.94582,-51.47104 0,-12.84713 -0.40812,-17.80481 -1.96773,-23.90279 -4.11416,-16.08622 -12.71411,-29.97569 -22.95372,-37.07175 -4.47343,-3.10009 -5.3531,-5.04976 -1.82855,-4.05272 6.33146,1.79108 17.50345,8.34853 22.60744,13.26955 3.10341,2.99215 4.96756,5.11074 4.14256,4.70797 -0.825,-0.40277 -0.28814,0.44406 1.19302,1.88186 10.24391,9.94399 15.49791,39.92666 11.2602,64.25792 -1.68283,9.66214 -2.2598,11.83578 -9.65695,36.38099 -2.73492,9.075 -5.16801,17.51967 -5.40687,18.76593 -1.69139,8.82489 -8.98199,37.41671 -11.53419,45.23407 -6.35317,19.45961 -14.89537,33.00903 -24.27652,38.50675 -5.09443,2.98553 -8.98379,3.1534 -13.21958,0.57056 z m -158.09008,-54.7703 c 0.97297,-0.25355 2.32297,-0.23687 3,0.0371 0.67704,0.27392 -0.11903,0.48137 -1.76903,0.46099 -1.65,-0.0204 -2.20393,-0.2445 -1.23097,-0.49804 z m 110.73097,-1.68457 c 0,-0.20765 0.7875,-0.99515 1.75,-1.75 1.58606,-1.24387 1.62143,-1.2085 0.37756,0.37756 -1.30637,1.66574 -2.12756,2.19547 -2.12756,1.37244 z m -79,-1 c 0,-0.20765 0.7875,-0.99515 1.75,-1.75 1.58606,-1.24387 1.62143,-1.2085 0.37756,0.37756 -1.30637,1.66574 -2.12756,2.19547 -2.12756,1.37244 z m 102.87245,-4.37244 c -1.24387,-1.58606 -1.2085,-1.62143 0.37755,-0.37756 0.9625,0.75485 1.75,1.54235 1.75,1.75 0,0.82303 -0.82118,0.2933 -2.12755,-1.37244 z m -123.17012,-1.91667 c 0.28141,-0.73333 0.64036,-1.33333 0.79767,-1.33333 0.15731,0 0.51627,0.6 0.79767,1.33333 0.28141,0.73333 -0.0775,1.33333 -0.79767,1.33333 -0.72012,0 -1.07907,-0.6 -0.79767,-1.33333 z m 25.37662,-1.91667 c 0.048,-1.16494 0.28494,-1.4019 0.60417,-0.60416 0.28887,0.72187 0.25334,1.58437 -0.0789,1.91666 -0.33229,0.33229 -0.56864,-0.25833 -0.52522,-1.3125 z m -24.00866,-1.10765 c 0.0387,-0.44496 0.45703,-1.70901 0.92971,-2.80901 0.82859,-1.92824 0.86195,-1.92139 0.92972,0.19098 0.0386,1.20504 -0.37972,2.4691 -0.92972,2.80902 -0.55,0.33991 -0.96837,0.25397 -0.92971,-0.19099 z m 2.05089,-6.30901 c -0.017,-0.825 0.58718,-2.85 1.34271,-4.5 1.7684,-3.86206 1.79436,-2.0657 0.0361,2.5 -0.74131,1.925 -1.36178,2.825 -1.37882,2 z m -22.50261,-4.54061 c 0.91556,-1.39734 2.61344,-3.02878 3.77305,-3.62543 1.41528,-0.7282 0.9755,0.10699 -1.33778,2.54061 -4.06237,4.27368 -4.71526,4.56451 -2.43527,1.08482 z m 25.41206,-3.95939 c 0,-0.55 0.43622,-1.675 0.96937,-2.5 0.53316,-0.825 0.96938,-1.05 0.96938,-0.5 0,0.55 -0.43622,1.675 -0.96938,2.5 -0.53315,0.825 -0.96937,1.05 -0.96937,0.5 z m 2.96937,-8.5 c 0,-0.55 0.47656,-1 1.05902,-1 0.58246,0 0.7809,0.45 0.44098,1 -0.33992,0.55 -0.81647,1 -1.05901,1 -0.24255,0 -0.44099,-0.45 -0.44099,-1 z m -3.5,-2 c 0.33992,-0.55 0.81648,-1 1.05902,-1 0.24254,0 0.44098,0.45 0.44098,1 0,0.55 -0.47656,1 -1.05901,1 -0.58246,0 -0.78091,-0.45 -0.44099,-1 z m 2.5,-0.45516 c 0,-0.77161 2.97626,-1.39227 3.3987,-0.70876 0.25451,0.41181 -0.40608,0.81419 -1.46798,0.89418 -1.06189,0.08 -1.93072,-0.003 -1.93072,-0.18542 z m 6,-12.04484 c 0,-0.825 0.17686,-1.5 0.39301,-1.5 0.21616,0 0.65204,0.675 0.96862,1.5 0.31658,0.825 0.13973,1.5 -0.39301,1.5 -0.53274,0 -0.96862,-0.675 -0.96862,-1.5 z m 220,-1 c 1.29175,-1.375 2.57363,-2.5 2.84863,-2.5 0.275,0 -0.55688,1.125 -1.84863,2.5 -1.29174,1.375 -2.57363,2.5 -2.84863,2.5 -0.275,0 0.55689,-1.125 1.84863,-2.5 z m -276.05383,-8.25 c -3.44617,-3.75 -3.44617,-3.75 0.30383,-0.30384 3.49042,3.20762 4.20979,4.05384 3.44617,4.05384 -0.16711,0 -1.85461,-1.6875 -3.75,-3.75 z m -8.71417,-20.25 c 0,-1.925 0.2058,-2.7125 0.45733,-1.75 0.25153,0.9625 0.25153,2.5375 0,3.5 -0.25153,0.9625 -0.45733,0.175 -0.45733,-1.75 z m 54.69232,-0.63145 c -2.31212,-2.50966 -2.32108,-2.56851 -0.19363,-1.27151 1.22688,0.74796 2.45026,1.93211 2.71862,2.63144 0.71602,1.86593 0.18193,1.57827 -2.52499,-1.35993 z m 48.53456,0.56491 c -0.36253,-0.58659 -0.44468,-1.28099 -0.18255,-1.54312 0.26213,-0.26213 0.74306,0.21781 1.06875,1.06653 0.67618,1.76211 0.0999,2.07206 -0.8862,0.47659 z m -53.45888,-3.93346 c -0.90129,-0.58246 -1.02463,-0.97549 -0.30901,-0.98469 0.65504,-0.008 1.46909,0.43469 1.80901,0.98469 0.76731,1.24152 0.42113,1.24152 -1.5,0 z m 55.87245,-1.75 c -1.24387,-1.58606 -1.2085,-1.62143 0.37755,-0.37756 0.9625,0.75485 1.75,1.54235 1.75,1.75 0,0.82303 -0.82118,0.2933 -2.12755,-1.37244 z m 90.94005,-0.93312 c 0.72188,-0.28887 1.58438,-0.25334 1.91667,0.0789 0.33229,0.33229 -0.25833,0.56864 -1.3125,0.52522 -1.16494,-0.048 -1.4019,-0.28494 -0.60417,-0.60417 z m -188.09028,-4.36728 c 1.22223,-1.28617 2.41565,-2.13849 2.65206,-1.89405 0.23641,0.24445 -0.76359,1.29677 -2.22222,2.33849 -2.65206,1.89405 -2.65206,1.89405 -0.42984,-0.44444 z m 114.02778,-1.61188 c 0.6875,-0.27742 1.8125,-0.27742 2.5,0 0.6875,0.27741 0.125,0.50438 -1.25,0.50438 -1.375,0 -1.9375,-0.22697 -1.25,-0.50438 z m -105.25,-2.33772 c 0.33992,-0.55 1.94148,-1 3.55902,-1 1.61754,0 2.94098,0.45 2.94098,1 0,0.55 -1.60156,1 -3.55901,1 -2.11804,0 -3.30879,-0.40489 -2.94099,-1 z m 249.87407,-10.5 c 0.002,-6.05 0.16696,-8.39607 0.36601,-5.21349 0.19905,3.18258 0.1972,8.13258 -0.004,11 -0.20131,2.86742 -0.36417,0.26349 -0.36191,-5.78651 z m -247.56157,5.81688 c 0.72188,-0.28887 1.58438,-0.25334 1.91667,0.0789 0.33229,0.33229 -0.25833,0.56864 -1.3125,0.52522 -1.16494,-0.048 -1.4019,-0.28494 -0.60417,-0.60417 z m 36.26645,-16.90022 c 0.048,-1.16494 0.28494,-1.4019 0.60417,-0.60416 0.28887,0.72187 0.25334,1.58437 -0.0789,1.91666 -0.33229,0.33229 -0.56864,-0.25833 -0.52522,-1.3125 z m 60.17105,-55.10599 c 0.9625,-0.25153 2.5375,-0.25153 3.5,0 0.9625,0.25153 0.175,0.45732 -1.75,0.45732 -1.925,0 -2.7125,-0.20579 -1.75,-0.45732 z m 89.5,0.027 c 0.6875,-0.27742 1.8125,-0.27742 2.5,0 0.6875,0.27741 0.125,0.50438 -1.25,0.50438 -1.375,0 -1.9375,-0.22697 -1.25,-0.50438 z m -82.9375,-4.02084 c 0.72188,-0.28887 1.58438,-0.25334 1.91667,0.0789 0.33229,0.33229 -0.25833,0.56864 -1.3125,0.52522 -1.16494,-0.048 -1.4019,-0.28494 -0.60417,-0.60417 z m 79.4375,-0.0453 c 2.0625,-0.21575 5.4375,-0.21575 7.5,0 2.0625,0.21574 0.375,0.39226 -3.75,0.39226 -4.125,0 -5.8125,-0.17652 -3.75,-0.39226 z m -53.5,-5.93381 c 0.6875,-0.27742 1.8125,-0.27742 2.5,0 0.6875,0.27741 0.125,0.50438 -1.25,0.50438 -1.375,0 -1.9375,-0.22697 -1.25,-0.50438 z m 17.5,-0.027 c 0.9625,-0.25153 2.5375,-0.25153 3.5,0 0.9625,0.25153 0.175,0.45732 -1.75,0.45732 -1.925,0 -2.7125,-0.20579 -1.75,-0.45732 z m 9.75,-28.68823 c 0,-0.20765 0.7875,-0.99515 1.75,-1.75 1.58606,-1.24387 1.62143,-1.2085 0.37756,0.37756 -1.30637,1.66574 -2.12756,2.19547 -2.12756,1.37244 z"
       id="path8" /><path
       style="fill:#aedeef"
       d="m 147.27705,391.01588 c -4.95637,-4.95637 -3.37269,-10.89184 4.88772,-18.31866 4.75636,-4.27637 15.13358,-9.52976 22.42119,-11.35055 2.78558,-0.69597 2.78558,-0.69597 0.14532,6.17137 -1.45214,3.77703 -3.73445,10.35249 -5.07179,14.61213 -3.15497,10.049 -4.63343,11.38415 -12.90253,11.65185 -6.01432,0.1947 -6.72703,-0.0133 -9.47991,-2.76614 z m 15.52334,-38.17758 c -4.95,-0.96101 -10.35,-2.29647 -12,-2.9677 -13.61768,-5.53974 -22.23701,-11.58756 -26.61864,-18.6772 -1.7272,-2.79466 -2.29418,-5.35914 -2.45456,-11.10219 -0.1879,-6.72869 0.0417,-7.74891 2.31859,-10.30438 3.44709,-3.86877 8.23295,-5.24329 16.25727,-4.66915 5.448,0.3898 8.77935,1.46467 17.60305,5.67966 11.26565,5.38148 14.67184,7.82136 16.87555,12.08804 1.10068,2.13106 5.45198,16.46224 5.92069,19.5 0.0849,0.55 0.36664,1.45 0.62617,2 0.25954,0.55 0.47188,3.025 0.47188,5.5 0,4.5 0,4.5 -5,4.60011 -2.75,0.0551 -9.05,-0.68618 -14,-1.64719 z"
       id="path7" /><path
       style="fill:#e8aeae"
       d="m 324.32096,345.82938 c -6.3968,-2.70715 -7.6475,-6.51765 -3.27057,-9.96444 2.3877,-1.88029 3.75762,-2.12004 10.39809,-1.81979 5.83186,0.26368 8.1577,0.80698 9.79402,2.28784 4.61148,4.17333 -0.0175,9.36829 -9.00094,10.10157 -2.99264,0.24427 -6.55691,-0.0281 -7.9206,-0.60518 z m -116.80415,-3.95347 c -4.84059,-2.95128 -5.11519,-4.79829 -1.22952,-8.27013 3.16021,-2.82365 3.65624,-2.94312 10.25839,-2.47074 11.43339,0.81805 15.69552,5.85191 8.85683,10.4605 -4.49977,3.0324 -13.14954,3.16799 -17.8857,0.28037 z m -2.21642,-89.49053 c 1.86579,-1.925 3.61734,-3.5 3.89234,-3.5 0.275,0 -1.02655,1.575 -2.89234,3.5 -1.86578,1.925 -3.61733,3.5 -3.89233,3.5 -0.275,0 1.02655,-1.575 2.89233,-3.5 z"
       id="path6" /><path
       style="fill:#f0c664"
       d="m 185.68952,285.45705 c -1.03296,-2.69186 0.48965,-6.74167 2.3966,-6.37442 2.45209,0.47223 2.41815,7.1398 -0.0387,7.61296 -0.96417,0.18568 -2.0252,-0.37167 -2.35785,-1.23854 z m 3.64127,-13.03505 c -4.46927,-5.38513 15.89776,-32.69685 22.49499,-30.16526 2.46596,0.94628 1.74916,2.1976 -5.4076,9.44006 -4.40542,4.45817 -8.0511,9.33898 -10.13019,13.5622 -3.86674,7.85448 -5.22378,9.25165 -6.9572,7.163 z m 29.52537,-31.44638 c -1.14347,-1.85018 0.74669,-4.07992 4.29373,-5.06513 6.4366,-1.78782 8.85708,-1.03001 7.55425,2.36511 -0.9623,2.50773 -10.60825,4.70593 -11.84798,2.70002 z m 45.74266,-27.77095 c -1.87132,-0.25647 -3.40972,-1.14109 -3.70251,-2.12904 -1.23837,-4.1785 -3.73593,-18.27021 -3.41094,-19.24517 0.19835,-0.59506 2.37537,0.5195 4.83783,2.47679 2.46246,1.95729 4.93941,3.56308 5.50433,3.56842 0.56493,0.005 2.98462,-3.92779 5.37709,-8.74029 l 4.34994,-8.75 4.01378,8.75 c 2.20758,4.8125 4.5444,8.75 5.19292,8.75 0.64852,0 3.08165,-1.62849 5.40695,-3.61886 2.3253,-1.99036 4.49024,-3.35642 4.81099,-3.03567 0.88266,0.88266 -2.72819,18.3394 -4.21455,20.37529 -1.10837,1.51815 -3.03534,1.79817 -13.13162,1.90827 -6.50795,0.071 -13.27335,-0.0684 -15.03421,-0.30974 z"
       id="path5" /><path
       style="fill:#141229"
       d="m 232.80039,457.9808 c -8.79198,-2.22976 -17.21098,-10.74782 -23.97246,-24.25453 -4.03638,-8.06305 -9.3409,-23.15215 -12.54417,-35.68276 -1.10993,-4.34186 -1.10993,-4.34186 -6.79665,1.0801 -6.235,5.94472 -10.0334,7.48213 -14.21074,5.75182 -2.65053,-1.09789 -4.97598,-4.62024 -4.97598,-7.53711 0,-1.75057 -1.32435,-1.80451 -7.77085,-0.31648 -11.78742,2.72086 -21.22915,-2.4243 -21.22915,-11.56858 0,-2.54767 0.61053,-6.08017 1.35674,-7.85 1.90541,-4.51922 10.27399,-11.99789 17.51676,-15.65403 3.36958,-1.70095 6.1265,-3.45953 6.1265,-3.90795 0,-0.44841 -3.7125,-1.59921 -8.25,-2.55732 -16.53437,-3.49128 -33.20975,-14.36829 -38.09587,-24.84914 -3.69535,-7.92662 -3.07121,-18.4069 1.43756,-24.13888 3.51815,-4.4726 7.62142,-6.01528 15.90831,-5.98095 8.9745,0.0372 17.05569,2.56846 28.19093,8.83027 4.23001,2.37871 7.85469,4.16116 8.05485,3.961 0.20016,-0.20015 0.0264,-3.41424 -0.38611,-7.1424 -0.96195,-8.69377 0.65976,-31.29666 2.75085,-38.34054 4.9824,-16.78325 16.44809,-30.87058 30.88948,-37.9524 13.75072,-6.74313 26.96262,-7.65843 47.38527,-3.28278 17.09011,3.66164 33.66767,3.74862 46.11473,0.24194 7.15648,-2.01617 10.71286,-2.39069 22.5,-2.36945 12.86269,0.0232 14.56655,0.24776 20.97402,2.7645 9.50647,3.73396 15.45657,7.73784 21.99631,14.80154 6.5053,7.0265 12.61536,18.96387 15.52045,30.32265 2.39285,9.35595 2.71173,30.02681 0.62919,40.78606 -1.56541,8.08754 -1.37766,8.17576 7.65855,3.59859 10.43489,-5.28565 18.13208,-3.89682 21.37146,3.85611 3.85784,9.23311 -3.58275,23.1344 -17.36906,32.45069 -7.57357,5.11794 -21.26122,11.79515 -24.28092,11.8449 -1.10189,0.0181 -2.52266,4.20152 -5.35323,15.76221 -8.58485,35.06253 -13.30147,49.04609 -20.24524,60.02185 -4.67046,7.38241 -7.8637,10.81555 -13.34731,14.35007 -3.6791,2.3714 -5.51972,2.86558 -10.67327,2.86558 -5.31632,0 -6.69994,-0.39754 -9.45643,-2.71697 -4.58234,-3.85578 -6.46629,-8.86295 -9.92636,-26.38223 -1.67292,-8.47044 -3.75762,-17.6508 -4.63267,-20.4008 -6.11427,-19.21507 -19.77408,-24.3194 -29.82328,-11.14423 -3.9811,5.21949 -6.23719,12.04419 -9.05324,27.38614 -3.94292,21.48117 -6.44473,28.24963 -11.69123,31.62978 -2.96991,1.91341 -8.49578,2.68795 -12.29774,1.72373 z m 10.5,-4.97425 c 4.2169,-2.90986 6.762,-9.86193 10.47803,-28.62117 4.04514,-20.42064 7.4956,-28.92693 13.7326,-33.85445 7.66115,-6.05267 19.46633,-4.04821 25.2419,4.28594 3.85255,5.55924 6.98413,15.38571 10.53853,33.06851 3.29175,16.37616 5.69975,22.91432 9.30805,25.27303 6.77282,4.42732 12.8074,2.82769 21.16322,-5.6099 11.83482,-11.95063 17.17854,-25.59061 28.06649,-71.64047 1.49252,-6.31253 5.34084,-20.20567 8.5518,-30.87363 8.60015,-28.57273 9.40494,-33.00133 9.29511,-51.14903 -0.0753,-12.43487 -0.51165,-17.04256 -2.20677,-23.30049 -4.73875,-17.49422 -14.70967,-30.34237 -29.16065,-37.57531 -10.36422,-5.18746 -17.05234,-6.51065 -29.50831,-5.83797 -10.03049,0.54169 -11.85256,0.99982 -32.07068,8.06369 -5.53887,1.93519 -13.18887,3.94451 -17,4.46515 -7.14153,0.97562 -9.86359,0.77271 -4.79732,-0.3576 6.41527,-1.43128 13.57223,-4.01817 13.71549,-4.95747 0.0839,-0.55 -2.71255,-1.31599 -6.2143,-1.70219 -3.50174,-0.3862 -12.02665,-1.90887 -18.94424,-3.3837 -21.51016,-4.58598 -37.82278,-2.35964 -51.57721,7.03924 -7.48086,5.11193 -14.63216,13.7394 -19.10334,23.04665 -5.52879,11.50876 -6.78526,18.03553 -6.73785,35 0.0459,16.43198 1.5421,24.20158 10.2061,53 2.15107,7.15 6.82352,24.475 10.38322,38.5 8.85954,34.90611 12.27523,44.00603 21.29153,56.72391 4.26819,6.02046 10.74197,11.4898 14.85364,12.54901 2.96574,0.764 7.6661,-0.19969 10.49496,-2.15175 z m 31.5,-112.82849 c -3.76237,-0.74454 -6.56846,-2.6674 -8.53418,-5.84799 -1.0812,-1.74942 -1.96582,-3.69015 -1.96582,-4.31273 0,-2.07165 1.86519,-1.16876 3.57901,1.73249 2.00134,3.388 6.29417,6.13704 9.57528,6.13181 3.26647,-0.005 8.66251,-3.50007 10.02662,-6.49397 1.35391,-2.97152 2.81909,-3.27508 2.81909,-0.58408 0,3.25562 -1.07369,4.96651 -4.34922,6.93037 -3.43901,2.06187 -8.01447,3.06475 -11.15078,2.4441 z M 227.93098,322.3651 c -0.32086,-0.83616 -1.95337,-1.79428 -3.62779,-2.12917 -4.51858,-0.90371 -5.13641,-2.7962 -0.6766,-2.07247 4.7499,0.7708 5.45073,-0.58868 1.68556,-3.26971 -3.94959,-2.81236 -3.87818,-4.50778 0.10314,-2.44896 4.27096,2.2086 5.57841,0.55852 2.44596,-3.08694 -3.12179,-3.63306 -2.59361,-4.29589 1.1926,-1.49663 2.81389,2.0804 3.02895,2.09556 6.46736,0.4559 4.27827,-2.04017 9.31292,-1.37295 13.29891,1.76244 3.92937,3.09083 7.23667,11.80582 4.48027,11.80582 -0.55,0 -1,-0.64296 -1,-1.4288 0,-0.78584 -1.51563,-3.03584 -3.36807,-5 -2.63479,-2.79369 -4.14211,-3.5712 -6.92328,-3.5712 -4.44489,0 -9.13569,3.73389 -10.71945,8.53272 -1.22481,3.71122 -2.41651,4.40205 -3.35861,1.947 z m 95.84281,-2.53872 c -3.58008,-7.9392 -11.24789,-10.37958 -16.31046,-5.191 -1.47578,1.5125 -3.44256,3.875 -4.37063,5.25 -1.6874,2.5 -1.6874,2.5 -1.73986,0.13615 -0.0705,-3.17747 3.69495,-9.69311 6.32508,-10.94475 4.30492,-2.04864 5.98729,-2.19446 11.70149,-1.01421 5.28197,1.09097 6.03479,1.02979 7.88042,-0.64048 1.78753,-1.6177 2.04056,-1.64583 2.04056,-0.22689 0,0.8909 -0.9,2.10147 -2,2.69018 -4.85811,2.59998 -0.65667,3.78992 5.5,1.55772 1.88746,-0.68433 1.88007,-0.62195 -0.13143,1.10857 -1.17229,1.00854 -2.97229,2.3496 -4,2.98014 -1.44139,0.88434 -1.60012,1.42711 -0.69433,2.37423 0.88075,0.92093 1.94299,0.95982 4.25,0.15559 1.69167,-0.58972 3.07576,-0.68052 3.07576,-0.20179 0,0.47874 -1.6065,1.40063 -3.57001,2.04864 -1.9635,0.64802 -3.81165,1.80792 -4.10699,2.57755 -0.891,2.32192 -1.92553,1.60718 -3.8496,-2.65965 z m -136.50861,76.90278 c 2.79154,-2.83592 5.36243,-6.29933 5.71309,-7.69648 0.99111,-3.94892 -6.05497,-31.65032 -7.77943,-30.58454 -1.76964,1.0937 -8.75076,16.07859 -10.33009,22.17342 -1.79312,6.9199 -2.05689,16.48246 -0.53317,19.32956 0.71271,1.33171 2.09726,1.93426 4.44463,1.93426 2.7822,0 4.34319,-0.9486 8.48497,-5.15622 z m -23.70533,-2.89898 c 4.50438,-1.25091 6.04329,-3.51944 7.70371,-11.35614 0.68886,-3.25123 2.58969,-9.10123 4.22406,-13 5.08666,-12.13414 5.16376,-11.9779 -4.30315,-8.7208 -12.85835,4.42392 -22.27161,11.05111 -25.95649,18.27408 -2.32367,4.55476 -2.38724,6.06851 -0.41502,9.88237 2.80913,5.43225 10.05545,7.33419 18.74689,4.92049 z m 215.72668,-36.5054 c 17.54379,-8.40763 28.03501,-19.48939 28.81301,-30.43486 0.34588,-4.86596 0.098,-5.77849 -2.13699,-7.86596 -3.3177,-3.09876 -7.54402,-2.58893 -18.16216,2.19094 -8,3.6013 -8,3.6013 -9.85835,10.38589 -2.17151,7.92787 -7.41724,25.53621 -8.26807,27.75344 -0.9115,2.37534 1.47083,1.87237 9.61256,-2.02945 z m -196.06446,-2.36983 c 1.18899,-0.75254 0.6485,-3.72517 -3.30246,-18.16281 -2.86893,-10.48369 -5.39077,-17.78895 -6.42167,-18.60231 -4.52916,-3.57339 -15.92748,-9.80184 -22.87403,-12.49919 -18.27964,-7.09801 -31.47383,-0.42773 -30.05718,15.19531 0.28303,3.12132 1.29261,7.17964 2.24352,9.01849 4.537,8.77358 19.98471,18.97016 34.07364,22.49099 11.92022,2.97888 23.8447,4.13768 26.33818,2.55952 z m 77.41626,-139.02386 c -1.18913,-0.50391 -2.41872,-1.73284 -2.73241,-2.73096 -1.01434,-3.22743 -5.60553,-26.53116 -5.60553,-28.45227 0,-2.98017 2.1001,-2.18702 8.33097,3.1464 3.20703,2.74511 6.03427,4.99112 6.28275,4.99112 0.24848,0 2.40817,-4.21515 4.7993,-9.36699 2.39113,-5.15184 4.7915,-9.64138 5.33414,-9.97675 0.54264,-0.33537 3.07039,3.87977 5.61722,9.36699 2.54683,5.48721 4.82029,9.97675 5.05214,9.97675 0.23185,0 3.04548,-2.24601 6.25252,-4.99112 5.79688,-4.96194 8.33096,-6.11612 8.33096,-3.79446 0,4.16409 -5.48407,29.55184 -6.65007,30.78558 -1.12324,1.1885 -4.68134,1.54796 -17.13378,1.73095 -8.64388,0.12703 -16.68907,-0.18133 -17.87821,-0.68524 z m 32.47467,-3.31992 c 1.23956,-1.49358 5.51914,-21.72738 4.75673,-22.48979 -0.2852,-0.2852 -2.51821,1.12003 -4.96224,3.12272 -2.44403,2.0027 -5.07268,3.64128 -5.84145,3.64128 -0.7848,0 -3.15738,-3.83715 -5.41029,-8.75 l -4.01254,-8.75 -4.70169,9.2903 c -3.17061,6.26497 -5.09888,9.05903 -5.92141,8.5801 -0.67084,-0.3906 -3.35722,-2.47565 -5.96972,-4.63342 -3.02294,-2.49677 -4.75,-3.3946 -4.75,-2.46934 0,3.67914 4.35165,22.31272 5.36367,22.96704 2.09528,1.35469 30.28082,0.89861 31.44894,-0.50889 z"
       id="path1" /></g><g
     id="g10"
     transform="matrix(1.0969977,0,0,1.0969977,-81.11331,-32.746478)"><path
       d="m 779.15718,261.57109 c 8.1573,-0.7971 11.40602,-1.91296 12.04452,-4.13797 0.48123,-1.67555 -1.19029,-19.83457 -3.71678,-40.35312 -2.5244,-20.51873 -4.2703,-33.68494 -3.87962,-29.25913 0.70949,8.04734 0.70949,8.04734 -12.15166,9.28128 -12.86152,1.23515 -12.86152,1.23515 -11.69839,11.92729 1.16269,10.69277 1.16269,10.69277 14.0608,9.58083 12.89763,-1.11194 12.89763,-1.11194 14.22071,9.56733 1.32351,10.67858 1.32351,10.67858 -11.55482,11.91411 -12.87823,1.23668 -12.87823,1.23668 -11.8673,10.70915 0.55597,5.21078 1.54137,10.0113 2.19018,10.66764 0.64888,0.65696 6.20623,0.70298 12.34979,0.10283 z m 9.52775,14.26247 c -0.85715,-1.40213 -2.34757,-2.87567 -3.31186,-3.27434 -0.96379,-0.39872 -0.2624,0.74901 1.55904,2.54982 1.82144,1.8008 2.60997,2.12665 1.75282,0.72452 z"
       fill="#fdcf7b"
       id="path1-1"
       style="stroke-width:5.41835" /><path
       d="m 795.71154,279.58951 c 5.01066,1.52695 13.70803,-1.66523 16.50507,-6.05723 4.48358,-7.03933 4.51381,-13.64091 0.23513,-51.21713 -4.32354,-37.97279 -4.27005,-44.143 0.44662,-51.54886 2.42788,-3.81203 2.37682,-3.97925 -2.17551,-7.17744 -8.11087,-5.69815 -16.18213,-5.30839 -20.93662,1.01096 -6.96596,9.25953 -6.96492,9.23304 -2.39251,50.12038 2.42125,21.652 4.14991,41.18334 3.84162,43.4031 -0.30832,2.21916 -1.86992,6.09164 -3.4702,8.60384 -2.74112,4.30447 -2.70275,4.77625 0.65785,8.14882 1.96182,1.96884 5.24163,4.09009 7.2886,4.71355 z"
       fill="#fc7374"
       id="path2"
       style="stroke-width:5.41835" /><path
       d="m 781.6424,481.8836 c 2.51159,0.31626 4.53901,-0.84925 6.30857,-3.62899 2.36249,-3.70899 0.97124,-18.08292 -14.77463,-152.63847 -9.56026,-81.69854 -18.07751,-150.33668 -18.92639,-152.52848 -2.41746,-6.23839 -8.83816,-7.72151 -12.61291,-2.91349 -1.63351,2.08019 -3.03714,4.91964 -3.11964,6.3101 -0.082,1.39029 7.79087,69.59343 17.49493,151.56181 11.29295,95.38488 18.41581,149.81458 19.78679,151.20235 1.17805,1.19292 3.80719,2.37854 5.84328,2.63517 z"
       fill="#397892"
       id="path3"
       style="stroke-width:5.41835" /></g></svg>
