<?xml version="1.0" encoding="UTF-8" standalone="no"?>
<!-- Created with Inkscape (http://www.inkscape.org/) -->

<svg
   version="1.1"
   id="svg1"
   width="950.22559"
   height="794"
   viewBox="0 0 950.22558 794"
   xmlns="http://www.w3.org/2000/svg"
   xmlns:svg="http://www.w3.org/2000/svg">
  <defs
     id="defs1" />
  <g
     id="g1"
     transform="translate(-17.5,-93)">
    <g
       id="g2"
       transform="translate(-18.795357,37.590715)">
      <path
         d="m 723.78447,520.7571 c -2.35891,7.6941 38.28998,-7.53955 38.97251,-7.53955 0.68253,0 8.15994,-2.04617 16.61647,-4.54681 8.45657,-2.50075 21.24568,-5.27069 28.42031,-6.15542 l 13.04475,-1.60851 20.74863,-40.28938 c 11.41175,-22.15925 20.7948,-41.04477 20.85117,-41.96812 0.0564,-0.92334 -4.46216,-1.67873 -10.04125,-1.67873 -8.73951,0 -10.1438,-0.63844 -10.1438,-4.61084 0,-2.53605 3.55034,-9.22787 7.88958,-14.8708 9.12072,-11.86087 8.8942,-10.70293 4.50839,-23.04599 -4.1997,-11.81945 -4.34556,-20.14479 -0.35289,-20.14479 1.66559,0 8.90726,2.00836 16.09256,4.46309 l 13.06418,4.46308 10.96283,-7.82055 c 6.02955,-4.30132 12.35523,-7.82055 14.05711,-7.82055 3.54064,0 5.912,9.5394 5.912,23.78207 0,5.38582 0.8749,9.79249 1.94424,9.79249 3.97553,0 19.47047,13.96406 19.47047,17.54691 0,2.54746 -4.25487,5.14143 -13.52508,8.2448 l -13.52506,4.52771 -5.33856,15.05737 c -3.02923,8.54402 -6.6566,15.05718 -8.38567,15.05718 -1.67596,0 -5.29708,-3.02154 -8.04695,-6.71483 -2.74987,-3.69319 -5.85119,-6.71493 -6.89185,-6.71493 -1.04064,0 -10.62957,17.53891 -21.30871,38.97548 l -19.41662,38.97549 4.82626,6.0924 c 12.69559,16.02604 -0.65382,41.25094 -33.12127,62.58548 -5.08552,3.34176 -9.85429,7.97781 -10.59731,10.30238 -0.79181,2.47714 -3.38723,4.19829 -6.27095,4.15837 -2.70597,-0.037 -13.03504,2.50104 -22.95342,5.64143 -9.91839,3.14028 -50.58684,10.35823 -55.81832,11.6015 m 54.96915,-22.7507 12.67583,-4.01602 15.50142,-32.46473 c 8.5258,-17.85563 15.80334,-33.21612 16.17236,-34.13466 1.83959,-4.57863 -78.65486,10.88815 -84.55121,16.58219 -1.94209,1.87551 -6.65687,62.82595 -6.67062,67.14668 -0.009,2.80095 16.53601,-3.50194 46.87222,-13.11346 z m 64.90606,-83.13743 c 0,0 40.76261,-82.36684 40.76261,-82.81711 0,-0.45027 -1.268,-0.8029 -2.81773,-0.7836 -2.46324,0.032 -80.53502,153.74734 -82.44289,162.32307 -0.40085,1.80178 0.27561,3.27604 1.50326,3.27604 1.22767,0 20.57531,-36.89931 42.99475,-81.9984 z m 1.37375,33.4346 c 3.38571,-7.08457 2.83621,-16.34696 -0.9698,-16.34696 -1.74302,0 -20.50423,36.05598 -20.50423,39.40565 0,3.56554 17.97405,-15.73493 21.47403,-23.05869 z m 61.90388,-114.72123 c 3.11815,-12.90637 4.65252,-14.47476 17.49667,-17.88484 5.26917,-1.39883 9.58028,-3.31775 9.58028,-4.26461 0,-0.94646 -4.56472,-4.91585 -10.1438,-8.82062 -9.95716,-6.96903 -10.14381,-7.32967 -10.14381,-19.59559 V 356.2583 l -10.17244,7.25384 -10.17236,7.25363 -12.00401,-3.75712 c -6.60218,-2.06648 -12.62099,-3.75721 -13.37509,-3.75721 -0.75409,0 0.59075,5.66193 2.98858,12.58224 l 4.35965,12.58234 -6.35699,8.12186 c -11.11233,14.19775 -11.11018,14.22546 1.06608,13.65475 16.86042,-0.7903 17.31766,-0.59833 24.14947,10.13932 3.5233,5.53768 7.22605,10.06839 8.22835,10.06839 1.0023,0 3.02703,-4.98628 4.49942,-11.08057 z m 45.1104,-66.66633 c 0,-3.30824 4.49284,-6.34469 18.59698,-12.56833 20.20838,-8.91746 24.23248,-9.76988 24.23248,-5.13334 0,2.40521 -20.25032,12.9993 -40.01173,20.93249 -1.67995,0.67446 -2.81773,-0.63024 -2.81773,-3.23082 z m -25.84015,-25.08165 c -1.88559,-3.02954 17.2696,-40.42263 20.70707,-40.42263 4.79899,0 3.30885,5.96525 -6.16298,24.671 -8.66091,17.10434 -11.67223,20.36567 -14.54409,15.75163 z m -38.52389,-10.76525 c -0.79817,-4.61644 -2.75495,-14.26178 -4.34832,-21.43398 -2.46716,-11.10529 -2.4198,-13.22218 0.31922,-14.26598 1.769,-0.67395 3.66088,-0.78399 4.20423,-0.24459 1.2543,1.24557 7.8335,35.19226 7.83399,40.42123 9.5e-4,7.70401 -6.53468,4.05113 -8.00912,-4.47668 z"
         style="display:inline;mix-blend-mode:normal;fill:#15132a;stroke-width:1.68468"
         id="path1" />
      <path
         d="m 888.40297,430.92232 c -9.11892,-11.4035 -7.89439,-13.47638 -11.6698,-15.16522 -3.99119,-1.78537 -10.08625,-3.07405 -15.89507,-2.98782 -13.54032,0.20087 -12.35565,-0.74028 -9.24595,-5.01669 7.72315,-10.621 9.04228,-11.65469 12.36749,-16.27113 1.60965,-2.23475 -4.14896,-14.55769 -6.4404,-25.34696 -0.55328,-2.60518 1.58343,-0.95315 15.65565,3.31345 9.95885,3.01954 11.44292,2.32738 25.81609,-8.22149 5.60789,-4.11596 7.10724,-10.39202 6.98287,-0.27541 -0.11055,8.99919 -4.76047,19.96512 2.09903,25.22091 4.33932,3.32485 7.65435,5.00428 18.90398,14.36241 3.04426,2.53245 -1.50457,0.013 -15.71985,5.24097 -8.04521,2.95852 -10.68714,6.16172 -13.17755,13.82191 -3.84456,11.82556 -5.72118,16.27133 -9.67649,11.32507 z"
         style="display:inline;mix-blend-mode:normal;fill:#f4c965;stroke-width:1.69446"
         id="path1-0" />
      <path
         style="display:inline;mix-blend-mode:normal;fill:#ffffff;fill-opacity:1;stroke:none;stroke-width:3.33333"
         d="m 725.90765,590.16701 c 0.74352,-22.52882 1.66842,-28.70769 2.31107,-36.75564 l 3.73752,-24.66788 36.84024,-8.57743 c 13.67161,-3.18312 43.08133,-8.08498 43.7581,-7.40821 0.67677,0.67677 -6.30069,16.05045 -14.59405,33.38993 -17.10851,35.76991 -10.93034,29.28152 -25.6938,34.30642 -8.0855,2.75199 -19.60021,7.35723 -25.55473,8.83739 -7.35312,1.82782 -21.07981,9.22174 -20.80435,0.87542 z"
         id="path60-9" />
      <path
         style="display:inline;mix-blend-mode:normal;fill:#ffffff;fill-opacity:1;stroke:none;stroke-width:0.521855"
         d="m 792.36035,580.96875 c -0.79022,-0.79021 -0.23883,-3.50461 1.54079,-7.5851 10.84511,-24.86679 75.53285,-151.64985 79.86286,-156.52513 0.63708,-0.71732 2.78894,-0.81043 2.78894,-0.12068 0,0.33452 -32.06952,65.37559 -44.22437,89.69264 -20.26679,40.54587 -38.35859,74.88618 -39.45291,74.88618 -0.0921,0 -0.32396,-0.15656 -0.51531,-0.34791 z"
         id="path66-2" />
      <path
         style="display:inline;mix-blend-mode:normal;fill:#ffffff;fill-opacity:1;stroke:none;stroke-width:0.521855"
         d="m 816.53963,555.24966 c 0,-2.29964 16.21434,-33.70305 19.21133,-37.2079 2.78632,-3.25847 4.80665,3.68342 3.02233,10.38481 -1.49706,5.62254 -6.4656,12.55983 -15.73523,21.97019 -4.84639,4.91996 -6.49843,6.15367 -6.49843,4.8529 z"
         id="path67-2" />
    </g>
    <path
       style="mix-blend-mode:normal;fill:#afe0f1;fill-opacity:1;stroke:none;stroke-width:2.83321"
       d="M 149.16569,594.59956 C 105.30086,586.69658 71.475318,570.49517 48.130325,546.20652 34.621503,532.15162 28.796958,518.0263 28.810265,499.35267 c 0.02129,-29.95149 17.14161,-43.495 51.863072,-41.02837 15.861573,1.12683 24.252123,3.88337 48.343173,15.88159 44.87313,22.34812 46.97283,17.23059 60.60653,66.28558 6.37989,22.95515 9.7709,49.68322 9.7709,52.73677 0,4.84753 -1.89325,5.51948 -14.92699,5.297 -8.20985,-0.14016 -24.09542,-1.90662 -35.30126,-3.92568 z"
       id="path56" />
    <path
       style="mix-blend-mode:normal;fill:#afe0f1;fill-opacity:1;stroke:none;stroke-width:2.83321"
       d="m 108.41357,704.09772 c -5.47144,-2.80166 -11.67656,-8.70738 -13.78914,-13.12415 -8.259208,-17.2669 10.69902,-43.86713 42.76309,-60.00081 14.0491,-7.06906 43.2535,-18.07661 47.95931,-18.07661 1.16715,0 -1.7991,9.21057 -6.59165,20.46821 -4.79256,11.25755 -11.42398,30.63185 -14.73646,43.05383 -6.68659,25.07505 -10.15009,28.32457 -33.2789,31.22246 -8.81738,1.10482 -15.23988,0.086 -22.32625,-3.54293 z"
       id="path57" />
    <path
       style="display:inline;mix-blend-mode:normal;fill:#c8e4ed;stroke-width:1.68468"
       d="m 553.45126,878.24161 c -1.83777,-1.7363 1.42928,1.239 2.48961,2.6427 -1.2099,0.1083 -1.61026,-1.8105 -2.48961,-2.6427 z m -214.74527,-0.6172 c -3.58226,-0.5808 -4.77829,-1.2904 -8.09325,-2.8892 -1.02228,-0.493 -5.2886,-4.7545 -4.19344,-3.8433 2.63054,2.1887 2.91056,9.8855 1.9056,8.6753 -4.04831,-4.8744 -8.79977,-14.3068 -4.61875,-15.0073 9.87565,-1.6545 23.40037,-6.4268 30.59177,-14.5596 8.80924,-9.9625 18.26048,-20.3072 25.11781,-60.8863 3.12051,-18.4659 7.24298,-38.6107 9.16104,-44.7661 4.70099,-15.08591 11.5922,-23.13734 18.89251,-32.95944 3.85046,-5.18046 12.00744,-13.18647 19.15365,-17.88194 0.87993,-0.5258 9.39149,-4.60824 11.35259,-5.35552 1.96112,-0.74728 3.56564,-0.24359 3.56564,1.11922 0,1.36271 -0.43961,4.82892 -1.84507,4.82892 -3.02198,0 -12.22144,6.79906 -19.46529,17.86443 -8.0798,12.34215 -16.40049,37.64483 -21.46856,65.28423 -10.15996,55.409 -11.87185,63.5034 -15.1529,71.6457 -1.87489,4.6529 -4.30413,7.9102 -5.39833,7.2387 -1.09419,-0.6716 -1.43799,0.2061 -0.76399,1.95 1.46523,3.7915 -9.29165,16.9525 -17.28847,18.9454 -3.95661,0.9862 -5.77166,1.2012 -9.55887,1.1986 -9.12288,-0.01 5.81498,1.5767 -11.89369,-0.6018 z m 217.07471,-10.031 c -4.75457,-7.8766 5.46523,-9.2543 11.29718,-9.7334 3.27616,-0.2694 10.09882,-2.9401 15.16149,-5.9351 35.55918,-21.0363 58.34398,-72.3394 79.09062,-178.08349 8.40771,-42.85335 13.01681,-61.81029 26.75348,-110.03407 16.68768,-58.58377 20.24697,-81.14888 20.42097,-129.46408 0.1209,-33.55855 -0.73939,-47.63855 -3.72176,-60.91666 -5.27552,-23.48805 -18.5557,-57.98855 -27.69577,-71.95081 -11.08468,-16.93288 -34.00771,-39.48158 -46.80364,-46.03945 -4.40547,-2.25775 -5.53962,-3.90027 -3.85096,-5.5771 1.68868,-1.67683 4.29473,-2.41761 5.56541,-0.37594 0.99065,1.5915 4.71641,1.11562 7.41325,2.6707 2.64335,1.52428 5.287,2.24385 6.921,2.89369 1.66863,0.66385 3.78377,1.33611 4.43565,1.64362 2.95542,1.39463 28.05116,13.97147 30.8438,17.25931 1.23981,1.45965 5.12331,4.47778 8.62998,6.70682 3.96961,2.52326 5.89346,5.3011 5.09774,7.35998 -0.70293,1.81898 -0.44061,2.79315 0.58295,2.16491 3.177,-1.94963 11.51173,5.28069 10.14977,8.80492 -0.70061,1.81298 -0.0912,3.29624 1.35453,3.29624 1.44561,0 2.00865,0.99568 1.2512,2.21264 -0.75748,1.21696 -0.0485,1.70634 1.57548,1.08761 2.73228,-1.04119 17.34611,19.94701 18.46425,26.51819 0.24681,1.45025 1.63223,4.7709 3.07876,7.37878 1.44648,2.60818 1.98942,5.37793 1.20652,6.15542 -0.7829,0.77729 -0.34123,1.41343 0.98157,1.41343 2.11946,0 3.8892,5.43875 8.74015,26.85962 4.96873,21.94097 5.73001,31.97495 4.84006,63.79154 -1.1489,41.07478 -5.78946,64.7443 -24.79387,126.46396 -6.25455,20.31255 -13.55676,44.27118 -16.22712,53.24146 -2.6704,8.97018 -5.73122,15.51725 -6.80181,14.54878 -1.07063,-0.96826 -1.219,-0.50479 -0.32975,1.02989 1.69876,2.93191 -15.2712,82.58532 -24.58602,113.44379 -11.93474,39.5381 -18.11356,51.7007 -20.17791,56.0891 -4.68176,9.9527 -13.47148,27.9511 -7.94381,16.3313 2.55658,-5.3743 -7.30641,14.199 -12.95939,20.9651 -8.70837,10.4233 0.59729,5.1773 -12.50444,13.3928 -3.58411,2.2944 -5.5987,5.0941 -4.70209,6.5347 2.52622,4.0588 -6.62335,4.808 -3.88824,2.7432 0.91227,-0.6887 -1.0204,0.4013 -2.15941,1.7189 -5.43345,6.2856 -5.85475,7.061 -12.52056,9.8995 -14.86536,6.3306 -7.11783,3.5328 -18.85927,5.6153 -9.79966,1.738 -18.72979,-5.8385 -17.26024,-4.621 7.63086,6.3219 -0.70964,1.3754 -6.06975,-7.5041 z m -63.73463,-158.49861 -4.29421,-5.0362 5.07192,4.26401 c 4.76634,4.00701 6.09811,5.80839 4.2942,5.80839 -0.42773,0 -2.7101,-2.26625 -5.07191,-5.0362 z"
       id="path26" />
    <path
       style="display:inline;mix-blend-mode:normal;fill:#f4c965;stroke-width:1.69446"
       d="m 209.32832,407.46044 c -3.68956,-3.7062 -3.40552,-13.58462 0.54423,-18.92784 4.51033,-6.10139 11.16956,-1.77797 12.12029,7.86897 1.10159,11.17761 -6.19962,17.55321 -12.66452,11.05887 z m 10.12039,-36.12582 c -6.15239,-3.4587 -4.47721,-13.84051 5.3353,-33.06546 14.47375,-28.35748 45.85944,-57.88381 56.97443,-53.59929 6.55262,2.52595 6.63686,8.65306 0.18451,13.41955 -22.35591,16.51493 -40.18624,39.30421 -49.00793,62.63781 -4.31467,11.4125 -7.5406,13.94985 -13.48631,10.60739 z m 81.09881,-87.20896 c -3.16147,-3.1759 -1.29909,-11.11519 3.28139,-13.98877 2.63125,-1.65072 10.21735,-3.56464 16.85797,-4.2532 10.18335,-1.0558 12.31408,-0.62284 13.60805,2.76444 2.42815,6.35639 -1.89447,10.64561 -13.94064,13.83291 -12.78523,3.38278 -17.67244,3.78853 -19.80677,1.64462 z m 119.77981,-78.5642 c -5.36371,-1.18085 -4.80609,-2.30987 -9.08737,-24.43971 -2.68132,-13.85973 -7.59999,-39.03751 -8.44549,-41.21693 -2.38877,-6.15773 6.5341,2.33958 15.33007,10.0975 4.3133,3.80433 5.85473,4.71218 9.414,7.1701 6.66561,4.60314 8.50667,1.43194 11.24679,-4.17267 2.74011,-5.60431 2.1437,-3.59295 6.15152,-13.41896 4.5327,-11.11268 6.83282,-14.58609 9.03466,-18.55129 11.00953,-19.82651 12.44047,-2.21683 21.23428,18.55129 4.21875,9.96336 9.6715,17.88574 11.32548,19.57048 4.21121,4.28981 5.24171,3.06965 13.61528,-6.17403 6.39767,-7.06246 19.0129,-16.65728 18.78119,-12.469 -0.46851,8.46899 -5.58639,61.77698 -14.57011,64.66527 -21.20623,6.81747 -63.86061,4.82802 -84.0303,0.38795 z"
       id="path24" />
    <path
       style="display:inline;mix-blend-mode:normal;fill:#e9afaf;stroke-width:0.710832"
       d="m 602.32685,575.41163 c -13.231,-1.86421 -24.67597,-9.25049 -26.11216,-16.85205 -1.11452,-5.89893 4.01875,-12.97749 12.197,-16.81914 3.5265,-1.65653 5.57428,-2.07228 12.11135,-2.45863 14.07072,-0.83181 26.7915,0.67866 34.76184,4.12776 6.89616,2.98412 12.01019,8.52551 11.96725,12.96738 -0.0693,7.17121 -10.38602,15.393 -22.45481,17.89535 -6.28123,1.30219 -17.33543,1.8626 -22.47047,1.13933 z"
       id="path44" />
    <path
       style="display:inline;mix-blend-mode:normal;fill:#e9afaf;stroke-width:0.710832"
       d="m 284.23581,568.1728 c -13.231,-1.8641 -24.67598,-9.25019 -26.11219,-16.85195 -1.11447,-5.89882 4.01877,-12.97739 12.19704,-16.81904 3.52649,-1.65652 5.57427,-2.07228 12.11133,-2.45873 14.07071,-0.83161 26.79151,0.67886 34.76187,4.12776 6.89617,2.98422 12.01014,8.52551 11.96723,12.96739 -0.0691,7.1713 -10.38604,15.3932 -22.45479,17.89534 -6.28125,1.30229 -17.33546,1.8627 -22.47049,1.13923 z"
       id="path44-1" />
    <path
       style="display:inline;mix-blend-mode:normal;fill:#15132a;stroke-width:1.68468"
       d="m 341.12088,886.01831 c -32.04765,-5.5942 -60.51144,-39.8462 -84.38508,-101.5449 -3.88565,-10.0421 -13.367,-42.0858 -20.04197,-67.73513 l -2.48253,-9.53939 -12.41248,13.31241 c -19.17249,20.56271 -36.87362,25.16701 -49.99542,13.0045 -2.81298,-2.60728 -5.73215,-8.57593 -6.48711,-13.26379 -0.75492,-4.68777 -1.70065,-8.52332 -2.1016,-8.52332 -0.40094,0 -6.5707,1.51087 -13.71058,3.35747 -38.0198,9.8331 -66.134728,-4.39386 -66.134728,-33.46601 0,-24.97571 18.978378,-47.41357 55.001838,-65.02811 16.63225,-8.13266 19.13716,-10.00497 14.65217,-10.95232 -31.31747,-6.615 -39.8147,-8.7539 -51.02516,-12.84394 -33.126795,-12.08606 -65.884623,-37.96331 -77.050663,-60.86684 -9.894699,-20.29575 -9.934378,-47.39506 -0.09264,-63.20742 20.538537,-32.99783 72.473883,-31.0446 132.228163,4.97308 9.24104,5.5703 17.1268,9.78588 17.52391,9.36803 0.39711,-0.41776 -0.27736,-6.80307 -1.49886,-14.18955 -3.65537,-22.10423 -0.77324,-84.17932 4.88441,-105.19994 22.56037,-83.82159 88.64404,-134.24849 170.84945,-130.37133 16.16671,0.76249 34.65645,3.61636 55.7481,8.60454 28.06536,6.6376 35.05169,7.45801 63.11707,7.41139 28.47129,-0.047 34.42525,-0.79229 60.86288,-7.61687 26.0526,-6.72513 32.6812,-7.57805 59.73582,-7.68639 34.46585,-0.13825 48.68708,2.88348 75.98209,16.14438 46.50706,22.59452 75.35166,63.09618 91.20459,128.06326 1.95628,8.01702 2.94801,25.97199 2.84354,51.4808 -0.13794,33.66799 -1.01044,43.10034 -6.21176,67.149 -3.32825,15.3883 -7.98135,34.27402 -10.34029,41.96812 -2.35891,7.6941 -2.83345,13.34153 -3.04798,13.98947 -16.59461,50.11943 -29.86707,99.39686 -42.24778,149.96591 -19.39158,84.78969 -42.66035,137.40419 -73.0805,165.24709 -14.29396,13.0828 -26.34607,18.1841 -43.1039,18.2444 -11.03036,0.04 -15.42255,-1.1003 -22.97533,-5.9629 -16.53983,-10.649 -22.23937,-25.4595 -33.34501,-86.648 -7.14886,-39.3879 -14.05853,-60.82877 -24.76301,-76.8399 -21.73071,-32.50375 -58.95097,-25.7373 -76.66925,13.93825 -6.41766,14.37055 -13.35865,42.70215 -18.09604,73.86385 -9.83475,64.6914 -27.67792,87.6242 -63.33446,81.4001 z m 26.08015,-14.8526 c 14.42421,-10.6049 19.26755,-23.6344 28.48156,-76.6199 11.76333,-67.6458 24.0128,-93.06428 50.60995,-105.01898 12.20179,-5.48447 20.64536,-5.79018 34.10746,-1.23557 28.02718,9.48258 43.32638,40.8483 56.19468,115.20775 8.08872,46.7405 15.25068,63.2671 30.53953,70.4709 16.43742,7.7451 36.01044,0.1159 56.40651,-21.9859 26.12169,-28.3064 45.95707,-76.7288 63.87124,-155.92342 13.39218,-59.20401 16.81779,-72.13698 31.71816,-119.74902 24.50872,-78.31402 30.36667,-110.75444 28.62087,-158.49823 -2.78599,-76.19011 -33.86237,-131.83808 -88.43836,-158.36478 -24.80602,-12.05704 -40.65541,-15.68001 -68.75251,-15.71632 -28.08664,-0.036 -49.06182,4.00441 -77.2859,14.88841 -35.723,13.77569 -52.52034,18.65393 -73.378,21.30983 -14.16679,1.80408 -22.1085,1.87751 -26.62091,0.24619 -6.14798,-2.22253 -5.9826,-2.33258 3.75817,-2.50144 10.8602,-0.18847 39.72585,-7.39589 49.05184,-12.24791 5.20384,-2.70732 4.3342,-3.03975 -11.73612,-4.48579 -9.54604,-0.85893 -28.70453,-4.08014 -42.57445,-7.1581 -42.89678,-9.51979 -47.07177,-10.11081 -71.42871,-10.11011 -78.05094,0 -136.65197,51.04143 -154.85919,134.87722 -4.87125,22.42996 -5.43527,73.21879 -1.07755,97.03757 4.4004,24.05216 14.95062,64.24471 28.38209,108.12574 6.70097,21.89215 15.42402,53.35641 19.38455,69.92015 23.46941,98.15371 32.28924,126.80001 49.58714,161.05651 15.58997,30.8741 37.64771,54.7834 55.88699,60.5785 8.79744,2.7952 22.81561,0.8485 29.55096,-4.1033 z m 84.72696,-313.24818 c -11.80326,-2.84737 -25.92308,-18.97975 -25.92308,-29.61826 0,-6.73674 6.47401,-5.63642 9.22267,1.56759 5.26225,13.7918 20.29266,22.48888 33.782,19.54697 8.8598,-1.93233 21.46788,-12.88896 23.33593,-20.27934 2.11182,-8.35495 9.3398,-6.33249 8.68248,2.42941 -1.35973,18.12443 -26.74061,31.74727 -49.1,26.35363 z M 326.06955,513.26611 c -0.82656,-0.82071 -1.50278,-3.21001 -1.50278,-5.3096 0,-2.70162 -2.5502,-4.22249 -8.72398,-5.20276 -8.23927,-1.3083 -15.91667,-6.80217 -13.23143,-9.46847 0.67585,-0.67115 5.4177,0.027 10.53739,1.54908 13.10165,3.89757 16.76134,-0.20708 5.87229,-6.58648 -7.66738,-4.49189 -12.12233,-10.41122 -9.66902,-12.84734 0.61678,-0.61233 4.86421,1.07921 9.4387,3.75932 6.00647,3.51892 9.00038,4.19428 10.77613,2.43091 1.77574,-1.76306 0.48334,-4.27391 -4.65186,-9.0372 -6.98818,-6.48185 -9.16895,-11.51454 -4.98963,-11.51454 1.16661,0 2.75253,1.01448 3.52421,2.25425 0.77166,1.23986 4.45918,3.82354 8.19443,5.74146 5.88149,3.01994 7.44784,3.06616 11.69151,0.34363 22.88458,-14.68183 55.6192,4.73889 55.6192,32.99743 0,10.12092 -2.80202,10.10441 -6.49569,-0.038 -1.59115,-4.36925 -6.39344,-11.4199 -10.67179,-15.6681 -6.50924,-6.46334 -9.39579,-7.72401 -17.68693,-7.72401 -13.0485,0 -24.54832,10.18293 -28.63537,25.35635 -2.60799,9.68235 -5.70058,12.63296 -9.39538,8.96418 z m 266.15364,-9.42095 c -10.92474,-30.54261 -40.17743,-33.08717 -54.63744,-4.75279 -6.50918,12.7548 -11.06009,12.95258 -8.80925,0.38284 2.17069,-12.12187 9.87571,-24.60327 18.42814,-29.85175 9.08294,-5.574 26.06972,-6.15382 35.6826,-1.21776 5.61588,2.88359 7.7105,2.95732 13.64551,0.47928 3.85618,-1.6099 7.70005,-4.03392 8.54195,-5.38643 2.62381,-4.21558 5.41246,-2.69301 4.11201,2.24505 -0.68147,2.58748 -4.16396,6.47084 -7.73888,8.62945 -5.26774,3.1809 -5.92093,4.40216 -3.44575,6.44193 2.31208,1.90532 5.18102,1.44004 11.80781,-1.91452 4.8145,-2.43752 9.58924,-4.43157 10.61052,-4.43157 4.2299,0 -3.63859,9.41795 -10.63722,12.7318 -4.65853,2.20593 -7.11132,4.74598 -6.38865,6.61589 1.43878,3.7231 7.58874,3.89787 15.2463,0.43356 3.16308,-1.43114 6.39851,-1.95904 7.18982,-1.17344 2.85281,2.83287 -4.47709,8.32034 -12.89992,9.65784 -6.50096,1.03209 -8.76975,2.52525 -9.28751,6.1123 -1.32274,9.16396 -7.2876,6.55147 -11.42004,-5.00168 z M 197.88102,726.45714 c 7.55632,-3.94498 23.26889,-20.182 28.70343,-29.66127 4.00899,-6.99284 3.96238,-7.52794 -3.11975,-35.8128 -3.95426,-15.79275 -9.00544,-34.7574 -11.22485,-42.14378 l -4.03529,-13.42996 -8.1954,14.54908 c -11.74032,20.84226 -16.50277,32.30217 -21.80196,52.46207 -10.87256,41.36279 -2.11636,65.41293 19.67382,54.03666 z M 152.90219,703.7713 c 8.03345,-3.19181 9.18729,-4.61434 10.48113,-12.92307 2.93694,-18.86011 10.52411,-42.83014 19.40525,-61.30691 5.01109,-10.42522 8.74013,-19.32328 8.28679,-19.77345 -1.79316,-1.78057 -28.60176,6.54317 -44.44912,13.8008 -21.77248,9.97136 -38.30792,22.51609 -47.1494,35.77018 -17.726168,26.57312 -1.27837,52.15746 31.61523,49.17723 7.03057,-0.63704 16.84513,-2.77224 21.81012,-4.74478 z M 734.18851,568.26503 c -0.64645,2.62133 -13.34738,38.60903 -19.63991,62.21835 -11.19388,41.999 30.6539,-106.87938 19.63991,-62.21835 z m -531.7139,28.62959 c 1.79411,-2.14661 0.6413,-8.81052 -4.35612,-25.18099 -3.73778,-12.24391 -9.67026,-33.34126 -13.18334,-46.88296 l -6.38741,-24.62128 -13.21291,-9.39334 c -17.82351,-12.67108 -50.7832,-28.88609 -67.22332,-33.07136 -29.801975,-7.58716 -52.21678,-2.40591 -63.621471,14.70634 -5.558048,8.33954 -6.3481,11.63458 -6.3481,26.47567 0,13.43497 1.143089,19.27217 5.511204,28.14221 11.630168,23.6172 41.608557,46.32225 76.897207,58.24005 32.7655,11.06567 86.67942,17.86083 91.92426,11.58566 z M 421.6582,214.75372 c -5.49022,-1.13783 -10.91008,-2.99023 -12.04418,-4.11645 -2.14471,-2.1294 -17.34722,-78.18436 -17.39476,-87.02189 -0.0152,-2.77005 1.14517,-5.0363 2.57786,-5.0363 3.11802,0 15.19481,8.91306 28.47525,21.01572 5.71549,5.20866 10.47156,7.974 11.63793,6.76655 1.08483,-1.12303 6.70859,-12.61766 12.49725,-25.54393 5.7886,-12.92622 11.86317,-24.877512 13.499,-26.558652 3.84554,-3.95181 6.67873,0.29594 19.20732,28.796902 5.14097,11.6952 10.22289,22.15875 11.29309,23.25256 1.1171,1.14153 8.96578,-4.32963 18.42744,-12.84564 16.60077,-14.94113 21.30757,-17.34424 23.3947,-11.9434 0.62485,1.61691 -1.83457,17.98447 -5.46549,36.3722 -3.63088,18.38783 -7.31694,37.77584 -8.19124,43.08434 -1.24862,7.58106 -2.87218,10.17743 -7.56686,12.10076 -7.62152,3.12247 -77.14655,4.41326 -90.34731,1.67723 z m 82.22596,-10.02778 c 3.94376,-1.17664 5.52719,-5.96935 10.84033,-32.81196 3.42204,-17.28862 5.85987,-31.79338 5.41735,-32.23285 -0.4425,-0.43946 -7.11539,4.66626 -14.8286,11.34578 -14.89554,12.89926 -18.93898,13.56851 -22.62996,3.74521 -3.36259,-8.94927 -17.699,-40.76206 -18.91232,-41.96682 -0.58142,-0.57731 -5.92467,10.00697 -11.87393,23.52057 -5.94922,13.51359 -12.30342,25.13667 -14.12037,25.82903 -1.99668,0.76069 -8.90547,-3.62487 -17.46436,-11.08618 -7.78842,-6.78956 -14.62728,-12.34485 -15.19745,-12.34485 -1.19036,0 11.36921,62.91781 12.85384,64.39206 4.29516,4.26481 72.7209,5.5473 85.91547,1.61001 z"
       id="path20" />
    <g
       id="g67"
       style="display:inline">
      <path
         style="display:inline;mix-blend-mode:normal;fill:#ffffff;fill-opacity:1;stroke:none;stroke-width:3.33333"
         d="M 306.86621,847.7689 C 286.92553,825.1151 268.78704,785.40117 255.36141,735 242.11716,685.27973 214.59817,584.24127 197.71156,523.33333 184.74161,476.55231 179.86373,419.501 186.02658,386.66667 c 8.72293,-46.47385 33.18109,-88.73559 64.84326,-112.04396 40.53661,-29.84135 84.69266,-34.66814 167.46349,-18.30578 L 465,265.54212 441.00865,271.1044 c -13.19524,3.05924 -26.69524,5.60788 -30,5.66363 -5.69532,0.0961 -5.68704,0.28828 0.15869,3.68589 10.55491,6.13462 45.51133,-0.0443 90.85961,-16.06051 38.31865,-13.53344 46.94948,-15.35752 79.68658,-16.84136 36.562,-1.65721 36.76144,-1.62463 48.31727,7.89194 37.32503,30.73827 50.26093,48.96058 65.89613,92.82542 6.9291,19.43973 8.60264,31.32516 9.89414,70.26776 1.8574,56.00719 -1.15207,77.76423 -20.9256,151.28192 C 676.7326,600.1686 665.61083,646 660.18043,671.66667 c -17.11006,80.87063 -33.6496,129.77146 -52.05273,153.8992 -11.56377,15.1609 -29.18807,27.9569 -42.70453,31.00536 -14.61387,3.29597 -15.21417,2.00114 -28.76554,-62.04586 -19.16446,-90.5759 -38.40889,-115.5747 -84.27373,-109.47297 -20.59875,2.7404 -35.17547,10.90447 -46.88865,26.26127 -13.36078,17.51686 -18.22394,30.6991 -27.06654,73.3673 -10.67064,51.48913 -22.78588,70.61676 -48.76949,76.9977 -7.38437,1.8134 -10.77344,-0.25484 -22.79301,-13.90977 z M 636.8322,571.58107 c 5.40897,-2.79708 9.83447,-5.6744 9.83447,-6.39405 0,-0.71964 0.8517,-3.52794 1.89266,-6.24066 5.46177,-14.23316 -36.9909,-27.8803 -58.72443,-18.87798 -11.48153,4.75581 -17.43757,13.61386 -14.4277,21.45745 5.38697,14.03817 42.10073,20.0482 61.425,10.05524 z m -320.16553,-7.41958 c 24.66267,-12.32039 13.32084,-30.54736 -20.67233,-33.22164 -18.03742,-1.41903 -22.28541,-0.62849 -30.16101,5.61285 -12.21407,9.67954 -11.65373,18.69556 1.66667,26.81717 13.41183,8.17735 33.7273,8.50444 49.16667,0.79162 z m 177.22662,-17.03476 c 9.38876,-10.50785 12.67359,-23.7934 5.88287,-23.7934 -1.95645,0 -8.50856,5.25 -14.56026,11.66667 -8.20785,8.70286 -13.76692,11.66667 -21.88257,11.66667 -8.11565,0 -13.67472,-2.96381 -21.88257,-11.66667 -16.53557,-17.53282 -23.4238,-14.93033 -13.13646,4.96319 8.24609,15.94619 17.67415,20.67862 38.07899,19.11379 15.17184,-1.16352 19.56959,-3.07458 27.5,-11.95025 z M 337.89315,503.46145 c 10.75632,-26.88269 32.47195,-29.93443 48.03733,-6.75078 C 395.801,511.41219 400,512.92479 400,501.77891 c 0,-27.36065 -33.08168,-47.73455 -56.85184,-35.01314 -4.80455,2.57132 -8.53881,2.03991 -14.88489,-2.1182 -11.01902,-7.21994 -14.02586,-3.85157 -6.63332,7.43088 6.2736,9.57472 6.93724,9.40387 -9.96328,2.56492 -7.49175,-3.0316 -6.02239,4.13058 2.5,12.18586 l 7.5,7.08894 -9.01294,-1.12575 c -12.52564,-1.5645 -12.40287,4.56844 0.20637,10.30914 5.76028,2.62252 10.47323,6.74752 10.47323,9.16666 0,9.47753 9.55684,3.6969 14.55982,-8.80677 z m 267.84478,6.78702 c 2.2045,-3.53001 7.425,-6.90501 11.6011,-7.5 4.17607,-0.59499 8.09007,-3.69068 8.69777,-6.87931 0.931,-4.88515 -0.63733,-5.46638 -9.96597,-3.69342 L 605,494.27983 l 9.16667,-7.38185 c 15.65036,-12.60312 11.4444,-16.44704 -9.16667,-8.37761 -6.40923,2.50928 -6.4414,2.35285 -0.83333,-4.05095 5.5674,-6.35736 7.83763,-14.46942 4.0494,-14.46942 -0.98117,0 -5.3806,2.35661 -9.7765,5.23691 -6.08697,3.98834 -9.583,4.3857 -14.66357,1.66666 -17.58717,-9.41237 -41.30423,-1.48307 -50.71003,16.95384 -11.93974,23.40385 -5.61477,36.49314 7.16643,14.83063 3.6708,-6.22158 11.11137,-13.14989 16.53457,-15.39625 12.7535,-5.28267 23.68126,1.31854 33.2579,20.09029 7.64616,14.98769 9.9991,16.01589 15.71306,6.86639 z M 222.66853,399.71468 c 1.06662,-9.17575 -6.72527,-18.38782 -12.52251,-14.80492 -1.91365,1.18269 -3.47935,7.41615 -3.47935,13.85213 0,10.22857 0.94422,11.56768 7.5,10.63661 5.23231,-0.7431 7.80292,-3.67108 8.50186,-9.68382 z m 14.26168,-43.79752 c 4.43838,-9.5789 17.44479,-27.3863 28.90312,-39.572 22.30157,-23.71724 25.95311,-33.01183 12.9693,-33.01183 -21.88973,0 -73.77008,70.53899 -63.77495,86.71145 5.1801,8.38159 14.15531,2.59237 21.90253,-14.12762 z m 88.43338,-74.18759 c 8.31541,-3.4744 11.45668,-6.68395 10.60286,-10.83333 -0.96577,-4.69342 -4.19404,-5.75599 -15.825,-5.20872 -15.96585,0.75123 -25.53275,7.47488 -22.36855,15.72068 2.52843,6.58896 12.31735,6.70298 27.59069,0.32137 z"
         id="path58" />
      <path
         style="display:inline;mix-blend-mode:normal;fill:#ffffff;fill-opacity:1;stroke:none;stroke-width:3.33333"
         d="m 180.66667,722.66667 c -5.66931,-5.66931 -4.95618,-34.90062 1.37174,-56.22833 5.75962,-19.41229 19.30303,-48.14717 24.08618,-51.10332 2.99743,-1.85251 16.56336,44.92037 19.48901,67.1946 1.47761,11.24973 0.14655,14.02021 -13.59841,28.30371 -15.34453,15.94575 -23.9774,19.20446 -31.34852,11.83334 z"
         id="path59" />
      <path
         style="display:inline;fill:#ffffff;fill-opacity:1;stroke:none;stroke-width:3.33333"
         d=""
         id="path61" />
      <path
         style="display:inline;fill:#ffffff;fill-opacity:1;stroke:none;stroke-width:3.33333"
         d=""
         id="path62" />
      <path
         style="display:inline;fill:#ffffff;fill-opacity:1;stroke:none;stroke-width:3.33333"
         d=""
         id="path63" />
      <path
         style="display:inline;fill:#ffffff;fill-opacity:1;stroke:none;stroke-width:3.33333"
         d=""
         id="path64" />
      <path
         style="display:inline;fill:#ffffff;fill-opacity:1;stroke:none;stroke-width:3.33333"
         d=""
         id="path65" />
    </g>
  </g>
</svg>
