<?xml version="1.0" encoding="UTF-8" standalone="no"?>
<!-- Created with Inkscape (http://www.inkscape.org/) -->

<svg
   version="1.1"
   id="svg1"
   width="944.35132"
   height="793.93182"
   viewBox="0 0 944.35132 793.93182"
   xmlns="http://www.w3.org/2000/svg"
   xmlns:svg="http://www.w3.org/2000/svg">
  <defs
     id="defs1" />
  <g
     id="g1">
    <g
       id="g9"
       transform="translate(-0.15789474,0.00566183)">
      <g
         id="g21"
         transform="translate(0.15789474,-0.00566183)"
         style="fill:#ffffff">
        <path
           style="fill:#ffffff;fill-opacity:1;stroke-width:1.56917"
           d="m 294.37679,763.00889 c -18.64692,-18.66055 -37.28769,-52.66724 -49.40274,-90.12632 -3.54091,-10.94829 -13.20067,-46.25462 -21.46613,-78.4585 -8.26546,-32.20389 -21.39431,-80.79551 -29.1752,-107.98138 -15.98989,-55.86747 -25.36019,-93.46576 -28.12364,-112.84598 -2.51606,-17.64524 -1.06213,-72.06971 2.34429,-87.75298 5.30369,-24.41841 16.1125,-49.97264 29.6433,-70.08286 7.44812,-11.06979 26.98675,-30.93371 37.55635,-38.18162 12.17219,-8.34684 32.32303,-17.2472 49.05133,-21.66534 13.69664,-3.61743 18.78403,-4.14775 40.01383,-4.17108 22.83106,-0.0251 26.4866,0.41754 59.62846,7.22014 19.41848,3.98578 41.83799,8.07287 49.82115,9.08242 7.98315,1.00955 14.51482,2.3098 14.51482,2.88945 0,2.99267 -37.3663,12.62984 -49.03656,12.64705 -8.11329,0.012 -10.06232,2.51792 -3.13834,4.03509 2.37337,0.52004 5.23354,1.23115 6.35594,1.58023 4.06452,1.26412 36.01648,-4.46408 52.88022,-9.48013 9.49348,-2.82379 28.59119,-9.11542 42.43935,-13.9814 33.35574,-11.72057 43.74826,-13.56927 74.99415,-13.34054 28.19149,0.20638 34.96057,1.1059 34.41078,4.57273 -0.20087,1.26658 2.14973,4.02084 5.22353,6.12057 8.72956,5.96317 23.19415,19.31557 34.38653,31.74248 11.97487,13.29574 22.8452,34.00867 31.43813,59.90397 9.49119,28.60231 10.07198,33.34172 10.10203,82.43526 0.0373,60.8972 -0.24821,62.58883 -28.2369,167.31799 -3.4597,12.94565 -9.84172,40.13152 -14.18227,60.41305 -24.58799,114.88921 -39.5538,154.73639 -68.42935,182.19643 -10.82517,10.29451 -14.57497,12.41273 -30.17565,17.04594 -9.46142,2.80993 -11.84212,3.05844 -12.93844,1.35058 -4.05779,-6.32126 -8.74307,-22.96866 -14.88825,-52.90003 -10.70901,-52.16027 -15.89778,-70.31449 -25.25716,-88.36835 -7.1186,-13.73153 -14.4121,-21.02383 -26.84733,-26.84299 -12.49603,-5.84759 -28.91722,-6.70632 -37.86131,-1.9799 -3.67387,1.94141 -5.61396,2.2927 -6.01515,1.08913 -1.07203,-3.21606 -5.98478,-1.86449 -15.44286,4.24856 -15.30744,9.89368 -32.46407,32.59486 -37.54642,49.68039 -1.28363,4.31522 -5.13208,21.29859 -8.55212,37.74084 -6.23249,29.96349 -9.862,42.75557 -14.88945,52.4776 -3.95311,7.64448 -16.27689,20.2402 -23.31752,23.83206 -4.48729,2.28925 -17.79493,7.12821 -20.74453,7.54319 -0.0664,0.009 -4.17799,-4.04325 -9.13687,-9.00575 z M 615.49896,478.88693 c 7.2761,-3.27155 12.8016,-8.58595 14.39146,-13.84166 1.39668,-4.61708 -5.1165,-12.04421 -13.59308,-15.50053 -8.62104,-3.51521 -32.62571,-4.88321 -41.8368,-2.38421 -9.27814,2.51718 -15.83603,9.1896 -15.83603,16.11261 0,7.70544 7.21008,14.30788 20.38905,18.67071 6.51749,2.15757 29.09524,0.26591 36.4854,-3.05692 z m -329.6786,-4.17729 c 10.98126,-1.24651 21.90501,-7.77195 24.82945,-14.83217 1.85141,-4.46968 1.7431,-5.47869 -0.99113,-9.23334 -1.68832,-2.3184 -6.20591,-5.83847 -10.03908,-7.82237 -6.41897,-3.32222 -8.62133,-3.57007 -27.8855,-3.13834 l -20.9161,0.46875 -5.3675,5.86134 c -11.40883,12.45852 -4.19379,23.90323 18.17005,28.82189 4.74674,1.04398 9.68963,1.66911 10.98419,1.38915 1.29457,-0.27994 6.3416,-0.96165 11.21562,-1.51491 z m 175.92982,-11.80069 c 9.5603,-3.57697 17.12269,-10.62282 20.75924,-19.34132 5.0219,-12.03982 -2.42055,-16.83277 -9.27568,-5.97356 -4.91024,7.77832 -14.28206,15.52095 -21.37479,17.659 -11.66394,3.51599 -20.21263,-1.30463 -36.35999,-20.50347 -8.9885,-10.68713 -9.96668,1.99986 -1.20671,15.65109 9.33515,14.54755 28.50405,19.59981 47.45793,12.50826 z M 314.10945,419.36067 c 1.28207,-1.51032 3.52692,-5.92361 4.98857,-9.80731 6.02813,-16.01718 20.92628,-25.7079 33.83206,-22.00657 5.49658,1.5764 15.90268,12.07358 21.02977,21.21383 6.03819,10.76453 10.64032,5.94572 6.82778,-7.14924 -3.39551,-11.66256 -10.77539,-21.18225 -20.07363,-25.89403 -11.96215,-6.06167 -19.43468,-6.4626 -31.27959,-1.67821 l -10.06423,4.0651 -8.36042,-5.06694 c -4.59823,-2.78681 -8.82726,-4.94337 -9.39784,-4.79234 -2.72315,0.72081 -1.48469,3.89248 4.45312,11.40438 3.55931,4.50286 6.14464,8.51383 5.74519,8.9133 -0.61848,0.61847 -7.97354,-1.90416 -18.76774,-6.43696 -5.69171,-2.39011 -2.6797,4.34304 5.0998,11.40029 8.39433,7.61501 9.63452,9.91499 4.84945,8.99346 -1.64803,-0.31738 -6.30707,-1.07352 -10.35342,-1.68031 -6.64938,-0.99713 -7.30252,-0.82032 -6.79053,1.83828 0.3623,1.88124 3.67001,4.16742 9.17654,6.3425 5.89943,2.33028 9.52005,4.92564 11.50055,8.24391 3.3337,5.58549 4.37809,5.87421 7.58457,2.09686 z m 272.33239,-2.37351 c 2.32995,-3.94897 5.03595,-5.75484 11.83456,-7.89791 6.0156,-1.89625 9.13685,-3.79576 9.83102,-5.98289 1.47731,-4.65456 0.13881,-5.14777 -7.42257,-2.73505 -14.37444,4.58667 -18.10461,0.84894 -6.49836,-6.51152 6.82888,-4.33073 11.25671,-10.1926 9.23004,-12.2193 -0.42975,-0.42973 -4.42277,0.73197 -8.87341,2.58159 -8.34062,3.4662 -13.95023,4.31128 -13.95023,2.10155 0,-0.69374 2.47144,-3.65677 5.49209,-6.5845 5.15989,-5.00115 7.33463,-10.98419 3.99261,-10.98419 -0.82472,0 -4.10082,1.76532 -7.28024,3.92293 -6.80005,4.61464 -9.03084,4.76313 -20.6802,1.37657 -11.2735,-3.27729 -24.6126,-2.16981 -33.52817,2.7837 -5.19691,2.8874 -7.75752,5.91177 -11.82373,13.96505 -2.85463,5.65372 -5.64504,13.59764 -6.20091,17.65316 -0.93197,6.79944 -0.74967,7.37369 2.34096,7.37369 1.84338,0 3.35162,-0.75543 3.35162,-1.67873 0,-1.92026 8.60647,-14.77359 12.49796,-18.66509 5.79002,-5.79002 10.40843,-7.90104 17.27313,-7.89537 12.23083,0.0101 20.91912,7.63462 29.12533,25.55935 2.25524,4.92609 5.03812,8.95652 6.18416,8.95652 1.14606,0 3.44301,-2.30381 5.10434,-5.11956 z M 201.15663,314.22628 c 3.82639,-4.45525 4.59983,-8.38415 2.75245,-13.98177 -2.06558,-6.25877 -6.88713,-9.48994 -10.13663,-6.7931 -1.19525,0.99197 -2.96653,4.20746 -3.93618,7.14552 -3.74194,11.33819 4.63063,21.41851 11.32036,13.62935 z m 9.58997,-37.7134 c 1.39337,-1.53966 4.3731,-6.95927 6.62163,-12.04358 6.91201,-15.6293 17.27698,-30.00097 34.59128,-47.96295 12.62312,-13.09532 16.46843,-18.05453 16.08623,-20.74603 -0.38279,-2.69565 -1.69158,-3.65219 -5.50214,-4.02126 -6.99739,-0.67773 -13.3209,3.04361 -27.05014,15.91882 -13.47096,12.63299 -21.25122,23.13386 -30.05014,40.55811 -6.86836,13.60121 -8.9388,22.76332 -6.27064,27.74882 2.19605,4.10336 8.10327,4.38309 11.57392,0.54807 z m 85.09626,-85.21699 c 5.09362,-0.94161 11.97358,-3.0958 15.28879,-4.78709 5.32884,-2.71857 5.97133,-3.6571 5.54187,-8.0953 -0.4714,-4.87166 -0.72747,-5.03418 -8.65311,-5.49206 -15.21667,-0.87909 -27.13899,4.70508 -27.13899,12.71137 0,3.38337 2.56179,7.3751 4.73315,7.3751 0.53193,0 5.13466,-0.77041 10.22829,-1.71202 z"
           id="path16" />
        <path
           style="fill:#ffffff;fill-opacity:1;stroke-width:1.56917"
           d="m 698.28063,535.40559 c 0,-1.58373 3.83434,-15.17895 8.52074,-30.2116 5.99803,-19.23995 9.53327,-28.152 11.94066,-30.10138 5.75522,-4.6603 50.2197,-17.34959 52.56754,-15.00175 0.539,0.539 -27.06839,60.4373 -30.1217,65.35344 -0.3665,0.59012 -31.27679,10.04373 -38.59202,11.803 -3.51683,0.84578 -4.31522,0.50503 -4.31522,-1.84171 z"
           id="path17" />
        <path
           style="fill:#ffffff;fill-opacity:1;stroke-width:1.56917"
           d="m 162.31038,630.70103 c -4.54431,-4.74546 -4.60816,-5.05836 -4.56345,-22.36067 0.0661,-25.56132 6.73396,-46.81717 25.41561,-81.01964 l 7.32877,-13.41756 2.13207,7.06127 c 5.68647,18.83327 17.6405,68.91015 17.6428,73.90784 0.003,6.76824 -4.81577,13.7549 -19.04379,27.61066 -14.60124,14.21923 -21.33293,16.13267 -28.91201,8.2181 z"
           id="path18" />
        <path
           style="fill:#ffffff;fill-opacity:1;stroke-width:0.251065"
           d="m 773.6198,503.50724 c -0.0801,-0.20871 0.045,-0.9622 0.27795,-1.67444 1.36978,-4.18785 13.95398,-28.7532 17.33965,-33.84834 2.44636,-3.68156 3.46228,-4.38923 4.58521,-3.19392 1.02393,1.08991 1.24945,2.30468 1.17785,6.34445 -0.0611,3.44479 -0.13322,3.96621 -0.84139,6.07995 -0.42602,1.27161 -1.07359,2.90661 -1.43903,3.63334 -1.90369,3.78575 -6.51331,9.79453 -9.03274,11.77448 -0.91256,0.71715 -1.73341,1.48999 -1.82413,1.71742 -0.0907,0.22743 -0.78633,0.97498 -1.5458,1.66122 -1.85928,1.68002 -5.12561,5.13348 -5.47791,5.79175 -0.27759,0.51869 -2.42762,2.09355 -2.85814,2.09355 -0.11875,0 -0.28143,-0.17076 -0.36152,-0.37946 z"
           id="path19" />
        <path
           style="fill:#ffffff;fill-opacity:1;stroke-width:0.251065"
           d="m 773.6198,503.50724 c -0.0801,-0.20871 0.0472,-0.97131 0.28281,-1.69469 1.36093,-4.178 13.92728,-28.70088 17.33466,-33.82809 2.44678,-3.68176 3.46243,-4.38921 4.58534,-3.19392 1.03617,1.10295 1.2673,2.34535 1.1853,6.37159 -0.0693,3.40363 -0.14707,3.95817 -0.84864,6.05222 -0.9666,2.88511 -1.84636,4.63482 -3.76282,7.48363 -2.3701,3.52316 -4.73654,6.32041 -6.73371,7.95958 -1.01144,0.83014 -1.83898,1.59689 -1.83898,1.7039 0,0.107 -1.34807,1.5142 -2.99571,3.1271 -1.64765,1.6129 -3.30061,3.3725 -3.67325,3.91022 -0.61854,0.89255 -2.65352,2.48792 -3.17348,2.48792 -0.11875,0 -0.28143,-0.17076 -0.36152,-0.37946 z"
           id="path20" />
        <path
           style="fill:#ffffff;fill-opacity:1;stroke-width:0.251065"
           d="m 749.03281,527.85305 c -0.20189,-1.07614 0.23522,-2.35592 2.7834,-8.14927 10.51153,-23.89832 51.77172,-106.11155 70.49772,-140.47066 l 1.36833,-2.51065 2.28403,-0.0721 2.28404,-0.0721 -1.5905,3.33595 c -10.41876,21.85249 -55.30395,111.71104 -65.93853,132.00657 -7.38949,14.10245 -11.08641,19.14163 -11.68849,15.93228 z"
           id="path21" />
      </g>
      <path
         style="fill:#dcdcdc"
         d="m 557.75,793.33772 c 0.6875,-0.27741 1.8125,-0.27741 2.5,0 0.6875,0.27741 0.125,0.50439 -1.25,0.50439 -1.375,0 -1.9375,-0.22698 -1.25,-0.50439 z m 6,0 c 0.6875,-0.27741 1.8125,-0.27741 2.5,0 0.6875,0.27741 0.125,0.50439 -1.25,0.50439 -1.375,0 -1.9375,-0.22698 -1.25,-0.50439 z M 321,782.06287 c -3.11972,-0.9549 -11.8314,-5.40215 -14.49843,-7.40134 -2.57579,-1.9308 -1.92584,-2.47946 5.11528,-4.31816 14.31082,-3.73707 23.50361,-10.04829 32.0201,-21.98309 8.95846,-12.55415 13.41096,-25.77567 18.95097,-56.2741 5.09835,-28.06704 8.93822,-43.39113 12.97687,-51.78782 4.53462,-9.42786 16.71487,-25.59031 24.70034,-32.77586 5.94854,-5.35266 18.59621,-12.5225 22.0898,-12.5225 2.82263,0 1.8046,3.47504 -1.60493,5.47846 -5.68727,3.34181 -13.70254,11.67319 -18.24178,18.96122 -9.72588,15.61552 -16.78589,39.00881 -24.46368,81.06032 -7.08779,38.82007 -13.39461,62.5 -16.64599,62.5 -0.78111,0 -1.40238,0.99334 -1.40722,2.25 -0.009,2.34379 -4.79787,7.99265 -10.2947,12.14354 -6.1586,4.65061 -20.91398,7.05151 -28.69663,4.66933 z m 228.17412,-2.13372 c -3.37992,-1.68897 -7.51579,-4.72647 -9.19081,-6.75 -3.01999,-3.64835 -3.02866,-3.69291 -1.03477,-5.32295 1.1059,-0.90409 5.05739,-2.17341 8.78109,-2.82072 22.14032,-3.84874 43.07436,-23.9932 58.75142,-56.53548 14.47298,-30.04285 24.04236,-63.19228 38.53799,-133.5 8.08825,-39.23018 12.49831,-57.36626 23.95176,-98.5 19.65346,-70.58309 21.49054,-82.59265 21.49202,-140.5 0.001,-42.90392 -0.52579,-48.08991 -7.0947,-69.82997 C 674.76213,237.68816 664.88538,215.4536 654.86332,202 646.0318,190.14458 628.17694,172.6872 617.22038,165.19507 612.14917,161.72735 608,158.48069 608,157.98025 c 0,-0.50044 0.93018,-1.4077 2.06706,-2.01614 1.61504,-0.86434 2.61675,-0.74608 4.58079,0.54081 1.38255,0.90588 3.15237,1.40198 3.93294,1.10245 0.78056,-0.29953 1.41921,-0.0712 1.41921,0.50735 0,0.57857 0.55848,0.86579 1.24107,0.63826 0.68259,-0.22753 1.86561,0.21085 2.62894,0.97417 0.76333,0.76333 2.02822,1.14215 2.81087,0.84181 0.78825,-0.30248 1.15047,-0.1051 0.81204,0.44249 -0.55818,0.90316 1.04463,1.3765 4.25708,1.2572 0.6875,-0.0255 1.25,0.38013 1.25,0.90148 0,0.52135 0.41157,0.69354 0.91459,0.38266 0.50302,-0.31089 1.06552,-0.16782 1.25,0.31793 0.54417,1.43289 14.52503,8.09922 15.37653,7.33182 0.42874,-0.3864 0.40856,-0.0636 -0.0448,0.7174 -0.61943,1.06694 -0.39777,1.25624 0.89161,0.76145 1.01928,-0.39113 1.46793,-0.25712 1.10503,0.33006 -0.53511,0.86583 -0.13967,1.05466 2.02651,0.9677 0.28568,-0.0115 1.49554,0.88853 2.68856,2 1.19302,1.11147 2.75928,2.02085 3.48057,2.02085 0.72129,0 1.31144,0.45 1.31144,1 0,0.55 0.47158,1 1.04797,1 0.57638,0 2.18768,1.2375 3.58067,2.75 1.39299,1.5125 2.1978,2.075 1.78847,1.25 -0.40933,-0.825 0.40065,-0.375 1.79995,1 1.39931,1.375 3.76612,3.3411 5.25959,4.36911 2.14033,1.47328 2.62584,2.47921 2.29256,4.75 -0.3694,2.51687 -0.0972,2.89585 2.15398,2.99931 1.41725,0.0651 2.90908,0.0669 3.31519,0.004 1.44129,-0.2236 5.82197,7.55686 5.18677,9.21215 -0.39372,1.02602 -0.027,1.88112 0.9711,2.26411 0.88206,0.33848 1.60375,1.46727 1.60375,2.50843 0,1.70901 2.19909,2.52955 5.32433,1.98665 0.45338,-0.0787 0.57979,0.25248 0.2809,0.73609 -0.29888,0.4836 0.84912,2.40725 2.55112,4.27478 4.20386,4.61268 17.03926,30.74994 16.52253,33.64549 -0.22085,1.2375 -0.003,2.25 0.48454,2.25 2.10225,0 8.00734,22.20775 11.03494,41.5 1.89347,12.06543 2.19889,18.07642 2.21027,43.5 0.0115,25.72697 -0.26806,31.20348 -2.18592,42.81889 -4.50409,27.27885 -11.10219,53.1001 -25.62756,100.29198 -4.63662,15.06402 -9.8265,32.33913 -11.53307,38.38913 -1.70657,6.05 -3.55892,11.8058 -4.11634,12.79068 -0.55742,0.98487 -0.70372,2.2919 -0.32511,2.90451 0.38065,0.61589 0.23964,0.83649 -0.31541,0.49345 -2.01805,-1.24723 -2.97581,2.36261 -5.78699,21.81136 -1.0536,7.28918 -14.35458,63.56336 -19.49972,82.5 -16.12674,59.35428 -33.82378,96.41769 -57.48143,120.38501 C 587.15308,776.97037 576.0186,783 562.62221,783 c -6.15084,0 -8.27212,-0.48439 -13.44809,-3.07085 z M 285.45295,771.75 281.5,767.5 l 4.25,3.95295 c 2.3375,2.17412 4.25,4.08662 4.25,4.25 0,0.75658 -0.87085,-4.9e-4 -4.54705,-3.95295 z M 614,766.62244 c 0,-0.20765 0.7875,-0.99515 1.75,-1.75 1.58606,-1.24387 1.62143,-1.2085 0.37756,0.37756 C 614.82119,766.91575 614,767.44548 614,766.62244 Z M 169.8125,647.31689 c 0.72187,-0.28887 1.58437,-0.25335 1.91667,0.0789 0.33229,0.33229 -0.25834,0.56864 -1.3125,0.52522 -1.16495,-0.048 -1.4019,-0.28494 -0.60417,-0.60416 z M 161.87244,632.25 c -1.24387,-1.58606 -1.2085,-1.62143 0.37756,-0.37756 0.9625,0.75485 1.75,1.54235 1.75,1.75 0,0.82304 -0.82119,0.29331 -2.12756,-1.37244 z m -53.60341,-6.94299 c 0.97297,-0.25354 2.32297,-0.23687 3,0.0371 0.67703,0.27393 -0.11903,0.48137 -1.76903,0.46099 -1.65,-0.0204 -2.20394,-0.2445 -1.23097,-0.49804 z M 207.5,624 c 0.99549,-1.1 2.03498,-2 2.30998,-2 0.275,0 -0.31449,0.9 -1.30998,2 -0.99549,1.1 -2.03498,2 -2.30998,2 -0.275,0 0.31449,-0.9 1.30998,-2 z m 212,-8 c 0.99549,-1.1 2.03498,-2 2.30998,-2 0.275,0 -0.31449,0.9 -1.30998,2 -0.99549,1.1 -2.03498,2 -2.30998,2 -0.275,0 0.31449,-0.9 1.30998,-2 z m -263.42105,-1.58333 c 0.048,-1.16495 0.28494,-1.4019 0.60416,-0.60417 0.28887,0.72187 0.25335,1.58438 -0.0789,1.91667 -0.3323,0.33229 -0.56864,-0.25834 -0.52522,-1.3125 z M 99.75,614.33772 c 0.6875,-0.27741 1.8125,-0.27741 2.5,0 0.6875,0.27741 0.125,0.50439 -1.25,0.50439 -1.375,0 -1.9375,-0.22698 -1.25,-0.50439 z m 12,0 c 0.6875,-0.27741 1.8125,-0.27741 2.5,0 0.6875,0.27741 0.125,0.50439 -1.25,0.50439 -1.375,0 -1.9375,-0.22698 -1.25,-0.50439 z m 7.01845,-0.50617 c 0.5811,-0.5811 1.64682,-0.85979 2.36826,-0.61931 0.74895,0.24965 0.29565,0.70294 -1.05655,1.05655 -1.66335,0.43497 -2.05378,0.30483 -1.31171,-0.43724 z m -24.210813,-0.73829 c -0.308218,-0.49871 0.340224,-0.67122 1.440983,-0.38337 2.334987,0.61061 2.630147,1.29011 0.560397,1.29011 -0.792541,0 -1.693162,-0.40803 -2.00138,-0.90674 z M 124,613 c 0,-0.55 0.47656,-1 1.05902,-1 0.58246,0 0.7809,0.45 0.44098,1 -0.33992,0.55 -0.81648,1 -1.05902,1 C 124.19844,614 124,613.55 124,613 Z m -33.018999,-1.52289 c -1.056784,-1.27335 -0.994917,-1.41968 0.377555,-0.89301 C 92.26135,610.93053 93,611.61583 93,612.10699 c 0,1.28596 -0.578873,1.10536 -2.018999,-0.62988 z M 156.19495,607.5 c 0.0204,-1.65 0.2445,-2.20394 0.49804,-1.23097 0.25354,0.97297 0.23687,2.32297 -0.0371,3 -0.27393,0.67703 -0.48137,-0.11903 -0.46099,-1.76903 z M 136,606.5 c 1.29175,-1.375 2.57363,-2.5 2.84863,-2.5 0.275,0 -0.55688,1.125 -1.84863,2.5 -1.29175,1.375 -2.57363,2.5 -2.84863,2.5 -0.275,0 0.55688,-1.125 1.84863,-2.5 z M 81.75,604.42835 C 79.6875,602.47348 78,600.58606 78,600.23407 c 0,-0.35198 1.8,1.11769 4,3.26593 3.659043,3.57296 4.445988,4.51547 3.75,4.49133 -0.1375,-0.005 -1.9375,-1.60811 -4,-3.56298 z m 365,-1.09063 c 0.6875,-0.27741 1.8125,-0.27741 2.5,0 0.6875,0.27741 0.125,0.50439 -1.25,0.50439 -1.375,0 -1.9375,-0.22698 -1.25,-0.50439 z M 75.252183,588.5 c 0.0111,-2.2 0.215885,-2.98225 0.455078,-1.73834 0.239193,1.24391 0.230112,3.04391 -0.02018,4 C 75.436788,591.71775 75.241084,590.7 75.252183,588.5 Z M 91.5,558 c 3.265566,-3.3 6.162393,-6 6.437393,-6 0.275,0 -2.171827,2.7 -5.437393,6 -3.265566,3.3 -6.162393,6 -6.437393,6 -0.275,0 2.171827,-2.7 5.437393,-6 z m 62.95888,0.93347 c -0.36253,-0.58659 -0.44468,-1.281 -0.18255,-1.54313 0.26212,-0.26213 0.74306,0.21781 1.06875,1.06653 0.67618,1.76211 0.0999,2.07206 -0.8862,0.4766 z M 90.5,556 c 0.995486,-1.1 2.034975,-2 2.309975,-2 0.275,0 -0.314489,0.9 -1.309975,2 -0.995486,1.1 -2.034975,2 -2.309975,2 -0.275,0 0.314489,-0.9 1.309975,-2 z M 761,528.62244 c 0,-0.20765 0.7875,-0.99515 1.75,-1.75 1.58606,-1.24387 1.62143,-1.2085 0.37756,0.37756 C 761.82119,528.91575 761,529.44548 761,528.62244 Z M 164.77643,505.2665 c 2.35204,-0.21124 5.95204,-0.20827 8,0.007 2.04796,0.21487 0.12357,0.38771 -4.27643,0.38408 -4.4,-0.004 -6.07561,-0.17944 -3.72357,-0.39069 z M 152.25,504.31067 c 0.9625,-0.25152 2.5375,-0.25152 3.5,0 0.9625,0.25153 0.175,0.45733 -1.75,0.45733 -1.925,0 -2.7125,-0.2058 -1.75,-0.45733 z m -7.4375,-0.99378 c 0.72187,-0.28887 1.58437,-0.25335 1.91667,0.0789 0.33229,0.33229 -0.25834,0.56864 -1.3125,0.52522 -1.16495,-0.048 -1.4019,-0.28494 -0.60417,-0.60416 z m -7,-1 c 0.72187,-0.28887 1.58437,-0.25335 1.91667,0.0789 0.33229,0.33229 -0.25834,0.56864 -1.3125,0.52522 -1.16495,-0.048 -1.4019,-0.28494 -0.60417,-0.60416 z M 780,498.5 c 1.86578,-1.925 3.61733,-3.5 3.89233,-3.5 0.275,0 -1.02655,1.575 -2.89233,3.5 -1.86578,1.925 -3.61733,3.5 -3.89233,3.5 -0.275,0 1.02655,-1.575 2.89233,-3.5 z m -598.80505,-1 c 0.0204,-1.65 0.2445,-2.20394 0.49804,-1.23097 0.25354,0.97297 0.23687,2.32297 -0.0371,3 -0.27393,0.67703 -0.48137,-0.11903 -0.46099,-1.76903 z M 91.5,491.53611 c -3.86206,-1.7684 -2.065699,-1.79435 2.5,-0.0361 1.925,0.74131 2.825,1.36178 2,1.37882 -0.825,0.017 -2.85,-0.58718 -4.5,-1.34271 z m 88.57895,-2.11944 c 0.048,-1.16495 0.28494,-1.4019 0.60416,-0.60417 0.28887,0.72187 0.25335,1.58438 -0.0789,1.91667 -0.3323,0.33229 -0.56864,-0.25834 -0.52522,-1.3125 z m -94.571871,-0.40522 c -0.350339,-0.56686 0.05106,-0.7345 0.940983,-0.39301 1.732417,0.66479 2.049387,1.38156 0.610955,1.38156 -0.517541,0 -1.215913,-0.44485 -1.551938,-0.98855 z M 79,486.5 c -1.375,-0.78602 -2.05,-1.42913 -1.5,-1.42913 0.55,0 2.125,0.64311 3.5,1.42913 1.375,0.78602 2.05,1.42913 1.5,1.42913 -0.55,0 -2.125,-0.64311 -3.5,-1.42913 z m -9.25,-4.06573 C 67.1375,481.07434 65,479.73771 65,479.46399 c 0,-0.44638 9.899728,4.2296 10.916667,5.15631 1.238104,1.12826 -2.015323,-0.025 -6.166667,-2.18603 z m 109.32895,-0.0176 c 0.048,-1.16495 0.28494,-1.4019 0.60416,-0.60417 0.28887,0.72187 0.25335,1.58438 -0.0789,1.91667 -0.3323,0.33229 -0.56864,-0.25834 -0.52522,-1.3125 z M 51.655064,471.37635 c -5.357606,-3.643 -9.494969,-6.86978 -9.19414,-7.17061 0.300829,-0.30083 1.557688,0.38145 2.793019,1.51618 1.235331,1.13473 5.791294,4.3615 10.124362,7.17061 4.333068,2.80911 7.459705,5.10747 6.948083,5.10747 -0.511623,0 -5.313718,-2.98064 -10.671324,-6.62365 z m 126.423886,5.04032 c 0.048,-1.16495 0.28494,-1.4019 0.60416,-0.60417 0.28887,0.72187 0.25335,1.58438 -0.0789,1.91667 -0.3323,0.33229 -0.56864,-0.25834 -0.52522,-1.3125 z m 93.73355,-1.09978 c 0.72187,-0.28887 1.58438,-0.25335 1.91667,0.0789 0.33229,0.33229 -0.25834,0.56864 -1.3125,0.52522 -1.16495,-0.048 -1.4019,-0.28494 -0.60417,-0.60416 z M 177,471 c 0,-1.1 0.17252,-2 0.38337,-2 0.21085,0 0.61872,0.9 0.90638,2 0.28766,1.1 0.11514,2 -0.38337,2 C 177.40787,473 177,472.1 177,471 Z M 36.278384,459.50629 c -2.244887,-1.92154 -5.970536,-5.85904 -8.27922,-8.75 L 23.801556,445.5 27.949962,450 c 2.281623,2.475 6.263773,6.39521 8.849222,8.71158 5.668828,5.07884 5.243136,5.72843 -0.5208,0.79471 z M 19.977976,440.30422 c -1.637887,-2.58268 -2.972556,-5.17018 -2.965931,-5.75 0.0066,-0.57982 1.168447,0.96904 2.581827,3.44191 1.41338,2.47287 3.038059,5.06037 3.610399,5.75 0.57234,0.68963 0.750607,1.25387 0.39615,1.25387 -0.354458,0 -1.984558,-2.1131 -3.622445,-4.69578 z M 12.5,424 c -0.339919,-0.55 -0.141476,-1 0.440983,-1 C 13.523442,423 14,423.45 14,424 c 0,0.55 -0.198442,1 -0.440983,1 -0.242541,0 -0.719098,-0.45 -1.059017,-1 z m 151.23121,-1.91984 c -0.43497,-1.66335 -0.30483,-2.05378 0.43724,-1.31171 0.5811,0.5811 0.85979,1.64682 0.61931,2.36826 -0.24965,0.74895 -0.70294,0.29565 -1.05655,-1.05655 z M 11.6,419.4 c -0.355892,-0.92744 -0.422077,-1.91126 -0.147077,-2.18626 0.275,-0.275 0.791185,0.25882 1.147077,1.18626 0.355892,0.92744 0.422077,1.91126 0.147077,2.18626 -0.275,0.275 -0.791185,-0.25882 -1.147077,-1.18626 z M 11.336206,407 c 0,-4.125 0.176518,-5.8125 0.392262,-3.75 0.215745,2.0625 0.215745,5.4375 0,7.5 -0.215744,2.0625 -0.392262,0.375 -0.392262,-3.75 z m 498.858744,4.5 c 0.0204,-1.65 0.2445,-2.20394 0.49804,-1.23097 0.25354,0.97297 0.23687,2.32297 -0.0371,3 -0.27393,0.67703 -0.48137,-0.11903 -0.46099,-1.76903 z m -356.58986,-6.39031 c -2.11907,-2.21184 -2.45641,-3.07105 -1.43709,-3.66032 0.7326,-0.42351 0.9882,-0.39157 0.568,0.071 -0.4202,0.46255 0.45149,2.10969 1.93709,3.66033 1.4856,1.55063 2.47609,2.81933 2.20109,2.81933 -0.275,0 -1.74609,-1.30064 -3.26909,-2.89031 z m -6.00208,-4.94302 c -0.28327,-0.45834 0.12038,-0.83334 0.89699,-0.83334 0.77661,0 1.18026,0.375 0.89699,0.83334 C 149.11373,400.625 148.71008,401 148.5,401 c -0.21008,0 -0.61373,-0.375 -0.89699,-0.83333 z M 304.87244,398.25 c -1.24387,-1.58606 -1.2085,-1.62143 0.37756,-0.37756 1.66575,1.30637 2.19548,2.12756 1.37244,2.12756 -0.20765,0 -0.99515,-0.7875 -1.75,-1.75 z m 300.94006,1.06689 c 0.72187,-0.28887 1.58438,-0.25335 1.91667,0.0789 0.33229,0.33229 -0.25834,0.56864 -1.3125,0.52522 -1.16495,-0.048 -1.4019,-0.28494 -0.60417,-0.60416 z M 364.87244,395.25 c -1.24387,-1.58606 -1.2085,-1.62143 0.37756,-0.37756 1.66575,1.30637 2.19548,2.12756 1.37244,2.12756 -0.20765,0 -0.99515,-0.7875 -1.75,-1.75 z M 11.638374,394.5 C 11.321791,393.675 11.498646,393 12.031385,393 12.564123,393 13,393.675 13,394.5 c 0,0.825 -0.176855,1.5 -0.393011,1.5 -0.216156,0 -0.652033,-0.675 -0.968615,-1.5 z m 552.234066,-0.25 c -1.24387,-1.58606 -1.2085,-1.62143 0.37756,-0.37756 1.66575,1.30637 2.19548,2.12756 1.37244,2.12756 -0.20765,0 -0.99515,-0.7875 -1.75,-1.75 z m -203,-3 c -1.24387,-1.58606 -1.2085,-1.62143 0.37756,-0.37756 1.66575,1.30637 2.19548,2.12756 1.37244,2.12756 -0.20765,0 -0.99515,-0.7875 -1.75,-1.75 z M 599,389.62244 c 0,-0.20765 0.7875,-0.99515 1.75,-1.75 1.58606,-1.24387 1.62143,-1.2085 0.37756,0.37756 C 599.82119,389.91575 599,390.44548 599,389.62244 Z m -16.1875,-1.30555 c 0.72187,-0.28887 1.58438,-0.25335 1.91667,0.0789 0.33229,0.33229 -0.25834,0.56864 -1.3125,0.52522 -1.16495,-0.048 -1.4019,-0.28494 -0.60417,-0.60416 z M 524,380.5 c 1.29175,-1.375 2.57363,-2.5 2.84863,-2.5 0.275,0 -0.55688,1.125 -1.84863,2.5 -1.29175,1.375 -2.57363,2.5 -2.84863,2.5 -0.275,0 0.55688,-1.125 1.84863,-2.5 z M 19.375399,377.648 c 0.286459,-1.95177 1.410464,-3.148 2.957934,-3.148 0.641667,0 1.166667,-0.525 1.166667,-1.16667 0,-0.64166 0.2625,-1.42916 0.583333,-1.75 0.320834,-0.32083 0.583334,0.0793 0.583334,0.88926 0,0.80992 -1.243046,2.66349 -2.762324,4.11906 -1.933987,1.85287 -2.69234,2.16964 -2.528944,1.05635 z M 11,369.68709 c 0,-0.1721 1.4625,-1.6346 3.25,-3.25 L 17.5,363.5 14.562909,366.75 C 11.825128,369.77946 11,370.45965 11,369.68709 Z M 740.15789,366 c 0,-1.375 0.22698,-1.9375 0.50439,-1.25 0.27741,0.6875 0.27741,1.8125 0,2.5 -0.27741,0.6875 -0.50439,0.125 -0.50439,-1.25 z M 71.8125,366.31689 c 0.721875,-0.28887 1.584375,-0.25335 1.916667,0.0789 0.332291,0.33229 -0.258334,0.56864 -1.3125,0.52522 -1.164943,-0.048 -1.4019,-0.28494 -0.604167,-0.60416 z m -24.543468,-1.00988 c 0.972967,-0.25354 2.322967,-0.23687 3,0.0371 0.677032,0.27393 -0.119032,0.48137 -1.769032,0.46099 -1.65,-0.0204 -2.203936,-0.2445 -1.230968,-0.49804 z M 60.75,365.29427 c 1.2375,-0.23836 3.2625,-0.23836 4.5,0 1.2375,0.23835 0.225,0.43337 -2.25,0.43337 -2.475,0 -3.4875,-0.19502 -2.25,-0.43337 z m 739.32895,-5.8776 c 0.048,-1.16495 0.28494,-1.4019 0.60416,-0.60417 0.28887,0.72187 0.25335,1.58438 -0.0789,1.91667 -0.33229,0.33229 -0.56864,-0.25834 -0.52522,-1.3125 z M 164.19495,350.5 c 0.0204,-1.65 0.2445,-2.20394 0.49804,-1.23097 0.25354,0.97297 0.23687,2.32297 -0.0371,3 -0.27393,0.67703 -0.48137,-0.11903 -0.46099,-1.76903 z m 0.0572,-24 c 0.0111,-2.2 0.21589,-2.98225 0.45508,-1.73834 0.23919,1.24391 0.23011,3.04391 -0.0202,4 -0.25029,0.95609 -0.446,-0.0617 -0.4349,-2.26166 z m -10.17323,-8.08333 c 0.048,-1.16495 0.28494,-1.4019 0.60416,-0.60417 0.28887,0.72187 0.25335,1.58438 -0.0789,1.91667 -0.3323,0.33229 -0.56864,-0.25834 -0.52522,-1.3125 z M 863.27236,316 c 0,-2.475 0.19502,-3.4875 0.43337,-2.25 0.23836,1.2375 0.23836,3.2625 0,4.5 -0.23835,1.2375 -0.43337,0.225 -0.43337,-2.25 z M 740.15789,305 c 0,-1.375 0.22698,-1.9375 0.50439,-1.25 0.27741,0.6875 0.27741,1.8125 0,2.5 -0.27741,0.6875 -0.50439,0.125 -0.50439,-1.25 z M 208,201.62244 c 0,-0.20765 0.7875,-0.99515 1.75,-1.75 1.58606,-1.24387 1.62143,-1.2085 0.37756,0.37756 C 208.82119,201.91575 208,202.44548 208,201.62244 Z m -7,-9 c 0,-0.20765 0.7875,-0.99515 1.75,-1.75 1.58606,-1.24387 1.62143,-1.2085 0.37756,0.37756 C 201.82119,192.91575 201,193.44548 201,192.62244 Z M 687.45295,185.75 683.5,181.5 l 4.25,3.95295 c 3.95246,3.6762 4.70953,4.54705 3.95295,4.54705 -0.16338,0 -2.07588,-1.9125 -4.25,-4.25 z M 221,188.62244 c 0,-0.20765 0.7875,-0.99515 1.75,-1.75 1.58606,-1.24387 1.62143,-1.2085 0.37756,0.37756 C 221.82119,188.91575 221,189.44548 221,188.62244 Z m 186.8125,-0.30555 c 0.72187,-0.28887 1.58438,-0.25335 1.91667,0.0789 0.33229,0.33229 -0.25834,0.56864 -1.3125,0.52522 -1.16495,-0.048 -1.4019,-0.28494 -0.60417,-0.60416 z m -14,-4 c 0.72187,-0.28887 1.58438,-0.25335 1.91667,0.0789 0.33229,0.33229 -0.25834,0.56864 -1.3125,0.52522 -1.16495,-0.048 -1.4019,-0.28494 -0.60417,-0.60416 z M 211,182.62244 c 0,-0.20765 0.7875,-0.99515 1.75,-1.75 1.58606,-1.24387 1.62143,-1.2085 0.37756,0.37756 C 211.82119,182.91575 211,183.44548 211,182.62244 Z m 215.8125,-27.30555 c 0.72187,-0.28887 1.58438,-0.25335 1.91667,0.0789 0.33229,0.33229 -0.25834,0.56864 -1.3125,0.52522 -1.16495,-0.048 -1.4019,-0.28494 -0.60417,-0.60416 z m 45,0 c 0.72187,-0.28887 1.58438,-0.25335 1.91667,0.0789 0.33229,0.33229 -0.25834,0.56864 -1.3125,0.52522 -1.16495,-0.048 -1.4019,-0.28494 -0.60417,-0.60416 z m 86,-4 c 0.72187,-0.28887 1.58438,-0.25335 1.91667,0.0789 0.33229,0.33229 -0.25834,0.56864 -1.3125,0.52522 -1.16495,-0.048 -1.4019,-0.28494 -0.60417,-0.60416 z M 426.75,123.2766 c 1.7875,-0.22182 4.7125,-0.22182 6.5,0 1.7875,0.22183 0.325,0.40333 -3.25,0.40333 -3.575,0 -5.0375,-0.1815 -3.25,-0.40333 z m 14.02643,-0.0101 c 2.35204,-0.21124 5.95204,-0.20827 8,0.007 2.04796,0.21487 0.12357,0.38771 -4.27643,0.38408 -4.4,-0.004 -6.07561,-0.17944 -3.72357,-0.39069 z m 35.03607,-0.94961 c 0.72187,-0.28887 1.58438,-0.25335 1.91667,0.0789 0.33229,0.3323 -0.25834,0.56864 -1.3125,0.52522 -1.16495,-0.048 -1.4019,-0.28494 -0.60417,-0.60416 z M 496,36.622445 c 0,-0.207656 0.7875,-0.995156 1.75,-1.75 1.58606,-1.243871 1.62143,-1.208501 0.37756,0.377555 C 496.82119,36.915748 496,37.445479 496,36.622445 Z M 374.15789,31 c 0,-1.375 0.22698,-1.9375 0.50439,-1.25 0.27741,0.6875 0.27741,1.8125 0,2.5 -0.27741,0.6875 -0.50439,0.125 -0.50439,-1.25 z M 447.87244,1.25 C 446.62857,-0.33605562 446.66394,-0.37142595 448.25,0.87244472 449.91575,2.1788145 450.44548,3 449.62244,3 c -0.20765,0 -0.99515,-0.7875 -1.75,-1.75 z"
         id="path15" />
      <path
         style="fill:#d3d3d3"
         d="m 561.8125,783.31689 c 0.72187,-0.28887 1.58438,-0.25335 1.91667,0.0789 0.33229,0.33229 -0.25834,0.56864 -1.3125,0.52522 -1.16495,-0.048 -1.4019,-0.28494 -0.60417,-0.60416 z M 99.745923,613.96697 C 93.021608,612.28787 86.415049,608.23455 81.324892,602.66511 76.06583,596.91085 75.986007,596.68934 76.040266,588 76.139999,572.0284 94.912833,551.07097 120.70543,538.13715 132.92721,532.00848 163.99192,520 167.62439,520 c 0.85373,0 -1.05409,5.87726 -5.77887,17.80238 -6.38661,16.11951 -11.82769,31.98968 -15.83885,46.19762 -5.73652,20.31936 -9.83714,25.67901 -21.68043,28.33705 -9.16892,2.05782 -19.99248,2.77553 -24.580317,1.62992 z M 158.16624,504.87113 c -0.92706,-0.34588 -5.05621,-0.87361 -9.1759,-1.17275 -4.11969,-0.29914 -8.16534,-0.77373 -8.99034,-1.05466 -0.825,-0.28093 -3.525,-0.74866 -6,-1.03941 -2.475,-0.29074 -5.4,-0.73136 -6.5,-0.97915 -1.1,-0.24778 -5.30896,-1.21145 -9.35325,-2.14148 -4.04429,-0.93002 -7.86929,-1.80135 -8.5,-1.93628 -0.63071,-0.13492 -1.82175,-0.49339 -2.64675,-0.79659 -0.825,-0.3032 -6.38618,-2.19048 -12.358183,-4.19396 C 59.938149,479.91451 30.250912,458.23007 18.561882,435.98581 13.332316,426.03393 11.711719,417.79162 12.272854,404 12.86876,389.35378 14.64676,384.39556 22,376.87441 c 9.173721,-9.3832 22.697397,-12.78901 43.130823,-10.86207 13.735136,1.29526 20.678116,3.48121 40.369177,12.70994 43.69504,20.47881 48.72139,23.91891 55.70155,38.12287 2.36415,4.81082 4.45409,9.40122 4.64431,10.2009 0.19022,0.79967 2.58316,9.55395 5.31765,19.45395 2.73448,9.9 5.14267,19.125 5.35152,20.5 0.20885,1.375 1.29498,7.78292 2.41362,14.23983 2.19407,12.66435 2.82959,21.33288 1.65088,22.51796 -0.96617,0.97139 -20.2291,1.92824 -22.41329,1.11334 z"
         id="path14" />
      <path
         style="fill:#c1c1c1"
         d="m 107.75,615.33772 c 0.6875,-0.27741 1.8125,-0.27741 2.5,0 0.6875,0.27741 0.125,0.50439 -1.25,0.50439 -1.375,0 -1.9375,-0.22698 -1.25,-0.50439 z M 581.25116,481.52722 C 568.77869,478.7306 559,471.21055 559,464.41554 c 0,-6.35968 3.83683,-11.35087 11.79788,-15.34744 8.56839,-4.30146 32.91914,-3.76494 45.67136,1.00628 5.34238,1.99883 11.83212,7.82293 12.98125,11.64977 1.76277,5.87035 -6.96871,14.70036 -17.95049,18.15305 -8.38972,2.63774 -22.42848,3.40353 -30.24884,1.65002 z m -322.41479,-8.38836 c -16.85416,-5.56182 -22.6227,-15.8352 -14.15458,-25.2084 6.87799,-7.61311 9.58619,-8.43245 27.81821,-8.41616 12.18066,0.0109 17.3129,0.41902 21.5,1.70977 7.80277,2.40535 14.32547,6.8347 16.35116,11.10352 1.50804,3.17796 1.54396,3.98767 0.30807,6.94557 -1.89529,4.53605 -8.80918,10.24901 -15.57988,12.87368 -8.03276,3.11391 -28.14477,3.6644 -36.24298,0.99202 z M 863.19495,309.5 c 0.0204,-1.65 0.2445,-2.20394 0.49804,-1.23097 0.25354,0.97297 0.23687,2.32297 -0.0371,3 -0.27393,0.67703 -0.48137,-0.11903 -0.46099,-1.76903 z M 189.232,306 c 0,-1.925 0.2058,-2.7125 0.45733,-1.75 0.25152,0.9625 0.25152,2.5375 0,3.5 -0.25153,0.9625 -0.45733,0.175 -0.45733,-1.75 z m 14.96295,-0.5 c 0.0204,-1.65 0.2445,-2.20394 0.49804,-1.23097 0.25354,0.97297 0.23687,2.32297 -0.0371,3 -0.27393,0.67703 -0.48137,-0.11903 -0.46099,-1.76903 z M 198.232,271 c 0,-1.925 0.2058,-2.7125 0.45733,-1.75 0.25152,0.9625 0.25152,2.5375 0,3.5 -0.25153,0.9625 -0.45733,0.175 -0.45733,-1.75 z M 246,220.5 c 1.29175,-1.375 2.57363,-2.5 2.84863,-2.5 0.275,0 -0.55688,1.125 -1.84863,2.5 -1.29175,1.375 -2.57363,2.5 -2.84863,2.5 -0.275,0 0.55688,-1.125 1.84863,-2.5 z m -22,-0.87756 c 0,-0.20765 0.7875,-0.99515 1.75,-1.75 1.58606,-1.24387 1.62143,-1.2085 0.37756,0.37756 C 224.82119,219.91575 224,220.44548 224,219.62244 Z m 57.07895,-33.20577 c 0.048,-1.16495 0.28494,-1.4019 0.60416,-0.60417 0.28887,0.72187 0.25335,1.58437 -0.0789,1.91667 -0.33229,0.33229 -0.56864,-0.25834 -0.52522,-1.3125 z M 405.87244,61.25 C 404.62857,59.663944 404.66394,59.628574 406.25,60.872445 407.91575,62.178814 408.44548,63 407.62244,63 c -0.20765,0 -0.99515,-0.7875 -1.75,-1.75 z M 500.15789,58 c 0,-1.375 0.22698,-1.9375 0.50439,-1.25 0.27741,0.6875 0.27741,1.8125 0,2.5 -0.27741,0.6875 -0.50439,0.125 -0.50439,-1.25 z m -39.5936,-4.706872 c -0.54268,-1.425198 -0.42782,-1.540062 0.5598,-0.559795 0.68342,0.678334 0.99067,1.485241 0.68278,1.793128 -0.30789,0.307888 -0.86705,-0.247112 -1.24258,-1.233333 z M 394.40499,51.75 392.5,49.5 l 2.25,1.904988 c 1.2375,1.047743 2.25,2.060243 2.25,2.25 0,0.800253 -0.80479,0.209457 -2.59501,-1.904988 z"
         id="path13" />
      <path
         style="fill:#b4b4b4"
         d="m 845.00373,367.50553 c -7.15579,-10.60443 -8.05078,-11.04996 -21.68747,-10.79626 -6.18672,0.1151 -11.50961,-0.2131 -11.82866,-0.72933 -0.8221,-1.33019 0.56722,-3.60578 7.82798,-12.82151 l 6.38735,-8.10715 -3.22418,-9.27564 c -1.77329,-5.1016 -3.53968,-10.72661 -3.92529,-12.50003 l -0.70112,-3.22439 4.82383,1.50926 c 2.65311,0.83009 8.48811,2.47178 12.96667,3.64821 l 8.14284,2.13895 8.75365,-6.26142 c 10.78954,-7.71768 11.96441,-8.2439 11.16464,-5.00064 -1.48875,6.03731 -1.93055,17.95319 -0.76957,20.75606 0.70966,1.71326 4.359,5.20828 8.88495,8.50924 12.28883,8.9627 11.89324,8.58634 10.17578,9.68129 -0.82232,0.52425 -5.17693,2.08659 -9.67691,3.47185 -10.14952,3.1244 -13.52566,6.63793 -17.67785,18.39728 -1.5728,4.45428 -3.24659,8.0987 -3.71953,8.0987 -0.47294,0 -3.13564,-3.37251 -5.91711,-7.49447 z M 191.5567,313.77749 c -3.41657,-4.87784 -0.97687,-18.87458 3.5398,-20.30812 5.24254,-1.66391 8.9035,3.49394 8.9035,12.54397 0,4.05767 -0.49303,5.5706 -2.45455,7.53211 -3.17158,3.17159 -7.85362,3.28036 -9.98875,0.23204 z m 9.66581,-36.33419 c -2.71482,-1.90153 -3.01615,-8.40781 -0.7438,-16.05966 2.19103,-7.378 10.64624,-23.42774 17.23235,-32.7106 8.37876,-11.80952 26.28375,-29.41054 34.11887,-33.53965 6.75035,-3.55744 11.99745,-4.35147 14.58182,-2.20663 3.9699,3.29472 0.76594,9.01259 -10.65205,19.00994 -18.84839,16.50324 -32.27858,35.07599 -40.69422,56.27647 -3.90359,9.83383 -8.55405,12.93463 -13.84297,9.23013 z M 283.25,190.89737 c -0.6875,-0.71355 -1.25,-3.04199 -1.25,-5.17429 0,-5.78048 3.75823,-9.05289 12.74408,-11.09668 8.13141,-1.84945 17.46334,-2.12094 20.32166,-0.59122 2.83367,1.51654 2.57953,7.00999 -0.45623,9.86194 -5.07275,4.7656 -28.47855,9.99038 -31.35951,7.00025 z m 136.60099,-77.97634 c -6.40696,-0.43426 -13.41632,-1.26544 -15.57636,-1.84708 -4.58919,-1.23574 -3.89817,0.88898 -10.75651,-33.07395 -4.81518,-23.845082 -6.01424,-31 -5.19517,-31 0.30253,0 4.29112,3.227931 8.86355,7.173181 C 406.68086,62.365245 416.48094,69 419.08694,69 c 2.5902,0 5.19502,-4.181167 13.56461,-21.773456 C 443.74779,23.90304 445.24484,21 446.17613,21 c 0.97706,0 4.74609,8.142107 8.79521,19 1.5383,4.125 5.11322,12.107484 7.94428,17.738854 5.97345,11.882019 7.53414,12.896131 13.77942,8.953656 2.1518,-1.35837 8.30374,-6.119881 13.67097,-10.581137 C 495.73324,51.650118 500.37445,48 500.6798,48 c 1.05963,0 -0.8491,15.58268 -3.79722,31 -3.97795,20.80286 -6.66313,29.8101 -9.42659,31.6208 -4.57142,2.9953 -39.71039,4.19089 -67.605,2.30023 z"
         id="path12" />
      <path
         style="fill:#9f9f9f"
         d="M 531.92431,781.25 529.5,778.5 l 2.75,2.42431 c 1.5125,1.33338 2.75,2.57088 2.75,2.75 0,0.78428 -0.8098,0.14598 -3.07569,-2.42431 z m 26.88819,2.06689 c 0.72187,-0.28887 1.58438,-0.25335 1.91667,0.0789 0.33229,0.33229 -0.25834,0.56864 -1.3125,0.52522 -1.16495,-0.048 -1.4019,-0.28494 -0.60417,-0.60416 z m 6,0 c 0.72187,-0.28887 1.58438,-0.25335 1.91667,0.0789 0.33229,0.33229 -0.25834,0.56864 -1.3125,0.52522 -1.16495,-0.048 -1.4019,-0.28494 -0.60417,-0.60416 z M 608.95821,771.75 C 613.10217,767.33481 614,766.54091 614,767.29179 c 0,0.16049 -2.1375,2.29799 -4.75,4.75 L 604.5,776.5 Z m -311.08577,-3.5 c -1.24387,-1.58606 -1.2085,-1.62143 0.37756,-0.37756 0.9625,0.75485 1.75,1.54235 1.75,1.75 0,0.82304 -0.82119,0.29331 -2.12756,-1.37244 z M 602,762.5 c 1.86578,-1.925 3.61733,-3.5 3.89233,-3.5 0.275,0 -1.02655,1.575 -2.89233,3.5 -1.86578,1.925 -3.61733,3.5 -3.89233,3.5 -0.275,0 1.02655,-1.575 2.89233,-3.5 z M 290.40499,760.75 288.5,758.5 l 2.25,1.90499 c 2.11444,1.79022 2.70524,2.59501 1.90499,2.59501 -0.18976,0 -1.20226,-1.0125 -2.25,-2.25 z M 199,632.68709 c 0,-0.1721 1.4625,-1.6346 3.25,-3.25 l 3.25,-2.93709 -2.93709,3.25 C 199.82513,632.77946 199,633.45965 199,632.68709 Z M 193.5,622 c 2.70865,-2.75 5.14982,-5 5.42482,-5 0.275,0 -1.71617,2.25 -4.42482,5 -2.70865,2.75 -5.14982,5 -5.42482,5 -0.275,0 1.71617,-2.25 4.42482,-5 z m 283.37244,-3.75 c -1.24387,-1.58606 -1.2085,-1.62143 0.37756,-0.37756 1.66575,1.30637 2.19548,2.12756 1.37244,2.12756 -0.20765,0 -0.99515,-0.7875 -1.75,-1.75 z m -320.79349,-0.83333 c 0.048,-1.16495 0.28494,-1.4019 0.60416,-0.60417 0.28887,0.72187 0.25335,1.58438 -0.0789,1.91667 -0.3323,0.33229 -0.56864,-0.25834 -0.52522,-1.3125 z M 103.75,615.33772 c 0.6875,-0.27741 1.8125,-0.27741 2.5,0 0.6875,0.27741 0.125,0.50439 -1.25,0.50439 -1.375,0 -1.9375,-0.22698 -1.25,-0.50439 z m 8.0625,-0.0208 c 0.72187,-0.28887 1.58437,-0.25335 1.91667,0.0789 0.33229,0.33229 -0.25834,0.56864 -1.3125,0.52522 -1.16495,-0.048 -1.4019,-0.28494 -0.60417,-0.60416 z M 74.872445,613.25 C 73.628574,611.66394 73.663944,611.62857 75.25,612.87244 76.915748,614.17881 77.445479,615 76.622445,615 c -0.207656,0 -0.995156,-0.7875 -1.75,-1.75 z M 407,612.62244 c 0,-0.20765 0.7875,-0.99515 1.75,-1.75 1.58606,-1.24387 1.62143,-1.2085 0.37756,0.37756 C 407.82119,612.91575 407,613.44548 407,612.62244 Z M 481.87244,607.25 c -1.24387,-1.58606 -1.2085,-1.62143 0.37756,-0.37756 0.9625,0.75485 1.75,1.54235 1.75,1.75 0,0.82304 -0.82119,0.29331 -2.12756,-1.37244 z M 156.15789,603 c 0,-1.375 0.22698,-1.9375 0.50439,-1.25 0.27741,0.6875 0.27741,1.8125 0,2.5 -0.27741,0.6875 -0.50439,0.125 -0.50439,-1.25 z m 55,-9 c 0,-1.375 0.22698,-1.9375 0.50439,-1.25 0.27741,0.6875 0.27741,1.8125 0,2.5 -0.27741,0.6875 -0.50439,0.125 -0.50439,-1.25 z M 87,545.62244 c 0,-0.20765 0.7875,-0.99515 1.75,-1.75 1.586056,-1.24387 1.621426,-1.2085 0.377555,0.37756 C 87.821186,545.91575 87,546.44548 87,545.62244 Z M 789.5,505 c 2.14824,-2.2 4.1309,-4 4.4059,-4 0.275,0 -1.25766,1.8 -3.4059,4 -2.14824,2.2 -4.1309,4 -4.4059,4 -0.275,0 1.25766,-1.8 3.4059,-4 z m -631.6875,0.31689 c 0.72187,-0.28887 1.58437,-0.25335 1.91667,0.0789 0.33229,0.33229 -0.25834,0.56864 -1.3125,0.52522 -1.16495,-0.048 -1.4019,-0.28494 -0.60417,-0.60416 z m -9,-1 c 0.72187,-0.28887 1.58437,-0.25335 1.91667,0.0789 0.33229,0.33229 -0.25834,0.56864 -1.3125,0.52522 -1.16495,-0.048 -1.4019,-0.28494 -0.60417,-0.60416 z m 36.26645,-5.90022 c 0.048,-1.16495 0.28494,-1.4019 0.60416,-0.60417 0.28887,0.72187 0.25335,1.58438 -0.0789,1.91667 -0.3323,0.33229 -0.56864,-0.25834 -0.52522,-1.3125 z M 784,494.62244 c 0,-0.20765 0.7875,-0.99515 1.75,-1.75 1.58606,-1.24387 1.62143,-1.2085 0.37756,0.37756 C 784.82119,494.91575 784,495.44548 784,494.62244 Z m 23.07895,-22.20577 c 0.048,-1.16495 0.28494,-1.4019 0.60416,-0.60417 0.28887,0.72187 0.25335,1.58438 -0.0789,1.91667 -0.33229,0.33229 -0.56864,-0.25834 -0.52522,-1.3125 z M 28.872445,466.25 c -1.243871,-1.58606 -1.208501,-1.62143 0.377555,-0.37756 0.9625,0.75485 1.75,1.54235 1.75,1.75 0,0.82304 -0.821186,0.29331 -2.127555,-1.37244 z m -9,-9 c -1.243871,-1.58606 -1.208501,-1.62143 0.377555,-0.37756 0.9625,0.75485 1.75,1.54235 1.75,1.75 0,0.82304 -0.821186,0.29331 -2.127555,-1.37244 z M 465,448.68709 c 0,-0.1721 1.4625,-1.6346 3.25,-3.25 l 3.25,-2.93709 -2.93709,3.25 C 465.82513,448.77946 465,449.45965 465,448.68709 Z m 304.8125,-0.3702 c 0.72187,-0.28887 1.58438,-0.25335 1.91667,0.0789 0.33229,0.33229 -0.25834,0.56864 -1.3125,0.52522 -1.16495,-0.048 -1.4019,-0.28494 -0.60417,-0.60416 z M 483.19495,437.5 c 0.0204,-1.65 0.2445,-2.20394 0.49804,-1.23097 0.25354,0.97297 0.23687,2.32297 -0.0371,3 -0.27393,0.67703 -0.48137,-0.11903 -0.46099,-1.76903 z m -75,-2 c 0.0204,-1.65 0.2445,-2.20394 0.49804,-1.23097 0.25354,0.97297 0.23687,2.32297 -0.0371,3 -0.27393,0.67703 -0.48137,-0.11903 -0.46099,-1.76903 z m 170.67749,-16.25 c -1.24387,-1.58606 -1.2085,-1.62143 0.37756,-0.37756 0.9625,0.75485 1.75,1.54235 1.75,1.75 0,0.82304 -0.82119,0.29331 -2.12756,-1.37244 z M 513,415.62244 c 0,-0.20765 0.7875,-0.99515 1.75,-1.75 1.58606,-1.24387 1.62143,-1.2085 0.37756,0.37756 C 513.82119,415.91575 513,416.44548 513,415.62244 Z M 381.25218,409.5 c 0.0111,-2.2 0.21589,-2.98225 0.45508,-1.73834 0.23919,1.24391 0.23011,3.04391 -0.0202,4 -0.25029,0.95609 -0.446,-0.0617 -0.4349,-2.26166 z m 209.01685,-6.19299 c 0.97297,-0.25354 2.32297,-0.23687 3,0.0371 0.67703,0.27393 -0.11903,0.48137 -1.76903,0.46099 -1.65,-0.0204 -2.20394,-0.2445 -1.23097,-0.49804 z M 327,394.5 c 1.29175,-1.375 2.57363,-2.5 2.84863,-2.5 0.275,0 -0.55688,1.125 -1.84863,2.5 -1.29175,1.375 -2.57363,2.5 -2.84863,2.5 -0.275,0 0.55688,-1.125 1.84863,-2.5 z m 200.5,0.5 c 0.99549,-1.1 2.03498,-2 2.30998,-2 0.275,0 -0.31449,0.9 -1.30998,2 -0.99549,1.1 -2.03498,2 -2.30998,2 -0.275,0 0.31449,-0.9 1.30998,-2 z m 17.26166,-8.70726 c 1.24391,-0.23919 3.04391,-0.23011 4,0.0202 0.95609,0.25029 -0.0617,0.446 -2.26166,0.4349 -2.2,-0.0111 -2.98225,-0.21589 -1.73834,-0.45508 z M 366.87244,380.25 c -1.24387,-1.58606 -1.2085,-1.62143 0.37756,-0.37756 1.66575,1.30637 2.19548,2.12756 1.37244,2.12756 -0.20765,0 -0.99515,-0.7875 -1.75,-1.75 z m 204.94006,-2.93311 c 0.72187,-0.28887 1.58438,-0.25335 1.91667,0.0789 0.33229,0.33229 -0.25834,0.56864 -1.3125,0.52522 -1.16495,-0.048 -1.4019,-0.28494 -0.60417,-0.60416 z m 167.26645,-1.90022 c 0.048,-1.16495 0.28494,-1.4019 0.60416,-0.60417 0.28887,0.72187 0.25335,1.58438 -0.0789,1.91667 -0.33229,0.33229 -0.56864,-0.25834 -0.52522,-1.3125 z m -11,-2 c 0.048,-1.16495 0.28494,-1.4019 0.60416,-0.60417 0.28887,0.72187 0.25335,1.58438 -0.0789,1.91667 -0.33229,0.33229 -0.56864,-0.25834 -0.52522,-1.3125 z m -563,-2 c 0.048,-1.16495 0.28494,-1.4019 0.60416,-0.60417 0.28887,0.72187 0.25335,1.58438 -0.0789,1.91667 -0.3323,0.33229 -0.56864,-0.25834 -0.52522,-1.3125 z m 173.73355,-0.0998 c 0.72187,-0.28887 1.58438,-0.25335 1.91667,0.0789 0.33229,0.33229 -0.25834,0.56864 -1.3125,0.52522 -1.16495,-0.048 -1.4019,-0.28494 -0.60417,-0.60416 z m 7,0 c 0.72187,-0.28887 1.58438,-0.25335 1.91667,0.0789 0.33229,0.33229 -0.25834,0.56864 -1.3125,0.52522 -1.16495,-0.048 -1.4019,-0.28494 -0.60417,-0.60416 z M 154.15789,366 c 0,-1.375 0.22698,-1.9375 0.50439,-1.25 0.27741,0.6875 0.27741,1.8125 0,2.5 -0.27741,0.6875 -0.50439,0.125 -0.50439,-1.25 z m 575,-3 c 0,-1.375 0.22698,-1.9375 0.50439,-1.25 0.27741,0.6875 0.27741,1.8125 0,2.5 -0.27741,0.6875 -0.50439,0.125 -0.50439,-1.25 z m 11.11447,-3 c 0,-2.475 0.19502,-3.4875 0.43337,-2.25 0.23836,1.2375 0.23836,3.2625 0,4.5 -0.23835,1.2375 -0.43337,0.225 -0.43337,-2.25 z m 65.97764,3.31067 c 0.9625,-0.25152 2.5375,-0.25152 3.5,0 0.9625,0.25153 0.175,0.45733 -1.75,0.45733 -1.925,0 -2.7125,-0.2058 -1.75,-0.45733 z m -753.482091,-2.0354 c 1.79735,-0.22256 4.49735,-0.21797 6,0.0102 1.50265,0.22818 0.03209,0.41027 -3.267909,0.40466 -3.3,-0.006 -4.529441,-0.1923 -2.732091,-0.41486 z M 164.25218,357.5 c 0.0111,-2.2 0.21589,-2.98225 0.45508,-1.73834 0.23919,1.24391 0.23011,3.04391 -0.0202,4 -0.25029,0.95609 -0.446,-0.0617 -0.4349,-2.26166 z M 47.8125,352.31689 c 0.721875,-0.28887 1.584375,-0.25335 1.916667,0.0789 0.332291,0.33229 -0.258334,0.56864 -1.3125,0.52522 -1.164943,-0.048 -1.4019,-0.28494 -0.604167,-0.60416 z m 14,0 c 0.721875,-0.28887 1.584375,-0.25335 1.916667,0.0789 0.332291,0.33229 -0.258334,0.56864 -1.3125,0.52522 -1.164943,-0.048 -1.4019,-0.28494 -0.604167,-0.60416 z M 730.32814,339.5 c 0.004,-3.85 0.18518,-5.30246 0.40166,-3.2277 0.21647,2.07477 0.21284,5.22477 -0.008,7 -0.22091,1.77524 -0.39803,0.0777 -0.39359,-3.7723 z m 158.10895,-1.75 -2.93709,-3.25 3.25,2.93709 c 1.7875,1.6154 3.25,3.0779 3.25,3.25 0,0.77256 -0.82513,0.0924 -3.56291,-2.93709 z M 154.232,323 c 0,-1.925 0.2058,-2.7125 0.45733,-1.75 0.25152,0.9625 0.25152,2.5375 0,3.5 -0.25153,0.9625 -0.45733,0.175 -0.45733,-1.75 z m 10,-4 c 0,-1.925 0.2058,-2.7125 0.45733,-1.75 0.25152,0.9625 0.25152,2.5375 0,3.5 -0.25153,0.9625 -0.45733,0.175 -0.45733,-1.75 z m 564.96295,-4.5 c 0.0204,-1.65 0.2445,-2.20394 0.49804,-1.23097 0.25354,0.97297 0.23687,2.32297 -0.0371,3 -0.27393,0.67703 -0.48137,-0.11903 -0.46099,-1.76903 z m 11.07741,-3.5 c 0,-2.475 0.19502,-3.4875 0.43337,-2.25 0.23836,1.2375 0.23836,3.2625 0,4.5 -0.23835,1.2375 -0.43337,0.225 -0.43337,-2.25 z m 131.80659,-2.58333 c 0.048,-1.16495 0.28494,-1.4019 0.60416,-0.60417 0.28887,0.72187 0.25335,1.58438 -0.0789,1.91667 -0.33229,0.33229 -0.56864,-0.25834 -0.52522,-1.3125 z m -717,-2 c 0.048,-1.16495 0.28494,-1.4019 0.60416,-0.60417 0.28887,0.72187 0.25335,1.58438 -0.0789,1.91667 -0.3323,0.33229 -0.56864,-0.25834 -0.52522,-1.3125 z m 573,-3 c 0.048,-1.16495 0.28494,-1.4019 0.60416,-0.60417 0.28887,0.72187 0.25335,1.58438 -0.0789,1.91667 -0.33229,0.33229 -0.56864,-0.25834 -0.52522,-1.3125 z m -572,-8 c 0.048,-1.16495 0.28494,-1.4019 0.60416,-0.60417 0.28887,0.72187 0.25335,1.58438 -0.0789,1.91667 -0.3323,0.33229 -0.56864,-0.25834 -0.52522,-1.3125 z m 583,-1 c 0.048,-1.16495 0.28494,-1.4019 0.60416,-0.60417 0.28887,0.72187 0.25335,1.58438 -0.0789,1.91667 -0.33229,0.33229 -0.56864,-0.25834 -0.52522,-1.3125 z M 686.87244,201.25 c -1.24387,-1.58606 -1.2085,-1.62143 0.37756,-0.37756 1.66575,1.30637 2.19548,2.12756 1.37244,2.12756 -0.20765,0 -0.99515,-0.7875 -1.75,-1.75 z M 207,186.5 c 1.29175,-1.375 2.57363,-2.5 2.84863,-2.5 0.275,0 -0.55688,1.125 -1.84863,2.5 -1.29175,1.375 -2.57363,2.5 -2.84863,2.5 -0.275,0 0.55688,-1.125 1.84863,-2.5 z m 196.8125,1.81689 c 0.72187,-0.28887 1.58438,-0.25335 1.91667,0.0789 0.33229,0.33229 -0.25834,0.56864 -1.3125,0.52522 -1.16495,-0.048 -1.4019,-0.28494 -0.60417,-0.60416 z m -4.54347,-4.00988 c 0.97297,-0.25354 2.32297,-0.23687 3,0.0371 0.67703,0.27393 -0.11903,0.48137 -1.76903,0.46099 -1.65,-0.0204 -2.20394,-0.2445 -1.23097,-0.49804 z m 41.54347,-15.99012 c 0.72187,-0.28887 1.58438,-0.25335 1.91667,0.0789 0.33229,0.33229 -0.25834,0.56864 -1.3125,0.52522 -1.16495,-0.048 -1.4019,-0.28494 -0.60417,-0.60416 z m -9,-1 c 0.72187,-0.28887 1.58438,-0.25335 1.91667,0.0789 0.33229,0.33229 -0.25834,0.56864 -1.3125,0.52522 -1.16495,-0.048 -1.4019,-0.28494 -0.60417,-0.60416 z m -9,-12 c 0.72187,-0.28887 1.58438,-0.25335 1.91667,0.0789 0.33229,0.33229 -0.25834,0.56864 -1.3125,0.52522 -1.16495,-0.048 -1.4019,-0.28494 -0.60417,-0.60416 z m -78,-4 c 0.72187,-0.28887 1.58438,-0.25335 1.91667,0.0789 0.33229,0.33229 -0.25834,0.56864 -1.3125,0.52522 -1.16495,-0.048 -1.4019,-0.28494 -0.60417,-0.60416 z m 208.9375,0.0208 c 0.6875,-0.27741 1.8125,-0.27741 2.5,0 0.6875,0.27741 0.125,0.50439 -1.25,0.50439 -1.375,0 -1.9375,-0.22698 -1.25,-0.50439 z m 36,0 c 0.6875,-0.27741 1.8125,-0.27741 2.5,0 0.6875,0.27741 0.125,0.50439 -1.25,0.50439 -1.375,0 -1.9375,-0.22698 -1.25,-0.50439 z m -243.9375,-10.0208 c 0.72187,-0.28887 1.58438,-0.25335 1.91667,0.0789 0.33229,0.33229 -0.25834,0.56864 -1.3125,0.52522 -1.16495,-0.048 -1.4019,-0.28494 -0.60417,-0.60416 z m 202.45653,-0.01 c 0.97297,-0.25354 2.32297,-0.23687 3,0.0371 0.67703,0.27393 -0.11903,0.48137 -1.76903,0.46099 -1.65,-0.0204 -2.20394,-0.2445 -1.23097,-0.49804 z m 42.48097,0.0307 c 0.6875,-0.27741 1.8125,-0.27741 2.5,0 0.6875,0.27741 0.125,0.50439 -1.25,0.50439 -1.375,0 -1.9375,-0.22698 -1.25,-0.50439 z m -282,-1 c 0.6875,-0.27741 1.8125,-0.27741 2.5,0 0.6875,0.27741 0.125,0.50439 -1.25,0.50439 -1.375,0 -1.9375,-0.22698 -1.25,-0.50439 z m 26,0 c 0.6875,-0.27741 1.8125,-0.27741 2.5,0 0.6875,0.27741 0.125,0.50439 -1.25,0.50439 -1.375,0 -1.9375,-0.22698 -1.25,-0.50439 z m 74.0625,-18.02083 c 0.72187,-0.28887 1.58438,-0.25335 1.91667,0.0789 0.33229,0.3323 -0.25834,0.56864 -1.3125,0.52522 -1.16495,-0.048 -1.4019,-0.28494 -0.60417,-0.60416 z m 61.45653,-0.01 c 0.97297,-0.25354 2.32297,-0.23687 3,0.037 0.67703,0.27393 -0.11903,0.48137 -1.76903,0.46099 -1.65,-0.0204 -2.20394,-0.2445 -1.23097,-0.49804 z m 14.54347,-0.99012 c 0.72187,-0.28887 1.58438,-0.25335 1.91667,0.0789 0.33229,0.3323 -0.25834,0.56864 -1.3125,0.52522 -1.16495,-0.048 -1.4019,-0.28494 -0.60417,-0.60416 z M 497,118.62244 c 0,-0.20765 0.7875,-0.99515 1.75,-1.75 1.58606,-1.24387 1.62143,-1.2085 0.37756,0.37756 C 497.82119,118.91575 497,119.44548 497,118.62244 Z m 5.07895,-70.205773 c 0.048,-1.164943 0.28494,-1.4019 0.60416,-0.604167 0.28887,0.721875 0.25335,1.584375 -0.0789,1.916667 -0.33229,0.332291 -0.56864,-0.258334 -0.52522,-1.3125 z M 493,39.622445 c 0,-0.207656 0.7875,-0.995156 1.75,-1.75 1.58606,-1.243871 1.62143,-1.208501 0.37756,0.377555 C 493.82119,39.915748 493,40.445479 493,39.622445 Z"
         id="path11" />
      <path
         style="fill:#5d5d5d"
         d="m 327.8125,793.31689 c 0.72187,-0.28887 1.58438,-0.25335 1.91667,0.0789 0.33229,0.33229 -0.25834,0.56864 -1.3125,0.52522 -1.16495,-0.048 -1.4019,-0.28494 -0.60417,-0.60416 z M 358,785.68709 c 0,-0.1721 1.4625,-1.6346 3.25,-3.25 l 3.25,-2.93709 -2.93709,3.25 C 358.82513,785.77946 358,786.45965 358,785.68709 Z m -31.23209,-2.41182 c 1.79735,-0.22256 4.49735,-0.21797 6,0.0102 1.50265,0.22818 0.0321,0.41027 -3.26791,0.40466 -3.3,-0.006 -4.52944,-0.1923 -2.73209,-0.41486 z m 241.04459,0.0416 c 0.72187,-0.28887 1.58438,-0.25335 1.91667,0.0789 0.33229,0.33229 -0.25834,0.56864 -1.3125,0.52522 -1.16495,-0.048 -1.4019,-0.28494 -0.60417,-0.60416 z M 290.87244,776.25 c -1.24387,-1.58606 -1.2085,-1.62143 0.37756,-0.37756 0.9625,0.75485 1.75,1.54235 1.75,1.75 0,0.82304 -0.82119,0.29331 -2.12756,-1.37244 z m 249.56465,-1.5 -2.93709,-3.25 3.25,2.93709 c 3.02946,2.73778 3.70965,3.56291 2.93709,3.56291 -0.1721,0 -1.6346,-1.4625 -3.25,-3.25 z M 354,774.62244 c 0,-0.20765 0.7875,-0.99515 1.75,-1.75 1.58606,-1.24387 1.62143,-1.2085 0.37756,0.37756 C 354.82119,774.91575 354,775.44548 354,774.62244 Z M 596.5,768 c 0.99549,-1.1 2.03498,-2 2.30998,-2 0.275,0 -0.31449,0.9 -1.30998,2 -0.99549,1.1 -2.03498,2 -2.30998,2 -0.275,0 0.31449,-0.9 1.30998,-2 z M 280.40499,765.75 278.5,763.5 l 2.25,1.90499 c 1.2375,1.04774 2.25,2.06024 2.25,2.25 0,0.80025 -0.80479,0.20945 -2.59501,-1.90499 z M 606,758.62244 c 0,-0.20765 0.7875,-0.99515 1.75,-1.75 1.58606,-1.24387 1.62143,-1.2085 0.37756,0.37756 C 606.82119,758.91575 606,759.44548 606,758.62244 Z M 169.8125,636.31689 c 0.72187,-0.28887 1.58437,-0.25335 1.91667,0.0789 0.33229,0.33229 -0.25834,0.56864 -1.3125,0.52522 -1.16495,-0.048 -1.4019,-0.28494 -0.60417,-0.60416 z M 186,629.62244 c 0,-0.20765 0.7875,-0.99515 1.75,-1.75 1.58606,-1.24387 1.62143,-1.2085 0.37756,0.37756 C 186.82119,629.91575 186,630.44548 186,629.62244 Z m -85.1875,-5.30555 c 0.72187,-0.28887 1.58437,-0.25335 1.91667,0.0789 0.33229,0.33229 -0.25834,0.56864 -1.3125,0.52522 -1.16495,-0.048 -1.4019,-0.28494 -0.60417,-0.60416 z m 16,0 c 0.72187,-0.28887 1.58437,-0.25335 1.91667,0.0789 0.33229,0.33229 -0.25834,0.56864 -1.3125,0.52522 -1.16495,-0.048 -1.4019,-0.28494 -0.60417,-0.60416 z M 209,621.68709 c 0,-0.1721 1.4625,-1.6346 3.25,-3.25 l 3.25,-2.93709 -2.93709,3.25 C 209.82513,621.77946 209,622.45965 209,621.68709 Z m -10,-5.06465 c 0,-0.20765 0.7875,-0.99515 1.75,-1.75 1.58606,-1.24387 1.62143,-1.2085 0.37756,0.37756 C 199.82119,616.91575 199,617.44548 199,616.62244 Z M 411.5,608 c 0.99549,-1.1 2.03498,-2 2.30998,-2 0.275,0 -0.31449,0.9 -1.30998,2 -0.99549,1.1 -2.03498,2 -2.30998,2 -0.275,0 0.31449,-0.9 1.30998,-2 z m 31.3125,-15.68311 c 0.72187,-0.28887 1.58438,-0.25335 1.91667,0.0789 0.33229,0.33229 -0.25834,0.56864 -1.3125,0.52522 -1.16495,-0.048 -1.4019,-0.28494 -0.60417,-0.60416 z m 4.45653,-0.01 c 0.97297,-0.25354 2.32297,-0.23687 3,0.0371 0.67703,0.27393 -0.11903,0.48137 -1.76903,0.46099 -1.65,-0.0204 -2.20394,-0.2445 -1.23097,-0.49804 z M 74.194949,587.5 c 0.02038,-1.65 0.244498,-2.20394 0.498042,-1.23097 0.253543,0.97297 0.236869,2.32297 -0.03705,3 C 74.382014,589.94606 74.174569,589.15 74.194949,587.5 Z M 84,548.5 c 1.291745,-1.375 2.573628,-2.5 2.848628,-2.5 0.275,0 -0.556883,1.125 -1.848628,2.5 -1.291745,1.375 -2.573628,2.5 -2.848628,2.5 -0.275,0 0.556883,-1.125 1.848628,-2.5 z m 672,-13.87756 c 0,-0.20765 0.7875,-0.99515 1.75,-1.75 1.58606,-1.24387 1.62143,-1.2085 0.37756,0.37756 C 756.82119,534.91575 756,535.44548 756,534.62244 Z M 169.26375,506.28242 c 1.52006,-0.22986 3.77006,-0.22371 5,0.0136 1.22994,0.23736 -0.0137,0.42542 -2.76375,0.41792 -2.75,-0.008 -3.75631,-0.20172 -2.23625,-0.43157 z m -14.45125,-0.96553 c 0.72187,-0.28887 1.58437,-0.25335 1.91667,0.0789 0.33229,0.33229 -0.25834,0.56864 -1.3125,0.52522 -1.16495,-0.048 -1.4019,-0.28494 -0.60417,-0.60416 z M 797.232,471 c 0,-1.925 0.2058,-2.7125 0.45733,-1.75 0.25152,0.9625 0.25152,2.5375 0,3.5 -0.25153,0.9625 -0.45733,0.175 -0.45733,-1.75 z M 24.437091,461.75 21.5,458.5 l 3.25,2.93709 C 27.779455,464.17487 28.459652,465 27.687091,465 c -0.1721,0 -1.6346,-1.4625 -3.25,-3.25 z m 394.435349,-6.5 c -1.24387,-1.58606 -1.2085,-1.62143 0.37756,-0.37756 1.66575,1.30637 2.19548,2.12756 1.37244,2.12756 -0.20765,0 -0.99515,-0.7875 -1.75,-1.75 z m 5.56465,-7.5 -2.93709,-3.25 3.25,2.93709 c 1.7875,1.6154 3.25,3.0779 3.25,3.25 0,0.77256 -0.82513,0.0924 -3.56291,-2.93709 z M 0.15789474,412 c 0,-1.375 0.22697368,-1.9375 0.50438596,-1.25 0.27741228,0.6875 0.27741228,1.8125 0,2.5 -0.27741228,0.6875 -0.50438596,0.125 -0.50438596,-1.25 z M 10.354955,405.5 c -0.003,-4.95 0.166052,-7.10108 0.375776,-4.78017 0.209724,2.3209 0.212217,6.3709 0.0055,9 C 10.529595,412.34892 10.358003,410.45 10.354955,405.5 Z M 302.75,403.33772 c 0.6875,-0.27741 1.8125,-0.27741 2.5,0 0.6875,0.27741 0.125,0.50439 -1.25,0.50439 -1.375,0 -1.9375,-0.22698 -1.25,-0.50439 z M 0.15789474,399 c 0,-1.375 0.22697368,-1.9375 0.50438596,-1.25 0.27741228,0.6875 0.27741228,1.8125 0,2.5 -0.27741228,0.6875 -0.50438596,0.125 -0.50438596,-1.25 z M 287.8125,400.31689 c 0.72187,-0.28887 1.58438,-0.25335 1.91667,0.0789 0.33229,0.33229 -0.25834,0.56864 -1.3125,0.52522 -1.16495,-0.048 -1.4019,-0.28494 -0.60417,-0.60416 z M 294.40499,389.75 292.5,387.5 l 2.25,1.90499 c 2.11444,1.79022 2.70524,2.59501 1.90499,2.59501 -0.18976,0 -1.20226,-1.0125 -2.25,-2.25 z m 553.51932,-5.5 -2.42431,-2.75 2.75,2.42431 c 2.57029,2.26589 3.20859,3.07569 2.42431,3.07569 -0.17912,0 -1.41662,-1.2375 -2.75,-2.75 z M 291,384.05902 c 0,-0.51754 0.44485,-1.21592 0.98855,-1.55194 0.56686,-0.35034 0.7345,0.0511 0.39301,0.94098 C 291.71677,385.18048 291,385.49745 291,384.05902 Z M 369.87244,383.25 c -1.24387,-1.58606 -1.2085,-1.62143 0.37756,-0.37756 1.66575,1.30637 2.19548,2.12756 1.37244,2.12756 -0.20765,0 -0.99515,-0.7875 -1.75,-1.75 z m -62.41949,-3.5 -3.95295,-4.25 4.25,3.95295 c 3.95246,3.6762 4.70953,4.54705 3.95295,4.54705 -0.16338,0 -2.07588,-1.9125 -4.25,-4.25 z m 12.35955,-1.43311 c 0.72187,-0.28887 1.58438,-0.25335 1.91667,0.0789 0.33229,0.33229 -0.25834,0.56864 -1.3125,0.52522 -1.16495,-0.048 -1.4019,-0.28494 -0.60417,-0.60416 z M 849.87244,375.25 c -1.24387,-1.58606 -1.2085,-1.62143 0.37756,-0.37756 1.66575,1.30637 2.19548,2.12756 1.37244,2.12756 -0.20765,0 -0.99515,-0.7875 -1.75,-1.75 z m -694.79349,-1.83333 c 0.048,-1.16495 0.28494,-1.4019 0.60416,-0.60417 0.28887,0.72187 0.25335,1.58438 -0.0789,1.91667 -0.3323,0.33229 -0.56864,-0.25834 -0.52522,-1.3125 z m 584,-1 c 0.048,-1.16495 0.28494,-1.4019 0.60416,-0.60417 0.28887,0.72187 0.25335,1.58438 -0.0789,1.91667 -0.33229,0.33229 -0.56864,-0.25834 -0.52522,-1.3125 z m -195.26645,-0.0998 c 0.72187,-0.28887 1.58438,-0.25335 1.91667,0.0789 0.33229,0.33229 -0.25834,0.56864 -1.3125,0.52522 -1.16495,-0.048 -1.4019,-0.28494 -0.60417,-0.60416 z m 9,0 c 0.72187,-0.28887 1.58438,-0.25335 1.91667,0.0789 0.33229,0.33229 -0.25834,0.56864 -1.3125,0.52522 -1.16495,-0.048 -1.4019,-0.28494 -0.60417,-0.60416 z M 341.75,371.33772 c 0.6875,-0.27741 1.8125,-0.27741 2.5,0 0.6875,0.27741 0.125,0.50439 -1.25,0.50439 -1.375,0 -1.9375,-0.22698 -1.25,-0.50439 z m 387.32895,-4.92105 c 0.048,-1.16495 0.28494,-1.4019 0.60416,-0.60417 0.28887,0.72187 0.25335,1.58438 -0.0789,1.91667 -0.33229,0.33229 -0.56864,-0.25834 -0.52522,-1.3125 z M 832.5,364 c -1.63041,-0.70061 -1.68751,-0.87242 -0.30902,-0.92971 0.93004,-0.0387 1.9691,0.37971 2.30902,0.92971 0.71066,1.14988 0.67591,1.14988 -2,0 z m -678.24782,-3.5 c 0.0111,-2.2 0.21589,-2.98225 0.45508,-1.73834 0.23919,1.24391 0.23011,3.04391 -0.0202,4 -0.25029,0.95609 -0.446,-0.0617 -0.4349,-2.26166 z m 9.82677,1.91667 c 0.048,-1.16495 0.28494,-1.4019 0.60416,-0.60417 0.28887,0.72187 0.25335,1.58438 -0.0789,1.91667 -0.3323,0.33229 -0.56864,-0.25834 -0.52522,-1.3125 z m 648.19008,0.89034 c 0.97297,-0.25354 2.32297,-0.23687 3,0.0371 0.67703,0.27393 -0.11903,0.48137 -1.76903,0.46099 -1.65,-0.0204 -2.20394,-0.2445 -1.23097,-0.49804 z M 838.92431,360.25 836.5,357.5 l 2.75,2.42431 c 1.5125,1.33338 2.75,2.57088 2.75,2.75 0,0.78428 -0.8098,0.14598 -3.07569,-2.42431 z M 61.75,361.33772 c 0.6875,-0.27741 1.8125,-0.27741 2.5,0 0.6875,0.27741 0.125,0.50439 -1.25,0.50439 -1.375,0 -1.9375,-0.22698 -1.25,-0.50439 z m 764.01166,-5.04498 c 1.24391,-0.23919 3.04391,-0.23011 4,0.0202 0.95609,0.25029 -0.0617,0.446 -2.26166,0.4349 -2.2,-0.0111 -2.98225,-0.21589 -1.73834,-0.45508 z M 740.42328,335.5 c 8.2e-4,-11.55 0.14638,-16.13804 0.32348,-10.19565 0.17711,5.94239 0.17644,15.39239 -10e-4,21 -0.17792,5.60761 -0.32282,0.74565 -0.322,-10.80435 z m -10.13727,15 c 0.008,-2.75 0.20172,-3.75631 0.43157,-2.23625 0.22986,1.52006 0.22371,3.77006 -0.0136,5 -0.23736,1.22994 -0.42542,-0.0138 -0.41792,-2.76375 z m -677.518101,1.77527 c 1.79735,-0.22256 4.49735,-0.21797 6,0.0102 1.50265,0.22818 0.03209,0.41027 -3.267909,0.40466 -3.3,-0.006 -4.529441,-0.1923 -2.732091,-0.41486 z M 881.40499,340.75 879.5,338.5 l 2.25,1.90499 c 2.11444,1.79022 2.70524,2.59501 1.90499,2.59501 -0.18976,0 -1.20226,-1.0125 -2.25,-2.25 z M 154.28601,330.5 c 0.008,-2.75 0.20172,-3.75631 0.43157,-2.23625 0.22986,1.52006 0.22371,3.77006 -0.0136,5 -0.23736,1.22994 -0.42542,-0.0138 -0.41792,-2.76375 z M 730.29966,328 c 0,-3.025 0.18747,-4.2625 0.41659,-2.75 0.22913,1.5125 0.22913,3.9875 0,5.5 -0.22912,1.5125 -0.41659,0.275 -0.41659,-2.75 z m 141.95252,-14.5 c 0.0111,-2.2 0.21589,-2.98225 0.45508,-1.73834 0.23919,1.24391 0.23011,3.04391 -0.0202,4 -0.25029,0.95609 -0.446,-0.0617 -0.4349,-2.26166 z M 164.15789,314 c 0,-1.375 0.22698,-1.9375 0.50439,-1.25 0.27741,0.6875 0.27741,1.8125 0,2.5 -0.27741,0.6875 -0.50439,0.125 -0.50439,-1.25 z m -8.96294,-3.5 c 0.0204,-1.65 0.2445,-2.20394 0.49804,-1.23097 0.25354,0.97297 0.23687,2.32297 -0.0371,3 -0.27393,0.67703 -0.48137,-0.11903 -0.46099,-1.76903 z M 729.15789,310 c 0,-1.375 0.22698,-1.9375 0.50439,-1.25 0.27741,0.6875 0.27741,1.8125 0,2.5 -0.27741,0.6875 -0.50439,0.125 -0.50439,-1.25 z m -564.07894,-8.58333 c 0.048,-1.16495 0.28494,-1.4019 0.60416,-0.60417 0.28887,0.72187 0.25335,1.58438 -0.0789,1.91667 -0.3323,0.33229 -0.56864,-0.25834 -0.52522,-1.3125 z m 563,-1 c 0.048,-1.16495 0.28494,-1.4019 0.60416,-0.60417 0.28887,0.72187 0.25335,1.58438 -0.0789,1.91667 -0.33229,0.33229 -0.56864,-0.25834 -0.52522,-1.3125 z m 174,-1 c 0.048,-1.16495 0.28494,-1.4019 0.60416,-0.60417 0.28887,0.72187 0.25335,1.58438 -0.0789,1.91667 -0.33229,0.33229 -0.56864,-0.25834 -0.52522,-1.3125 z m -746,-1 c 0.048,-1.16495 0.28494,-1.4019 0.60416,-0.60417 0.28887,0.72187 0.25335,1.58438 -0.0789,1.91667 -0.3323,0.33229 -0.56864,-0.25834 -0.52522,-1.3125 z m 583,-1 c 0.048,-1.16495 0.28494,-1.4019 0.60416,-0.60417 0.28887,0.72187 0.25335,1.58438 -0.0789,1.91667 -0.33229,0.33229 -0.56864,-0.25834 -0.52522,-1.3125 z m -12,-4 c 0.048,-1.16495 0.28494,-1.4019 0.60416,-0.60417 0.28887,0.72187 0.25335,1.58438 -0.0789,1.91667 -0.33229,0.33229 -0.56864,-0.25834 -0.52522,-1.3125 z M 845.19495,267.5 c 0.0204,-1.65 0.2445,-2.20394 0.49804,-1.23097 0.25354,0.97297 0.23687,2.32297 -0.0371,3 -0.27393,0.67703 -0.48137,-0.11903 -0.46099,-1.76903 z M 215,193.5 c 2.98742,-3.025 5.65668,-5.5 5.93168,-5.5 0.275,0 -1.94426,2.475 -4.93168,5.5 -2.98742,3.025 -5.65668,5.5 -5.93168,5.5 -0.275,0 1.94426,-2.475 4.93168,-5.5 z m -15.5,1.5 c 0.99549,-1.1 2.03498,-2 2.30998,-2 0.275,0 -0.31449,0.9 -1.30998,2 -0.99549,1.1 -2.03498,2 -2.30998,2 -0.275,0 0.31449,-0.9 1.30998,-2 z m 480.93709,-1.25 -2.93709,-3.25 3.25,2.93709 c 1.7875,1.6154 3.25,3.0779 3.25,3.25 0,0.77256 -0.82513,0.0924 -3.56291,-2.93709 z m 11.43535,-2.5 c -1.24387,-1.58606 -1.2085,-1.62143 0.37756,-0.37756 1.66575,1.30637 2.19548,2.12756 1.37244,2.12756 -0.20765,0 -0.99515,-0.7875 -1.75,-1.75 z M 414.8125,187.31689 c 0.72187,-0.28887 1.58438,-0.25335 1.91667,0.0789 0.33229,0.33229 -0.25834,0.56864 -1.3125,0.52522 -1.16495,-0.048 -1.4019,-0.28494 -0.60417,-0.60416 z M 681.40499,180.75 679.5,178.5 l 2.25,1.90499 c 1.2375,1.04774 2.25,2.06024 2.25,2.25 0,0.80025 -0.80479,0.20945 -2.59501,-1.90499 z M 214,180.62244 c 0,-0.20765 0.7875,-0.99515 1.75,-1.75 1.58606,-1.24387 1.62143,-1.2085 0.37756,0.37756 C 214.82119,180.91575 214,181.44548 214,180.62244 Z m 236.33333,-10.07845 c 0,-0.80081 0.38234,-1.21971 0.84965,-0.9309 0.4673,0.28881 0.59075,0.94401 0.27431,1.45601 -0.80862,1.30838 -1.12396,1.16106 -1.12396,-0.52511 z m -6.52083,-2.2271 c 0.72187,-0.28887 1.58438,-0.25335 1.91667,0.0789 0.33229,0.33229 -0.25834,0.56864 -1.3125,0.52522 -1.16495,-0.048 -1.4019,-0.28494 -0.60417,-0.60416 z m -1.51679,-12.06102 c 4.28763,-0.1879 11.03763,-0.18676 15,0.003 3.96236,0.1893 0.45429,0.34304 -7.79571,0.34164 -8.25,-0.001 -11.49193,-0.15629 -7.20429,-0.34419 z m -22.48321,-0.93898 c 0.72187,-0.28887 1.58438,-0.25335 1.91667,0.0789 0.33229,0.33229 -0.25834,0.56864 -1.3125,0.52522 -1.16495,-0.048 -1.4019,-0.28494 -0.60417,-0.60416 z m 58,0 c 0.72187,-0.28887 1.58438,-0.25335 1.91667,0.0789 0.33229,0.33229 -0.25834,0.56864 -1.3125,0.52522 -1.16495,-0.048 -1.4019,-0.28494 -0.60417,-0.60416 z m -174,-4 c 0.72187,-0.28887 1.58438,-0.25335 1.91667,0.0789 0.33229,0.33229 -0.25834,0.56864 -1.3125,0.52522 -1.16495,-0.048 -1.4019,-0.28494 -0.60417,-0.60416 z m 247,0 c 0.72187,-0.28887 1.58438,-0.25335 1.91667,0.0789 0.33229,0.33229 -0.25834,0.56864 -1.3125,0.52522 -1.16495,-0.048 -1.4019,-0.28494 -0.60417,-0.60416 z m -230.52599,-1.05697 c 3.18258,-0.19905 8.13258,-0.1972 11,0.004 2.86742,0.20131 0.26349,0.36417 -5.78651,0.36191 -6.05,-0.002 -8.39607,-0.16696 -5.21349,-0.36601 z M 569.75,150.2766 c 1.7875,-0.22182 4.7125,-0.22182 6.5,0 1.7875,0.22183 0.325,0.40333 -3.25,0.40333 -3.575,0 -5.0375,-0.1815 -3.25,-0.40333 z m -28.9375,-7.95971 c 0.72187,-0.28887 1.58438,-0.25335 1.91667,0.0789 0.33229,0.33229 -0.25834,0.56864 -1.3125,0.52522 -1.16495,-0.048 -1.4019,-0.28494 -0.60417,-0.60416 z m 59,0 c 0.72187,-0.28887 1.58438,-0.25335 1.91667,0.0789 0.33229,0.33229 -0.25834,0.56864 -1.3125,0.52522 -1.16495,-0.048 -1.4019,-0.28494 -0.60417,-0.60416 z m -46.05084,-1.02415 c 1.24391,-0.23919 3.04391,-0.23011 4,0.0202 0.95609,0.25029 -0.0617,0.446 -2.26166,0.4349 -2.2,-0.0111 -2.98225,-0.21589 -1.73834,-0.45508 z m 31.48834,0.0179 c 0.9625,-0.25152 2.5375,-0.25152 3.5,0 0.9625,0.25153 0.175,0.45733 -1.75,0.45733 -1.925,0 -2.7125,-0.2058 -1.75,-0.45733 z m -271.48834,-1.01793 c 1.24391,-0.23919 3.04391,-0.23011 4,0.0202 0.95609,0.25029 -0.0617,0.446 -2.26166,0.4349 -2.2,-0.0111 -2.98225,-0.21589 -1.73834,-0.45508 z m 13.98834,0.002 c 1.2375,-0.23836 3.2625,-0.23836 4.5,0 1.2375,0.23835 0.225,0.43337 -2.25,0.43337 -2.475,0 -3.4875,-0.19502 -2.25,-0.43337 z m 84.5,-17.9836 c 0.9625,-0.25152 2.5375,-0.25152 3.5,0 0.9625,0.25153 0.175,0.45733 -1.75,0.45733 -1.925,0 -2.7125,-0.2058 -1.75,-0.45733 z m 50.5,-0.0164 c 1.2375,-0.23836 3.2625,-0.23836 4.5,0 1.2375,0.23835 0.225,0.43337 -2.25,0.43337 -2.475,0 -3.4875,-0.19502 -2.25,-0.43337 z m 19.0625,-0.97738 c 0.72187,-0.28887 1.58438,-0.25335 1.91667,0.0789 0.33229,0.3323 -0.25834,0.56864 -1.3125,0.52522 -1.16495,-0.048 -1.4019,-0.28494 -0.60417,-0.60416 z M 422.75,113.29427 c 1.2375,-0.23836 3.2625,-0.23836 4.5,0 1.2375,0.23835 0.225,0.43337 -2.25,0.43337 -2.475,0 -3.4875,-0.19502 -2.25,-0.43337 z m 48.5,0.0164 c 0.9625,-0.25152 2.5375,-0.25152 3.5,0 0.9625,0.25153 0.175,0.45733 -1.75,0.45733 -1.925,0 -2.7125,-0.2058 -1.75,-0.45733 z m -61.5,-0.97295 c 0.6875,-0.27741 1.8125,-0.27741 2.5,0 0.6875,0.27741 0.125,0.50439 -1.25,0.50439 -1.375,0 -1.9375,-0.22698 -1.25,-0.50439 z m 72.0625,-0.0208 c 0.72187,-0.28887 1.58438,-0.25335 1.91667,0.0789 0.33229,0.3323 -0.25834,0.56864 -1.3125,0.52522 -1.16495,-0.048 -1.4019,-0.28494 -0.60417,-0.60416 z M 390.07895,64.416667 c 0.048,-1.164943 0.28494,-1.4019 0.60416,-0.604167 0.28887,0.721875 0.25335,1.584375 -0.0789,1.916667 -0.33229,0.332291 -0.56864,-0.258334 -0.52522,-1.3125 z M 482,62.622445 c 0,-0.207656 0.7875,-0.995156 1.75,-1.75 1.58606,-1.243871 1.62143,-1.208501 0.37756,0.377555 C 482.82119,62.915748 482,63.445479 482,62.622445 Z m 6,-5 c 0,-0.207656 0.7875,-0.995156 1.75,-1.75 1.58606,-1.243871 1.62143,-1.208501 0.37756,0.377555 C 488.82119,57.915748 488,58.445479 488,57.622445 Z m -99.92105,-4.205778 c 0.048,-1.164943 0.28494,-1.4019 0.60416,-0.604167 0.28887,0.721875 0.25335,1.584375 -0.0789,1.916667 -0.33229,0.332291 -0.56864,-0.258334 -0.52522,-1.3125 z M 395.87244,52.25 C 394.62857,50.663944 394.66394,50.628574 396.25,51.872445 397.91575,53.178814 398.44548,54 397.62244,54 c -0.20765,0 -0.99515,-0.7875 -1.75,-1.75 z m -8.79349,-4.833333 c 0.048,-1.164943 0.28494,-1.4019 0.60416,-0.604167 0.28887,0.721875 0.25335,1.584375 -0.0789,1.916667 -0.33229,0.332291 -0.56864,-0.258334 -0.52522,-1.3125 z M 397.87244,40.25 c -1.24387,-1.586056 -1.2085,-1.621426 0.37756,-0.377555 0.9625,0.754844 1.75,1.542344 1.75,1.75 0,0.823034 -0.82119,0.293303 -2.12756,-1.372445 z m 116.20651,-0.833333 c 0.048,-1.164943 0.28494,-1.4019 0.60416,-0.604167 0.28887,0.721875 0.25335,1.584375 -0.0789,1.916667 -0.33229,0.332291 -0.56864,-0.258334 -0.52522,-1.3125 z M 515.19495,30.5 c 0.0204,-1.65 0.2445,-2.203936 0.49804,-1.230968 0.25354,0.972967 0.23687,2.322967 -0.0371,3 C 515.38201,32.946064 515.17457,32.15 515.19495,30.5 Z"
         id="path10" />
      <path
         style="fill:#1a1a1a"
         d="m 323.33185,792.51889 c -25.60713,-4.64621 -49.29843,-28.32353 -69.88863,-69.84736 -13.12366,-26.4662 -20.75947,-48.99363 -35.41289,-104.47634 l -1.13694,-4.30481 -12.19669,12.38657 c -9.99273,10.14829 -13.50986,13.03882 -19.46366,15.99608 -3.99684,1.98523 -9.20383,3.89996 -11.57111,4.25496 -7.94118,1.19085 -16.88163,-2.76247 -21.39563,-9.4608 -2.18267,-3.23885 -2.99646,-5.51174 -5.2554,-14.6781 l -1.01308,-4.1109 -11.41707,2.78504 c -21.01998,5.12755 -35.696437,4.83716 -48.128117,-0.95225 -8.179588,-3.80923 -12.78714,-8.09159 -16.326268,-15.17402 -8.051214,-16.1119 -3.021319,-37.20972 12.947785,-54.30928 8.758356,-9.37836 20.52778,-17.67407 37.64276,-26.53258 14.70083,-7.60898 18.01463,-9.69689 17.00027,-10.71125 -0.35024,-0.35025 -9.30298,-2.60061 -19.89496,-5.0008 -10.59198,-2.40019 -22.872561,-5.55286 -27.290182,-7.00593 C 54.527253,489.53419 20.373644,463.50699 7.5690882,438.15411 -1.3953543,420.40462 -1.7531938,393.42969 6.7664104,377.64603 12.754769,366.55183 24.549223,358.04269 39,354.39103 c 5.150756,-1.30158 9.406063,-1.52723 20.5,-1.08706 25.474836,1.01073 46.67584,8.49277 82.43222,29.09111 10.95475,6.31076 14.8654,8.187 15.52019,7.44623 0.16593,-0.18772 -0.37456,-5.06631 -1.20109,-10.84131 -1.88162,-13.14695 -2.05168,-51.54222 -0.32112,-72.5 1.75044,-21.19835 4.33017,-35.1508 9.05986,-49 C 191.40363,180.15732 256.16285,135.79632 335,141.04075 c 16.05126,1.06777 28.81116,3.10641 53,8.46779 25.30572,5.60892 30.14957,6.28635 50.5,7.06264 21.12991,0.80601 43.51711,-0.75505 57.5,-4.0095 5.775,-1.3441 17.25,-4.04916 25.5,-6.01124 27.9871,-6.65613 70.01562,-7.15965 93.80935,-1.12388 17.51418,4.44284 40.62812,15.72385 56.82879,27.73591 27.63669,20.49136 48.80043,53.92895 61.29163,96.83753 6.19377,21.27623 6.07342,19.95937 6.03195,66 -0.0379,42.1198 -0.0625,42.62077 -2.74254,56 -3.097,15.46059 -7.90958,35.81999 -12.80743,54.18119 -1.86049,6.97465 -3.09716,12.96673 -2.74816,13.31573 0.34899,0.349 6.4195,-0.97321 13.49,-2.93823 13.62507,-3.78666 28.87082,-6.93704 38.94535,-8.04765 l 6.09894,-0.67235 20.90106,-41.321 c 11.49558,-22.72654 20.60405,-41.62476 20.24103,-41.99604 -0.36302,-0.37127 -4.59067,-0.97803 -9.39479,-1.34835 -11.09794,-0.85546 -11.99788,-1.87603 -8.28078,-9.39069 1.43717,-2.90543 4.91311,-8.38162 7.72431,-12.16929 5.97698,-8.05308 6.181,-9.68397 2.61006,-20.8651 -3.28017,-10.27066 -3.96877,-15.00151 -2.56526,-17.62398 1.37681,-2.5726 1.79177,-2.50576 18.72737,3.01659 l 12.16088,3.96542 11.10017,-7.55313 C 859.02702,298.39891 865.0699,295 866.35053,295 c 3.39904,0 4.62247,3.62154 5.717,16.92317 1.25478,15.24909 1.35894,15.59663 5.14463,17.16471 C 881.14012,330.7149 894,343.12469 894,345.28816 c 0,2.24243 -5.1746,5.0789 -16,8.77042 -5.225,1.78176 -9.99202,3.73498 -10.59337,4.34049 -0.60136,0.60551 -2.36228,4.70093 -3.91316,9.10093 -3.60134,10.21733 -7.27402,18.07298 -9.19476,19.66705 -1.26746,1.0519 -2.52536,0.18555 -7.92515,-5.45834 C 842.84334,378.01892 839.39358,375 838.7074,375 c -1.65704,0 -9.52715,14.41909 -26.78727,49.07788 l -14.23181,28.57787 4.40584,6.24748 c 4.22499,5.99103 4.40584,6.54412 4.40584,13.47399 0,6.3881 -0.45381,8.14472 -3.91151,15.14091 -4.71131,9.53268 -16.58896,22.05175 -29.313,30.89596 -4.52349,3.14417 -10.37349,8.1598 -13,11.14583 -4.36174,4.95876 -5.29534,5.52244 -10.77549,6.50597 -3.3,0.59225 -15,3.71895 -26,6.94823 -11,3.22928 -21.6954,6.17373 -23.76755,6.54323 -7.30236,1.30213 -8.15714,3.56308 -18.69242,49.44265 -13.31323,57.97713 -23.74561,91.17055 -38.50061,122.5 -16.94635,35.98236 -40.31972,61.89384 -62.03942,68.77627 -5.5396,1.75536 -9.39923,2.2187 -18.5,2.22092 -10.48967,0.003 -11.98587,-0.23581 -17.03042,-2.71331 -7.45675,-3.66218 -13.53813,-9.04886 -17.98722,-15.93246 -6.83449,-10.5743 -11.44584,-27.70273 -21.49774,-79.85142 -10.00581,-51.9096 -22.38868,-77.43354 -42.32351,-87.23848 -6.01322,-2.95759 -7.47122,-3.25981 -15.64613,-3.24312 -7.88235,0.0161 -9.76881,0.38302 -15.01498,2.92047 -7.73677,3.74211 -18.96074,14.89863 -23.87112,23.72768 -8.0436,14.4627 -14.85504,39.27088 -21.64486,78.83345 -7.5414,43.94181 -14.23719,62.48006 -26.81715,74.24714 -6.07444,5.68193 -11.04445,8.25915 -18.63225,9.66183 -7.13933,1.31977 -8.99873,1.27993 -18.20277,-0.39008 z m 14.86893,-9.6421 c 14.65244,-3.10569 24.1262,-13.74621 30.16213,-33.87679 2.59165,-8.6435 5.70987,-23.41201 12.14053,-57.5 12.01914,-63.71175 24.87457,-86.44787 54.94372,-97.17348 6.18074,-2.20466 17.01285,-1.79136 25.74747,0.9824 29.1048,9.24249 42.77896,36.37562 57.29641,113.69108 6.37644,33.95896 9.05601,44.03481 14.72645,55.37523 8.34333,16.68599 24.92965,23.53112 42.0021,17.33416 9.3184,-3.3824 17.13145,-8.90838 27.83025,-19.68366 C 630.86886,734.00783 650.29651,688.38318 669.48788,606 684.65714,540.88262 686.34001,534.50271 701.00914,486.5 712.224,449.80094 718.14126,428.8602 721.93227,412.45455 737.36421,345.67263 732.90374,282.25194 709.41647,234.5 693.1568,201.44248 668.57532,177.73826 635.5,163.22144 c -22.572,-9.90688 -35.64115,-12.48945 -63,-12.44931 -29.99557,0.044 -45.68453,3.10937 -78.97791,15.43098 -36.82598,13.62899 -50.79893,17.6078 -71.32331,20.30935 -13.36454,1.75913 -21.2195,1.78925 -26.69878,0.10239 -3.96083,-1.2194 -3.90698,-1.23802 5.5,-1.90228 17.90933,-1.26462 53.45477,-11.66672 50.36898,-14.7401 -0.47794,-0.47601 -6.94398,-1.56875 -14.36898,-2.4283 -16.26897,-1.88338 -30.47516,-4.40523 -54.34889,-9.64789 C 359.24879,152.75714 349.19738,151.21504 334,150.43217 284.21211,147.86741 239.26204,165.71236 209.26255,199.95233 187.57817,224.70182 172.06546,258.36415 166.3831,293 c -2.11795,12.90964 -3.02545,59.53388 -1.46975,75.51111 1.96863,20.21804 10.90208,57.81259 25.06694,105.48889 13.55862,45.63584 18.75355,64.67768 30.65504,112.36514 18.79112,75.29315 26.08271,98.97651 38.81603,126.07603 13.85382,29.4842 31.40927,52.51141 48.83578,64.05711 10.47579,6.9406 18.84362,8.72488 29.91364,6.37851 z m 97.94599,-317.95183 c -8.95754,-1.76119 -19.41382,-10.59824 -24.56264,-20.75893 -2.4203,-4.77625 -3.39381,-11.02301 -1.94381,-12.47301 1.38781,-1.38782 6.68187,3.05793 8.95499,7.52006 5.49613,10.78888 14.13088,16.74817 25.43977,17.55732 5.73278,0.41018 7.56454,0.1017 12.31764,-2.07434 6.91029,-3.16364 14.88178,-10.48329 17.65442,-16.21082 1.15009,-2.37576 3.17814,-5.03185 4.50678,-5.90241 2.25067,-1.47469 2.48644,-1.45068 3.4509,0.35143 1.74251,3.25591 1.16254,8.41748 -1.55961,13.88012 -4.28243,8.59371 -13.96705,15.13685 -26.26123,17.74267 -7.36038,1.56007 -11.50307,1.64475 -17.99721,0.36791 z M 308.54784,419.75 c -0.21416,-0.6875 -0.79862,-2.6 -1.29879,-4.25 -1.03304,-3.40785 -3.29479,-4.78246 -11.53843,-7.01258 C 290.21409,407.00046 286,404.18513 286,402 c 0,-1.42061 3.83986,-1.24027 11.52086,0.54107 6.76949,1.56995 10.49132,1.26461 10.46383,-0.85846 -0.0231,-1.7852 -1.13627,-3.04417 -4.98469,-5.63765 -5.59138,-3.76808 -11,-9.2986 -11,-11.24791 0,-2.45386 0.68573,-2.32261 9.34113,1.78782 12.92943,6.14016 15.4896,2.48243 5.65887,-8.08487 -3.3,-3.54725 -6,-7.10935 -6,-7.91576 0,-2.75504 1.87855,-2.62977 5.27426,0.3517 3.23026,2.8362 12.55361,8.06648 14.37097,8.06192 0.47012,-10e-4 3.55477,-1.46368 6.85477,-3.25 5.56952,-3.01484 6.68159,-3.24786 15.5,-3.24786 8.21449,0 10.27375,0.36266 15.21807,2.68006 7.94679,3.72466 15.13893,10.7684 18.99679,18.60483 2.66363,5.41059 3.20475,7.68188 3.24128,13.605 0.0241,3.91056 -0.40614,7.29597 -0.95614,7.52313 -0.55,0.22716 -2.42065,-2.3755 -4.15701,-5.78369 -4.84507,-9.51011 -11.44708,-17.39191 -17.8268,-21.28248 -4.75006,-2.89675 -15.71925,-2.54662 -22.25518,0.71037 -8.04811,4.01055 -15.73206,14.00428 -17.67121,22.98316 -1.02981,4.76832 -4.30616,9.45962 -6.60649,9.45962 -1.12534,0 -2.2213,-0.5625 -2.43547,-1.25 z m 271.23342,-0.46298 c -0.87764,-0.98286 -3.39761,-5.70119 -5.59993,-10.48519 -7.29203,-15.84013 -17.42468,-23.6016 -29.395,-22.51617 -10.21474,0.92624 -16.69724,6.05187 -25.28413,19.99184 -5.73743,9.31416 -8.5022,11.01231 -8.5022,5.22214 0,-4.10656 4.13031,-17.19096 6.72359,-21.29967 6.67916,-10.58222 13.59463,-15.41367 24.57244,-17.16739 7.86465,-1.25638 16.2545,-0.20969 23.29991,2.90683 2.56206,1.13333 5.42093,2.06059 6.35304,2.06059 3.61547,0 11.00136,-3.26564 14.86434,-6.5722 4.21551,-3.60832 5.69159,-3.2877 4.61485,1.00239 -0.61656,2.45654 -5.41004,7.38298 -10.43715,10.72666 -2.05548,1.36716 -2.29854,1.97911 -1.39016,3.5 1.79879,3.01167 5.8551,2.70089 14.25607,-1.09225 9.68318,-4.37208 10.96466,-4.49317 8.62113,-0.8146 -2.23028,3.50081 -5.97881,6.755 -10.66198,9.25592 -2.02615,1.08202 -4.37955,2.96046 -5.22976,4.17431 -1.40059,1.99962 -1.39224,2.37675 0.0889,4.01339 2.14955,2.37522 6.98586,2.30495 13.32478,-0.19362 6.3164,-2.48969 8,-2.51389 8,-0.11501 0,2.65941 -4.29245,5.16909 -12.98274,7.59065 -7.36932,2.05348 -7.50773,2.15283 -9.13136,6.55472 -1.82735,4.95418 -3.69781,5.95203 -6.10464,3.25666 z M 180,633.74317 c 5.77467,-2.67211 22.42822,-19.19005 27.87521,-27.64821 3.16656,-4.91707 4.12479,-7.38361 4.12479,-10.61739 0,-6.1649 -17.96174,-76.86896 -20.8843,-82.20833 -0.93737,-1.71253 -17.2834,28.1697 -22.67653,41.45503 -2.4059,5.92665 -6.03342,17.07573 -8.06116,24.77573 -3.39336,12.88573 -3.6944,15.15406 -3.7824,28.5 -0.10651,16.15294 0.7234,19.90097 5.48499,24.77123 4.60241,4.70746 9.29641,4.96206 17.9194,0.97194 z m -60.32237,-18.76091 c 9.7776,-1.5869 19.15933,-4.85751 22.33474,-7.78622 2.56758,-2.3681 3.23645,-4.27735 5.49884,-15.69604 3.33417,-16.82812 10.45111,-38.02474 19.37135,-57.69434 3.91459,-8.63189 7.11744,-16.20895 7.11744,-16.8379 0,-1.85381 -7.1221,-0.27927 -23.5,5.19533 -26.90715,8.99417 -45.04052,19.26356 -59.619325,33.76395 -15.708038,15.62354 -20.16275,30.43874 -13.288091,44.1927 6.285922,12.57608 21.993683,18.12335 42.085046,14.86252 z m 601.97243,-82.10081 20.15006,-6.16255 15.94996,-33.60945 15.94996,-33.60945 -3.82296,-0.30618 c -6.76863,-0.54209 -38.71768,8.18744 -49.0462,13.40104 -4.00685,2.02256 -4.9471,3.10495 -6.62893,7.631 C 708.71611,494.9891 697,533.71967 697,537.09129 c 0,2.96239 2.71431,2.49883 24.65006,-4.20984 z M 757.41693,518.75 c 9.91193,-17.81272 77.60496,-153.90557 77.02217,-154.84853 -1.97241,-3.19143 -4.04209,-0.13327 -18.73096,27.67692 C 786.82928,446.25424 749,523.02059 749,526.94814 c 0,4.47394 2.98142,1.57002 8.41693,-8.19814 z M 184.30437,504.83711 c 1.71302,-0.91679 1.88235,-1.75559 1.35101,-6.69263 -0.3341,-3.10446 -3.06312,-13.98275 -6.06448,-24.17397 -3.00135,-10.19121 -7.76616,-27.29121 -10.58846,-38 -2.82229,-10.70878 -5.76002,-21.72051 -6.52827,-24.47051 -1.3748,-4.92116 -1.61426,-5.14496 -15.1855,-14.19281 -15.24569,-10.1642 -33.40113,-19.96431 -49.413708,-26.67298 -39.459082,-16.53189 -71.59644,-11.24053 -83.923895,13.81793 -2.42767,4.93481 -3.085526,7.79624 -3.574518,15.54786 -0.329607,5.225 -0.102855,13.1 0.503893,17.5 3.860223,27.99348 34.527539,57.21198 76.619558,72.99983 30.89345,11.58749 86.54225,19.82939 96.80437,14.33728 z M 782.64591,496.75 c 9.24052,-9.5926 13.23751,-15.65011 14.52304,-22.00995 1.14889,-5.68383 0.002,-10.74005 -2.43642,-10.74005 -0.72434,0 -2.95204,2.8125 -4.95045,6.25 -4.21341,7.24759 -14.21075,26.97659 -15.70872,31 -1.77622,4.77078 1.09279,3.26474 8.57255,-4.5 z m 74.56883,-130.34199 c 1.94316,-6.34858 4.15174,-11.50176 5.51285,-12.86287 1.24898,-1.24898 4.85872,-3.07094 8.02164,-4.04879 9.59126,-2.96523 13.25077,-4.64608 13.25077,-6.0862 0,-0.75498 -3.77589,-4.19362 -8.39087,-7.64142 -4.61498,-3.4478 -8.98092,-7.16873 -9.70209,-8.26873 -0.78367,-1.19533 -1.53166,-6.56257 -1.85913,-13.34027 L 863.5,302.81945 l -9.01855,6.38822 c -4.96021,3.51352 -9.48351,6.67557 -10.05178,7.02678 -0.56827,0.35121 -6.12692,-0.90787 -12.35255,-2.79794 C 825.85148,311.54643 820.13728,310 819.37889,310 c -2.09363,0 -1.7046,2.51877 2.19794,14.23056 l 3.57682,10.73432 -7.07682,9.14422 C 808.17485,356.90381 808.21058,357 822.86514,357 c 14.0954,0 14.20717,0.0595 22.58521,12.01582 3.07706,4.3913 6.2534,7.98418 7.05854,7.98418 0.98898,0 2.5156,-3.43614 4.70585,-10.59199 z M 903,299.6593 c 0,-3.53186 4.24059,-6.52851 17.76808,-12.55596 15.57008,-6.93757 22.10018,-8.93453 23.23132,-7.10432 0.47775,0.77302 0.65097,1.75768 0.38493,2.18815 -1.50971,2.44275 -31.95069,17.66195 -38.73037,19.36354 C 903.30019,302.14147 903,301.92754 903,299.6593 Z m -25.66718,-25.23437 c -0.85574,-2.23003 0.9168,-7.52834 6.04034,-18.05523 C 889.32321,244.14467 895.8301,234 897.72131,234 c 2.96559,0 0.59116,8.14349 -6.5604,22.5 -8.99064,18.0484 -12.18951,22.195 -13.82809,17.92493 z m -34.88057,-3.24091 c -0.52374,-0.37621 -1.50472,-1.39304 -2.17996,-2.25962 C 839.05185,267.35812 832,235.06381 832,231.04101 c 0,-2.74526 4.01964,-4.4677 5.63539,-2.4148 0.62447,0.79342 2.53697,8.62999 4.25,17.4146 3.89977,19.99839 4.07253,27.66137 0.56686,25.14321 z M 410,122.06537 c -9.85467,-1.06387 -15.89594,-2.96262 -17.51125,-5.50373 C 390.99419,114.21048 386.73247,95.775521 381.60923,69.5 374.76891,34.418089 373.95533,26 377.4051,26 c 2.18983,0 12.32922,7.200797 22.5949,16.046459 9.7498,8.401138 14.66931,11.943234 16.59673,11.949803 C 417.49353,53.999319 429,32.210957 429,30.509733 c 0,-1.185727 13.29801,-27.1629454 14.70594,-28.7275549 3.39296,-3.770549 5.87863,0.064633 19.20748,29.6354749 4.44195,9.854709 8.76585,18.970098 9.60868,20.256418 l 1.53242,2.338765 3.72274,-1.942905 C 479.82477,51.001333 486.225,46.039905 492,41.044535 c 12.19437,-10.548118 18.81281,-15.22504 20.96859,-14.817446 2.0479,0.387197 2.44811,6.047747 1.06763,15.100451 -1.79683,11.783006 -13.1314,70.79261 -14.07413,73.27217 -1.38112,3.63263 -5.11627,5.39737 -13.58974,6.42074 -10.62956,1.28378 -67.01391,2.05522 -76.37235,1.04492 z m 76.19928,-10.28516 c 3.33173,-1.47325 3.90278,-2.31361 5.74745,-8.45799 2.14182,-7.134174 9.41351,-42.834921 10.65546,-52.313595 l 0.71951,-5.491376 -3.91085,2.925352 C 497.25988,50.051545 492.125,54.1514 488,57.553391 475.86904,67.558099 470.81401,69.908042 468.21692,66.75 467.65154,66.0625 464.48344,59.2 461.17671,51.5 452.35639,30.961192 447.13026,20 446.15799,20 c -0.89443,0 -1.488,1.151241 -15.62225,30.299695 -4.74715,9.789833 -9.27915,18.048347 -10.07112,18.352254 -2.16037,0.829014 -8.74478,-3.478019 -20.75714,-13.577794 C 393.77159,50.08337 388.4637,46 387.91217,46 c -1.20612,0 -1.12627,0.493956 5.17256,32 5.92778,29.65012 6.4816,31.69754 8.9282,33.00692 3.69679,1.97846 19.71167,2.81565 49.98707,2.61311 25.75315,-0.17229 31.07574,-0.45863 34.19928,-1.83982 z"
         id="path9" />
    </g>
  </g>
</svg>
